<svg width="245" height="33" viewBox="0 0 245 33" fill="none" xmlns="http://www.w3.org/2000/svg">
<g clip-path="url(#clip0_118_754)">
<path d="M24.3962 22.1322C22.2126 19.8794 19.9517 17.6957 17.7282 15.4774C16.5181 14.2721 16.5181 14.2672 17.7456 13.0471C19.8546 10.9496 21.9785 8.87677 24.0651 6.75215C25.188 5.60604 25.2278 4.04092 24.2692 2.95889C23.2733 1.82018 21.6698 1.68954 20.3601 2.68284C19.8775 3.0713 19.4216 3.49125 18.9956 3.93987C14.9602 7.9607 10.9199 11.9791 6.87465 15.995C6.45498 16.3551 6.01523 16.6917 5.55748 17.0031C5.49523 16.2242 5.42551 15.751 5.42302 15.2777C5.42302 11.8665 5.42302 8.45283 5.40808 5.04161C5.39563 3.58001 4.56898 2.45855 3.36386 2.11348C2.07408 1.74623 0.926226 2.26137 0.126961 3.5455C0.0915542 3.60201 0.051586 3.65559 0.00744629 3.70571V25.2452L0.0248738 25.2649C1.23746 27.6656 3.64024 27.2195 5.01965 25.7579C7.07633 23.5642 9.31227 21.5333 11.3889 19.3495C12.2529 18.445 12.8181 18.4252 13.692 19.3347C15.806 21.5382 17.9996 23.6678 20.1907 25.7973C21.0373 26.6181 21.9885 27.3033 23.2932 26.8621C25.4619 26.1251 26.0321 23.8255 24.3962 22.1322Z" fill="#0062CC"/>
<path d="M62.8655 15.8543C62.8655 14.3754 62.8381 12.8966 62.8655 11.4177C62.9053 9.6924 64.0706 8.48221 65.6044 8.48221C67.0486 8.48221 68.3657 9.80825 68.3956 11.4399C68.4454 14.1511 68.413 16.8624 68.418 19.5736C68.418 20.5127 68.8064 21.156 69.8149 21.2989C70.8233 21.4419 71.4034 20.9317 71.6375 20.0222C71.7512 19.5433 71.8056 19.0525 71.7993 18.5606C71.8167 16.4631 71.7993 14.3705 71.7993 12.2681C71.7993 11.8146 71.7993 11.361 71.8342 10.91C71.9462 9.57902 73.2211 8.43045 74.5059 8.48713C75.8828 8.54629 77.1053 9.6505 77.1277 10.9765C77.1751 13.4832 77.1502 15.9948 77.1576 18.5014C77.1338 18.9125 77.1463 19.3249 77.195 19.7338C77.3767 20.737 77.8946 21.4049 79.0425 21.3014C80.1057 21.2053 80.5614 20.562 80.5663 19.5563C80.5813 16.9659 80.5663 14.3804 80.5788 11.7825C80.5788 9.82796 81.7291 8.47481 83.355 8.48221C84.9237 8.48221 86.0939 9.89451 86.0939 11.8219C86.1064 14.4543 86.1238 17.0867 86.0939 19.7092C86.0267 25.3608 80.3671 28.6932 75.3524 26.0066C74.6702 25.6394 74.1896 25.6911 73.5323 26.0386C68.5251 28.671 62.9427 25.4027 62.8431 19.8004C62.8431 18.4866 62.863 17.1705 62.8655 15.8543Z" fill="#0062CC"/>
<path d="M124.175 2.03948C126.59 2.0518 128.408 3.86833 128.443 6.39223C128.482 8.85699 128.495 11.3217 128.443 13.7865C128.415 14.9597 128.843 15.4601 130.034 15.3615C130.697 15.3256 131.362 15.3256 132.026 15.3615C133.634 15.4083 134.65 16.3474 134.712 17.8262C134.787 19.5516 133.856 20.6903 132.172 20.8283C131.387 20.8887 130.598 20.8936 129.812 20.8431C128.769 20.7815 128.385 21.2522 128.452 22.2381C128.487 22.8538 128.487 23.471 128.452 24.0867C128.373 25.7701 127.208 26.9828 125.679 27.0025C124.21 27.0222 123.019 25.7553 122.92 24.067C122.92 23.9856 122.92 23.9043 122.92 23.8205C122.92 20.5448 123.189 20.885 119.89 20.848C117.572 20.8209 115.256 20.7617 112.943 20.6903C111.8 20.6558 111.421 20.0051 111.394 18.9058C111.346 17.5566 111.208 16.212 110.981 14.8808C110.89 14.4851 110.907 14.0724 111.031 13.6855C111.155 13.2986 111.381 12.9514 111.685 12.6798C114.818 9.63092 117.91 6.53519 121.01 3.45178C121.877 2.5694 122.868 1.95814 124.175 2.03948ZM117.395 15.221C118.45 15.2703 119.287 15.3368 120.134 15.3418C122.915 15.3565 122.925 15.3418 122.907 12.6157C122.907 11.7679 122.82 10.9175 122.775 10.1165L117.395 15.221Z" fill="#0062CC"/>
<path d="M50.1395 26.9999C48.9241 26.9938 47.7218 26.7503 46.6016 26.2834C45.4815 25.8165 44.4654 25.1353 43.6116 24.279C42.7579 23.4226 42.0832 22.4079 41.6263 21.293C41.1695 20.1781 40.9394 18.9849 40.9492 17.7818C41.009 12.342 44.9331 8.57097 50.0972 8.54386C55.6148 8.51428 59.4493 12.6156 59.4543 17.8483C59.4618 22.8419 55.1691 27.0147 50.1395 26.9999ZM50.2117 21.3113C51.1692 21.3113 52.0876 20.9348 52.7646 20.2645C53.4417 19.5943 53.8221 18.6852 53.8221 17.7374C53.8221 16.7895 53.4417 15.8805 52.7646 15.2103C52.0876 14.54 51.1692 14.1635 50.2117 14.1635C48.0828 14.1635 46.5092 15.6842 46.5067 17.7522C46.5042 19.8201 48.0256 21.3137 50.2117 21.3113Z" fill="#0062CC"/>
<path d="M107.786 16.1501C107.373 12.1473 103.991 9.00231 99.5495 8.52908C96.2628 8.17662 92.0449 9.88223 90.5036 13.7667C89.9533 15.1543 89.7317 16.6726 89.5076 18.2032V20.4955H89.535C89.535 21.7697 89.5176 23.044 89.535 24.3183C89.5183 24.7722 89.6276 25.222 89.851 25.6188C90.0745 26.0155 90.4035 26.3441 90.8024 26.5686C92.7943 27.7394 94.968 26.4109 95.0353 23.8919C95.095 21.9201 95.0352 19.9483 95.0577 17.9765C95.0751 15.7163 96.5516 14.1808 98.7004 14.1709C100.941 14.1709 102.453 15.6793 102.478 17.9937C102.495 19.9655 102.478 21.9374 102.478 23.9092C102.478 25.6961 103.603 26.963 105.174 27C106.691 27.0369 107.948 25.876 107.968 24.1433C108.03 21.474 108.058 18.7874 107.786 16.1501Z" fill="#0062CC"/>
<path d="M149.323 14.5235C149.323 13.4957 149.303 12.4679 149.323 11.4425C149.363 9.79113 150.399 8.62777 151.922 8.48481C153.09 8.3739 154.562 9.42881 154.676 10.8288C155.007 14.8611 155.59 18.9945 153.309 22.7015C149.716 28.5381 140.877 28.3211 137.558 22.3441C137.429 22.0608 137.358 21.7548 137.351 21.444C137.343 21.1333 137.398 20.8242 137.513 20.535C138.509 18.3167 138.415 16.2759 136.873 14.3066C135.589 12.665 136.226 9.67282 137.964 8.82741C139.816 7.92531 141.806 9.32036 141.876 11.6348C141.935 13.6066 141.876 15.5784 141.896 17.5502C141.908 19.7906 143.31 21.2991 145.404 21.3484C147.555 21.4001 149.246 19.7906 149.308 17.6019C149.335 16.5766 149.308 15.5488 149.308 14.5235H149.323Z" fill="#0062CC"/>
<path d="M28.1311 12.8867C28.1311 10.7079 28.1112 8.52902 28.1311 6.35264C28.151 4.4671 29.2839 3.24705 30.9497 3.24952C32.6154 3.25198 33.7434 4.49669 33.8081 6.33539C33.828 6.58147 33.828 6.82874 33.8081 7.07482C33.6712 8.16424 34.1592 8.52902 35.2373 8.48219C36.811 8.41318 38.3921 8.44522 39.9682 8.48219C40.2919 8.48219 40.6131 8.72867 40.9343 8.8519C40.8212 9.14363 40.6907 9.42841 40.5433 9.70471C39.8835 10.7917 39.1166 11.8269 38.5514 12.9631C38.1306 13.8258 37.6177 14.1832 36.6466 14.1782C33.8031 14.161 33.8031 14.1955 33.8031 16.9659C33.8031 17.6659 33.8031 18.3659 33.8031 19.0634C33.8031 20.8799 33.9401 21.0352 35.7204 21.5281C37.3811 21.9669 38.0086 22.62 38.0634 23.9707C38.1505 26.0953 36.3204 27.4361 34.1119 26.889C30.3023 25.9524 28.1137 23.1918 28.0614 19.1891C28.0315 17.0916 28.0614 14.999 28.0614 12.8966L28.1311 12.8867Z" fill="#0062CC"/>
</g>
<path d="M169.912 24.264C168.088 24.264 166.528 23.904 165.232 23.184C163.936 22.464 162.936 21.456 162.232 20.16C161.544 18.848 161.2 17.304 161.2 15.528C161.2 14.2 161.392 13.008 161.776 11.952C162.176 10.88 162.752 9.968 163.504 9.216C164.256 8.448 165.168 7.856 166.24 7.44C167.328 7.024 168.552 6.816 169.912 6.816C170.712 6.816 171.52 6.92 172.336 7.128C173.168 7.32 173.888 7.6 174.496 7.968C174.896 8.192 175.168 8.472 175.312 8.808C175.456 9.144 175.496 9.48 175.432 9.816C175.384 10.152 175.248 10.44 175.024 10.68C174.816 10.92 174.552 11.072 174.232 11.136C173.912 11.2 173.552 11.128 173.152 10.92C172.672 10.632 172.168 10.424 171.64 10.296C171.112 10.168 170.576 10.104 170.032 10.104C168.96 10.104 168.056 10.32 167.32 10.752C166.6 11.168 166.056 11.776 165.688 12.576C165.32 13.376 165.136 14.36 165.136 15.528C165.136 16.68 165.32 17.664 165.688 18.48C166.056 19.296 166.6 19.92 167.32 20.352C168.056 20.768 168.96 20.976 170.032 20.976C170.544 20.976 171.064 20.912 171.592 20.784C172.136 20.656 172.656 20.456 173.152 20.184C173.568 19.976 173.936 19.904 174.256 19.968C174.592 20.016 174.864 20.16 175.072 20.4C175.296 20.624 175.432 20.896 175.48 21.216C175.544 21.536 175.512 21.856 175.384 22.176C175.256 22.496 175.016 22.768 174.664 22.992C174.072 23.392 173.344 23.704 172.48 23.928C171.616 24.152 170.76 24.264 169.912 24.264ZM179.982 24.216C179.374 24.216 178.91 24.048 178.59 23.712C178.27 23.376 178.11 22.904 178.11 22.296V8.784C178.11 8.176 178.27 7.704 178.59 7.368C178.91 7.032 179.374 6.864 179.982 6.864C180.574 6.864 181.03 7.032 181.35 7.368C181.67 7.704 181.83 8.176 181.83 8.784V13.872H189.702V8.784C189.702 8.176 189.862 7.704 190.182 7.368C190.502 7.032 190.958 6.864 191.55 6.864C192.158 6.864 192.622 7.032 192.942 7.368C193.262 7.704 193.422 8.176 193.422 8.784V22.296C193.422 22.904 193.262 23.376 192.942 23.712C192.622 24.048 192.158 24.216 191.55 24.216C190.958 24.216 190.502 24.048 190.182 23.712C189.862 23.376 189.702 22.904 189.702 22.296V16.968H181.83V22.296C181.83 22.904 181.67 23.376 181.35 23.712C181.046 24.048 180.59 24.216 179.982 24.216ZM197.317 24.216C196.869 24.216 196.501 24.112 196.213 23.904C195.941 23.696 195.765 23.416 195.685 23.064C195.621 22.712 195.693 22.32 195.901 21.888L202.045 8.424C202.301 7.88 202.605 7.488 202.957 7.248C203.309 6.992 203.717 6.864 204.181 6.864C204.645 6.864 205.053 6.992 205.405 7.248C205.757 7.488 206.053 7.88 206.293 8.424L212.485 21.888C212.693 22.32 212.765 22.72 212.701 23.088C212.653 23.44 212.493 23.72 212.221 23.928C211.949 24.12 211.597 24.216 211.165 24.216C210.621 24.216 210.197 24.088 209.893 23.832C209.605 23.576 209.349 23.176 209.125 22.632L207.685 19.296L209.173 20.328H199.165L200.653 19.296L199.237 22.632C198.997 23.192 198.741 23.6 198.469 23.856C198.213 24.096 197.829 24.216 197.317 24.216ZM204.133 11.04L201.061 18.36L200.413 17.424H207.925L207.277 18.36L204.181 11.04H204.133ZM216.779 24.216C216.171 24.216 215.707 24.048 215.387 23.712C215.067 23.376 214.907 22.904 214.907 22.296V8.976C214.907 8.352 215.067 7.88 215.387 7.56C215.723 7.24 216.195 7.08 216.803 7.08H222.635C224.523 7.08 225.979 7.536 227.003 8.448C228.027 9.36 228.539 10.632 228.539 12.264C228.539 13.32 228.307 14.232 227.843 15C227.379 15.768 226.707 16.36 225.827 16.776C224.963 17.192 223.899 17.4 222.635 17.4L222.827 16.992H223.811C224.483 16.992 225.067 17.16 225.563 17.496C226.075 17.816 226.515 18.312 226.883 18.984L228.371 21.744C228.595 22.144 228.699 22.536 228.683 22.92C228.667 23.304 228.523 23.616 228.251 23.856C227.979 24.096 227.579 24.216 227.051 24.216C226.523 24.216 226.091 24.104 225.755 23.88C225.435 23.656 225.147 23.312 224.891 22.848L222.587 18.6C222.347 18.152 222.051 17.848 221.699 17.688C221.363 17.528 220.947 17.448 220.451 17.448H218.627V22.296C218.627 22.904 218.467 23.376 218.147 23.712C217.843 24.048 217.387 24.216 216.779 24.216ZM218.627 14.76H221.963C222.955 14.76 223.699 14.56 224.195 14.16C224.707 13.76 224.963 13.16 224.963 12.36C224.963 11.576 224.707 10.984 224.195 10.584C223.699 10.184 222.955 9.984 221.963 9.984H218.627V14.76ZM237.053 24.216C236.445 24.216 235.981 24.048 235.661 23.712C235.341 23.376 235.181 22.904 235.181 22.296V10.152H230.933C230.437 10.152 230.053 10.016 229.781 9.744C229.509 9.472 229.373 9.096 229.373 8.616C229.373 8.12 229.509 7.744 229.781 7.488C230.053 7.216 230.437 7.08 230.933 7.08H243.149C243.645 7.08 244.029 7.216 244.301 7.488C244.573 7.744 244.709 8.12 244.709 8.616C244.709 9.096 244.573 9.472 244.301 9.744C244.029 10.016 243.645 10.152 243.149 10.152H238.901V22.296C238.901 22.904 238.741 23.376 238.421 23.712C238.117 24.048 237.661 24.216 237.053 24.216Z" fill="#4A4A4A"/>
<defs>
<clipPath id="clip0_118_754">
<rect width="155" height="25" fill="white" transform="translate(0 2)"/>
</clipPath>
</defs>
</svg>
