<svg id="Layer_1" data-name="Layer 1" xmlns="http://www.w3.org/2000/svg" viewBox="0 0 622.51 101.43"><path d="M295,528.57c-8.77-9.14-17.85-18-26.78-27-4.86-4.89-4.86-4.91.07-9.86,8.47-8.51,17-16.92,25.38-25.54,4.51-4.65,4.67-11,.82-15.39-4-4.62-10.44-5.15-15.7-1.12a56.09,56.09,0,0,0-5.48,5.1Q249,479.23,224.63,503.67a59.63,59.63,0,0,1-5.29,4.09c-.25-3.16-.53-5.08-.54-7,0-13.84,0-27.69-.06-41.53-.05-5.93-3.37-10.48-8.21-11.88-5.18-1.49-9.79.6-13,5.81a5,5,0,0,1-.48.65V541.2l.07.08c4.87,9.74,14.52,7.93,20.06,2,8.26-8.9,17.24-17.14,25.58-26,3.47-3.67,5.74-3.75,9.25-.06,8.49,8.94,17.3,17.58,26.1,26.22,3.4,3.33,7.22,6.11,12.46,4.32C299.28,544.77,301.57,535.44,295,528.57Z" transform="translate(-197.02 -446.89)"/><path d="M449.5,503.1c0-6-.11-12,0-18,.16-7,4.84-11.91,11-11.91,5.8,0,11.09,5.38,11.21,12,.2,11,.07,22,.09,33,0,3.81,1.56,6.42,5.61,7s6.38-1.49,7.32-5.18a24.56,24.56,0,0,0,.65-5.93c.07-8.51,0-17,0-25.53,0-1.84,0-3.68.14-5.51.45-5.4,5.57-10.06,10.73-9.83,5.53.24,10.44,4.72,10.53,10.1.19,10.17.09,20.36.12,30.53a28.68,28.68,0,0,0,.15,5c.73,4.07,2.81,6.78,7.42,6.36,4.27-.39,6.1-3,6.12-7.08.06-10.51,0-21,.05-31.54,0-7.93,4.62-13.42,11.15-13.39,6.3,0,11,5.73,11,13.55.05,10.68.12,21.36,0,32-.27,22.93-23,36.45-43.14,25.55-2.74-1.49-4.67-1.28-7.31.13-20.11,10.68-42.53-2.58-42.93-25.31C449.41,513.78,449.49,508.44,449.5,503.1Z" transform="translate(-197.02 -446.89)"/><path d="M695.73,447.05c9.7.05,17,7.42,17.14,17.66.16,10,.21,20,0,30-.11,4.76,1.61,6.79,6.39,6.39a73.43,73.43,0,0,1,8,0c6.46.19,10.54,4,10.79,10,.3,7-3.44,11.62-10.2,12.18a66.66,66.66,0,0,1-9.48.06c-4.19-.25-5.73,1.66-5.46,5.66a67,67,0,0,1,0,7.5c-.32,6.83-5,11.75-11.14,11.83-5.9.08-10.68-5.06-11.08-11.91,0-.33,0-.66,0-1,0-13.29,1.08-11.91-12.17-12.06-9.31-.11-18.61-.35-27.9-.64-4.59-.14-6.11-2.78-6.22-7.24a124.46,124.46,0,0,0-1.66-16.33,9.25,9.25,0,0,1,2.83-8.93c12.58-12.37,25-24.93,37.45-37.44C686.5,449.2,690.48,446.72,695.73,447.05ZM668.5,500.53c4.24.2,7.6.47,11,.49,11.17.06,11.21,0,11.14-11.06,0-3.44-.35-6.89-.53-10.14Z" transform="translate(-197.02 -446.89)"/><path d="M398.39,548.32a37.1,37.1,0,0,1-36.91-37.4c.24-22.07,16-37.37,36.74-37.48,22.16-.12,37.56,16.52,37.58,37.75C435.83,531.45,418.59,548.38,398.39,548.32Zm.29-23.08a14.5,14.5,0,1,0,0-29c-8.55,0-14.87,6.17-14.88,14.56S389.9,525.25,398.68,525.24Z" transform="translate(-197.02 -446.89)"/><path d="M629.91,504.3c-1.66-16.24-15.24-29-33.08-30.92-13.2-1.43-30.14,5.49-36.33,21.25-2.21,5.63-3.1,11.79-4,18v9.3h.11c0,5.17-.07,10.34,0,15.51a10.08,10.08,0,0,0,5.09,9.13c8,4.75,16.73-.64,17-10.86.24-8,0-16,.09-24,.07-9.17,6-15.4,14.63-15.44,9,0,15.07,6.12,15.17,15.51.07,8,0,16,0,24,0,7.25,4.52,12.39,10.83,12.54,6.09.15,11.14-4.56,11.22-11.59C630.89,525.9,631,515,629.91,504.3Z" transform="translate(-197.02 -446.89)"/><path d="M796.73,497.7c0-4.17-.08-8.34,0-12.5.16-6.7,4.32-11.42,10.44-12,4.69-.45,10.6,3.83,11.06,9.51,1.33,16.36,3.67,33.13-5.49,48.17-14.43,23.68-49.93,22.8-63.26-1.45a9.44,9.44,0,0,1-.18-7.34c4-9,3.62-17.28-2.57-25.27-5.16-6.66-2.6-18.8,4.38-22.23,7.44-3.66,15.43,2,15.71,11.39.24,8,0,16,.08,24,.05,9.09,5.68,15.21,14.09,15.41,8.64.21,15.43-6.32,15.68-15.2.11-4.16,0-8.33,0-12.49Z" transform="translate(-197.02 -446.89)"/><path d="M310,491.06c0-8.84-.08-17.68,0-26.51.08-7.65,4.63-12.6,11.32-12.59s11.22,5.06,11.48,12.52a18.78,18.78,0,0,1,0,3c-.55,4.42,1.41,5.9,5.74,5.71,6.32-.28,12.67-.15,19,0,1.3,0,2.59,1,3.88,1.5a31.8,31.8,0,0,1-1.57,3.46c-2.65,4.41-5.73,8.61-8,13.22-1.69,3.5-3.75,4.95-7.65,4.93-11.42-.07-11.42.07-11.42,11.31,0,2.84,0,5.68,0,8.51,0,7.37.55,8,7.7,10,6.67,1.78,9.19,4.43,9.41,9.91.35,8.62-7,14.06-15.87,11.84-15.3-3.8-24.09-15-24.3-31.24-.12-8.51,0-17,0-25.53Z" transform="translate(-197.02 -446.89)"/></svg>