<?xml version="1.0" encoding="utf-8"?>
<!-- Generator: Adobe Illustrator 25.0.0, SVG Export Plug-In . SVG Version: 6.00 Build 0)  -->
<svg version="1.1" id="Layer_1" xmlns="http://www.w3.org/2000/svg" xmlns:xlink="http://www.w3.org/1999/xlink" x="0px" y="0px"
	 viewBox="0 0 622.5 101.5" style="enable-background:new 0 0 622.5 101.5;" xml:space="preserve">
<style type="text/css">
	.st0{opacity:5.000000e-02;fill:#E1E1DE;enable-background:new    ;}
</style>
<path class="st0" d="M98,81.7c-8.8-9.1-17.8-18-26.8-27c-4.9-4.9-4.9-4.9,0.1-9.9c8.5-8.5,17-16.9,25.4-25.5
	c4.5-4.6,4.7-11,0.8-15.4c-4-4.6-10.5-5.1-15.7-1.1c-1.9,1.6-3.8,3.3-5.5,5.1C60.1,24.2,43.8,40.5,27.6,56.8
	c-1.7,1.5-3.5,2.8-5.3,4.1c-0.2-3.2-0.5-5.1-0.5-7c0-13.8,0-27.7-0.1-41.5c0-5.9-3.4-10.5-8.2-11.9C8.3-1,3.7,1.1,0.5,6.3
	C0.3,6.5,0.2,6.7,0,6.9v87.4L0,94.4c4.9,9.7,14.5,7.9,20.1,2c8.3-8.9,17.2-17.1,25.6-26c3.5-3.7,5.7-3.8,9.2-0.1
	c8.5,8.9,17.3,17.6,26.1,26.2c3.4,3.3,7.2,6.1,12.5,4.3C102.2,97.9,104.5,88.6,98,81.7z"/>
<path class="st0" d="M252.4,56.2c0-6-0.1-12,0-18c0.2-7,4.8-11.9,11-11.9c5.8,0,11.1,5.4,11.2,12c0.2,11,0.1,22,0.1,33
	c0,3.8,1.6,6.4,5.6,7s6.4-1.5,7.3-5.2c0.5-1.9,0.7-3.9,0.6-5.9c0.1-8.5,0-17,0-25.5c0-1.8,0-3.7,0.1-5.5c0.5-5.4,5.6-10.1,10.7-9.8
	c5.5,0.2,10.4,4.7,10.5,10.1c0.2,10.2,0.1,20.4,0.1,30.5c-0.1,1.7,0,3.3,0.1,5c0.7,4.1,2.8,6.8,7.4,6.4c4.3-0.4,6.1-3,6.1-7.1
	c0.1-10.5,0-21,0-31.5c0-7.9,4.6-13.4,11.1-13.4c6.3,0,11,5.7,11,13.5c0,10.7,0.1,21.4,0,32c-0.3,22.9-23,36.4-43.1,25.6
	c-2.7-1.5-4.7-1.3-7.3,0.1c-20.1,10.7-42.5-2.6-42.9-25.3C252.4,66.9,252.4,61.6,252.4,56.2z"/>
<path class="st0" d="M498.7,0.2c9.7,0,17,7.4,17.1,17.7c0.2,10,0.2,20,0,30c-0.1,4.8,1.6,6.8,6.4,6.4c2.7-0.1,5.3-0.1,8,0
	c6.5,0.2,10.5,4,10.8,10c0.3,7-3.4,11.6-10.2,12.2c-3.2,0.2-6.3,0.3-9.5,0.1c-4.2-0.2-5.7,1.7-5.5,5.7c0.1,2.5,0.1,5,0,7.5
	c-0.3,6.8-5,11.8-11.1,11.8c-5.9,0.1-10.7-5.1-11.1-11.9v-1c0-13.3,1.1-11.9-12.2-12.1c-9.3-0.1-18.6-0.3-27.9-0.6
	c-4.6-0.1-6.1-2.8-6.2-7.2c-0.2-5.5-0.7-10.9-1.7-16.3c-0.7-3.3,0.3-6.7,2.8-8.9c12.6-12.3,25-24.9,37.5-37.4
	C489.5,2.3,493.4-0.2,498.7,0.2z M471.5,53.6c4.2,0.2,7.6,0.5,11,0.5c11.2,0.1,11.2,0,11.1-11.1c0-3.4-0.4-6.9-0.5-10.1L471.5,53.6z
	"/>
<path class="st0" d="M201.3,101.4c-20.5-0.1-37-16.8-36.9-37.3c0,0,0,0,0,0V64c0.2-22.1,16-37.4,36.7-37.5
	c22.2-0.1,37.6,16.5,37.6,37.8C238.8,84.6,221.5,101.5,201.3,101.4z M201.6,78.4c8,0,14.5-6.5,14.5-14.5s-6.5-14.5-14.5-14.5
	c-8.6,0-14.9,6.2-14.9,14.6S192.8,78.4,201.6,78.4z"/>
<path class="st0" d="M432.9,57.4c-1.7-16.2-15.2-29-33.1-30.9c-13.2-1.4-30.1,5.5-36.3,21.2c-2.2,5.6-3.1,11.8-4,18V75h0.1
	c0,5.2-0.1,10.3,0,15.5c-0.1,3.8,1.8,7.3,5.1,9.1c8,4.8,16.7-0.6,17-10.9c0.2-8,0-16,0.1-24c0.1-9.2,6-15.4,14.6-15.4
	c9,0,15.1,6.1,15.2,15.5c0.1,8,0,16,0,24c0,7.2,4.5,12.4,10.8,12.5c6.1,0.2,11.1-4.6,11.2-11.6C433.8,79,434,68.1,432.9,57.4z"/>
<path class="st0" d="M599.7,50.8c0-4.2-0.1-8.3,0-12.5c0.2-6.7,4.3-11.4,10.4-12c4.7-0.5,10.6,3.8,11.1,9.5
	c1.3,16.4,3.7,33.2-5.5,48.2c-14.4,23.7-49.9,22.8-63.3-1.4c-1-2.3-1.1-5-0.2-7.3c4-9,3.6-17.3-2.6-25.3c-5.2-6.7-2.6-18.8,4.4-22.2
	c7.4-3.7,15.4,2,15.7,11.4c0.2,8,0,16,0.1,24c0,9.1,5.7,15.2,14.1,15.4c8.6,0.2,15.4-6.3,15.7-15.2C599.7,59.2,599.6,55,599.7,50.8
	L599.7,50.8z"/>
<path class="st0" d="M113,44.2c0-8.8-0.1-17.7,0-26.5c0.1-7.6,4.6-12.6,11.3-12.6c6.7,0,11.2,5.1,11.5,12.5c0.1,1,0.1,2,0,3
	c-0.6,4.4,1.4,5.9,5.7,5.7c6.3-0.3,12.7-0.1,19,0c1.3,0,2.6,1,3.9,1.5c-0.5,1.2-1,2.3-1.6,3.5c-2.6,4.4-5.7,8.6-8,13.2
	c-1.7,3.5-3.8,5-7.6,4.9c-11.4-0.1-11.4,0.1-11.4,11.3v8.5c0,7.4,0.6,8,7.7,10c6.7,1.8,9.2,4.4,9.4,9.9c0.4,8.6-7,14.1-15.9,11.8
	c-15.3-3.8-24.1-15-24.3-31.2c-0.1-8.5,0-17,0-25.5L113,44.2z"/>
</svg>
