<svg xmlns="http://www.w3.org/2000/svg" viewBox="0 0 162.86 128.15"><defs><style>.cls-1{fill:#dd3a6c}.cls-2{fill:#666}.cls-4{fill:#333}</style></defs><g id="Layer_2"><g id="Layer_1-2"><rect width="9.26" height="50.16" x="51.69" y="2.94" class="cls-1" rx="4.63"/><rect width="9.26" height="56.03" x="85.17" class="cls-1" rx="4.63"/><rect width="12.77" height="12.77" x="66.68" y="21.63" class="cls-1" rx="6.38"/><rect width="9.26" height="24.81" x="101.91" y="15.61" class="cls-2" rx="4.63"/><rect width="9.26" height="42.44" x="118.65" y="6.79" class="cls-2" rx="4.63"/><rect width="9.26" height="28.4" x="34.95" y="13.82" class="cls-2" rx="4.63"/><text style="font-size:20.58px;font-family:TrebuchetMS-Bold,Trebuchet MS;font-weight:700;fill:#dd3a6c" transform="translate(112.2 122.61)">chart</text><path d="M17.72 102.33a1.57 1.57 0 0 1-1.57-1.57v-7.9H3.49v7.9a1.59 1.59 0 0 1-1.61 1.57 1.57 1.57 0 0 1-1.58-1.57v-19a1.58 1.58 0 0 1 1.58-1.56 1.6 1.6 0 0 1 1.61 1.58v7.89h12.66v-7.89a1.58 1.58 0 1 1 3.15 0v19a1.57 1.57 0 0 1-1.58 1.55Z" class="cls-4"/><path d="M17.72 102.63a1.87 1.87 0 0 1-1.87-1.87v-7.6H3.79v7.6a1.9 1.9 0 0 1-1.91 1.87A1.88 1.88 0 0 1 0 100.76v-19a1.88 1.88 0 0 1 1.88-1.86 1.9 1.9 0 0 1 1.91 1.88v7.59h12.06v-7.59a1.88 1.88 0 1 1 3.75 0v19a1.88 1.88 0 0 1-1.88 1.85ZM49.56 102.33a1.41 1.41 0 0 1-1.41-1l-1.86-4.45H33.21l-1.89 4.52a1.49 1.49 0 0 1-1.42.93 1.54 1.54 0 0 1-1.54-1.54 1.48 1.48 0 0 1 .13-.63l7.22-17.28a4.59 4.59 0 0 1 1.62-2 4.49 4.49 0 0 1 2.61-.68 4.32 4.32 0 0 1 2.26.7 4.9 4.9 0 0 1 1.56 2l7.33 17.53v.37a1.55 1.55 0 0 1-1.53 1.53Zm-20.29-1.79Zm5.22-6.74H45l-4.09-9.74a1 1 0 0 0-.39-.52l-.12-.09a1.42 1.42 0 0 0-.67-.17 1.51 1.51 0 0 0-.5.11l-.2.1a1.43 1.43 0 0 0-.48.57Z" class="cls-4"/><path d="M49.56 102.63a1.71 1.71 0 0 1-1.7-1.21l-1.77-4.24H33.41l-1.81 4.34a1.81 1.81 0 0 1-1.7 1.11 1.84 1.84 0 0 1-1.84-1.84 1.75 1.75 0 0 1 .16-.76l7.21-17.27a4.91 4.91 0 0 1 1.73-2.12 4.73 4.73 0 0 1 2.84-.73 4.66 4.66 0 0 1 2.44.76 5.21 5.21 0 0 1 1.66 2.07l7.35 17.59v.43a1.86 1.86 0 0 1-1.89 1.87Zm-20-1.95-.56-.24h.11-.1l.32.13.27.12Zm-.13-.07.13.06Zm5.53-7.11h9.61l-3.92-9.32a.7.7 0 0 0-.27-.39l-.14-.1a1.18 1.18 0 0 0-.49-.11 1.4 1.4 0 0 0-.4.09l-.17.09a1 1 0 0 0-.33.41ZM77.48 102.33a2.68 2.68 0 0 1-2.19-1.1L61.89 84v16.77a1.54 1.54 0 0 1-3.08 0V83a2.75 2.75 0 0 1 2.75-2.75 2.67 2.67 0 0 1 2.19 1.11l13.4 17.27V81.81a1.54 1.54 0 0 1 3.08 0v17.77a2.75 2.75 0 0 1-2.75 2.75Z" class="cls-4"/><path d="M77.48 102.63A3 3 0 0 1 75 101.4L62.19 84.83v15.89a1.84 1.84 0 0 1-3.68 0V83a3.06 3.06 0 0 1 3.05-3A3 3 0 0 1 64 81.14l12.85 16.57v-15.9a1.84 1.84 0 0 1 3.68 0v17.77a3.06 3.06 0 0 1-3.05 3.05ZM98 102.33a1.59 1.59 0 0 1-1.61-1.57V83.39h-6.66a1.6 1.6 0 0 1 0-3.19h16.41a1.6 1.6 0 0 1 0 3.19h-6.61v17.37a1.57 1.57 0 0 1-1.53 1.57Z" class="cls-4"/><path d="M98 102.63a1.9 1.9 0 0 1-2-1.87V83.69h-6.27a1.9 1.9 0 0 1-1.88-1.91 1.88 1.88 0 0 1 1.88-1.88h16.41a1.88 1.88 0 0 1 1.86 1.88 1.9 1.9 0 0 1-1.88 1.91h-6.29v17.07a1.88 1.88 0 0 1-1.83 1.87ZM129.58 102.33h-7a9.61 9.61 0 0 1-9.48-9.48v-3.17a9.61 9.61 0 0 1 9.48-9.48h7a1.6 1.6 0 1 1 0 3.19h-7a6.29 6.29 0 0 0-6.29 6.28h12.06a1.6 1.6 0 0 1 0 3.19h-12.08a6.29 6.29 0 0 0 6.29 6.29h7a1.59 1.59 0 1 1 0 3.18Z" class="cls-4"/><path d="M129.58 102.63h-7a9.91 9.91 0 0 1-9.78-9.78v-3.17a9.91 9.91 0 0 1 9.78-9.78h7a1.9 1.9 0 1 1 0 3.79h-7a6 6 0 0 0-6 5.68h11.76a1.88 1.88 0 0 1 1.87 1.88 1.9 1.9 0 0 1-1.87 1.91h-11.77a6 6 0 0 0 6 5.69h7a1.89 1.89 0 1 1 0 3.78ZM152.9 102.33H149a9.49 9.49 0 0 1-9.48-9.48v-3.17A9.61 9.61 0 0 1 149 80.2h3.92a9.61 9.61 0 0 1 9.48 9.48v3.17a9.61 9.61 0 0 1-9.5 9.48ZM149 83.39a6.29 6.29 0 0 0-6.29 6.29v3.17a6.3 6.3 0 0 0 6.29 6.3h3.92a6.38 6.38 0 0 0 6.29-6.3v-3.17a6.37 6.37 0 0 0-6.29-6.29Z" class="cls-4"/><path d="M152.9 102.63H149a9.79 9.79 0 0 1-9.78-9.78v-3.17A9.91 9.91 0 0 1 149 79.9h3.92a9.91 9.91 0 0 1 9.78 9.78v3.17a9.91 9.91 0 0 1-9.8 9.78ZM149 83.69a6 6 0 0 0-6 6v3.17a6 6 0 0 0 6 6h3.92a6.07 6.07 0 0 0 6-6v-3.18a6.07 6.07 0 0 0-6-6Z" class="cls-4"/></g></g></svg>