<svg xmlns="http://www.w3.org/2000/svg" viewBox="0 0 423.9637 198.144"><path d="M101.343 198.144v-3.99c.92-.058 1.719-.12 2.518-.155 1.194-.055 2.36-.106 3.516-.574.767-.31 1.696-.244 2.555-.3 1.244-.08 2.495-.074 3.734-.195.536-.052 1.044-.355 1.576-.5a10.606 10.606 0 0 1 1.518-.304c1.304-.153 2.655.085 3.855-.788.407-.297 1.113-.188 1.683-.258.743-.092 1.55.019 2.082-.713.07-.097.253-.146.388-.157 1.225-.1 2.36-.356 3.498-.945.877-.453 2.065-.239 2.896-1.045.166-.16.55-.088.831-.14.498-.094 1.088.024 1.369-.589.035-.077.138-.172.214-.176 1.348-.061 2.418-.92 3.665-1.274.333-.095.633-.312.945-.479.234-.124.45-.303.697-.38.568-.175 1.257-.06 1.554-.812.059-.148.42-.181.645-.257.463-.155 1.08.022 1.273-.707.041-.154.494-.205.761-.29.434-.14.989-.054 1.156-.676.03-.11.198-.258.306-.26.877-.023 1.492-.507 2.157-1.016.648-.497 1.684-.612 2.135-1.208.573-.757 1.664-.585 1.954-1.139.4-.762 1.403-.61 1.618-1.418.018-.067.147-.132.233-.148 1.193-.226 1.902-1.101 2.702-1.903.517-.519 1.208-.878 1.854-1.251 1.21-.7 2.183-1.64 3.104-2.68.468-.528 1.132-.89 1.733-1.29 1.108-.74 2.033-1.686 2.986-2.601.895-.862 1.825-1.692 2.673-2.598.864-.923 1.638-1.929 2.468-2.884a83.56 83.56 0 0 0 1.684-1.99c1.157-1.42 2.628-2.612 3.393-4.352.172-.39.591-.674.902-1.002 1.078-1.138 1.321-2.875 2.722-3.79.124-.08.13-.34.193-.515.11-.313 1.351-2.168 1.628-2.463.12-.13.26-.275.304-.437.166-.625.103-1.373.962-1.58.061-.014.136-.16.129-.238-.115-1.173 1.154-1.774 1.184-2.882 1.047-.596.641-2.062 1.628-2.722.173-.116.115-.538.23-.788.19-.41.429-.799.657-1.19.045-.08.17-.12.199-.199.39-1.074.77-2.15 1.151-3.228.125-.353.239-.71.376-1.058.206-.519.46-1.021.633-1.55.144-.443.064-.982.642-1.192.073-.026.164-.154.156-.226-.175-1.678 1.205-2.932 1.233-4.563.012-.709.127-1.39.668-1.99.27-.298.256-.887.3-1.35.07-.755.09-1.457.58-2.157.343-.492.293-1.281.356-1.944.102-1.088.078-2.174.725-3.165.263-.403.25-1.012.282-1.533.068-1.1.077-2.205.124-3.307.028-.664.028-1.31.486-1.904.231-.3.249-.818.25-1.237.016-5.612.014-11.224.01-16.836 0-.286.048-.638-.092-.848-.984-1.474-.595-3.145-.73-4.737-.094-1.087-.039-2.154-.7-3.169-.355-.542-.252-1.39-.335-2.101-.114-.98.056-2.015-.74-2.844-.19-.197-.144-.636-.175-.967-.084-.888.032-1.809-.716-2.536-.202-.196-.189-.627-.25-.954-.18-.952.04-2.028-.923-2.737-.138-.102-.099-.451-.133-.688-.114-.775.07-1.637-.785-2.177-.173-.11-.124-.54-.222-.805-.195-.524-.432-1.031-.63-1.553-.15-.393-.29-.791-.393-1.198-.123-.49-.005-1.06-.617-1.357-.154-.075-.217-.395-.27-.616-.138-.589-.076-1.268-.79-1.572-.072-.03-.153-.158-.146-.233.122-1.235-1.204-1.906-1.196-3.092-.92-.65-.736-1.992-1.668-2.657-.181-.13-.18-.52-.252-.793-.103-.398-.035-.88-.621-1.004-.142-.03-.325-.249-.348-.401-.184-1.244-1.304-1.965-1.727-2.98-.632-1.52-2.035-2.504-2.492-4.093-.07-.245-.52-.357-.69-.603-.77-1.117-1.49-2.268-2.254-3.388-.324-.474-.657-.97-1.086-1.339-1.224-1.056-2.157-2.326-3.082-3.642-.657-.936-1.655-1.627-2.481-2.448a84.434 84.434 0 0 1-2.332-2.403 21.732 21.732 0 0 0-2.924-2.646 24.632 24.632 0 0 1-3.05-2.669c-.87-.904-1.93-1.715-3.058-2.247-.573-.27-.758-.754-1.203-1.044-1.126-.735-2.359-1.34-3.399-2.142a8.534 8.534 0 0 0-1.83-1.105c-.632-.28-1.136-.848-1.709-1.273-.263-.195-.54-.392-.84-.514-.375-.15-.866-.036-.985-.648-.029-.147-.463-.234-.721-.312-.48-.143-1.037-.064-1.284-.722-.075-.199-.576-.233-.878-.35-.377-.145-.853-.068-1.048-.613-.061-.173-.457-.255-.714-.325-.496-.134-1.05-.106-1.3-.73-.061-.154-.394-.23-.615-.282-.582-.137-1.23-.075-1.55-.798-.07-.158-.518-.159-.794-.216-.45-.093-.95-.002-1.226-.568-.092-.189-.488-.256-.758-.326-.767-.198-1.638-.119-2.167-.914-.077-.117-.348-.133-.532-.145-.723-.048-1.359-.189-1.935-.74-.292-.279-.9-.243-1.369-.321-.703-.117-1.387-.16-1.982-.708-.295-.271-.884-.247-1.346-.307-.654-.085-1.305-.027-1.841-.614-.24-.261-.784-.278-1.2-.336-1.07-.15-2.15-.075-3.123-.807-.425-.319-1.206-.16-1.824-.228-1.064-.117-2.195.14-3.12-.724-.226-.21-.736-.138-1.118-.158-1.197-.064-2.395-.096-3.592-.167-1.188-.07-2.352-.159-3.509-.595-.819-.309-1.793-.213-2.7-.282-.798-.06-1.6-.1-2.519-.156V0h7.774c.053.68.52.856 1.094.89 1.434.09 2.87.172 4.305.257.752.045 1.455.053 2.156.563.476.347 1.28.271 1.943.327 1.08.09 2.168-.022 3.138.715.374.284 1.007.246 1.528.31.832.104 1.667.016 2.38.718.303.298 1.013.152 1.518.285.627.165 1.233.412 1.85.62.399.134.793.298 1.203.385.722.151 1.576-.049 2.006.82.016.032.084.053.13.055 1.17.032 2.173.522 3.207 1.027.606.296 1.396.163 1.837.898.1.166.528.157.81.185.48.048.95.057 1.218.584.07.136.314.194.487.263 1.083.43 2.288.677 3.224 1.318 1.38.944 3.163 1.173 4.302 2.518.158.186.52.206.792.286.397.117.885.076.982.66.018.112.173.276.278.287 1.334.14 2.054 1.405 3.14 1.8 1.599.581 2.505 2.16 4.196 2.551.326.076.787.588 1.08.897.821.865 1.789 1.423 2.785 2.008.487.286.903.762 1.309 1.152 1.427 1.372 2.884 2.691 4.448 3.909.903.703 1.703 1.55 2.496 2.382a157.924 157.924 0 0 1 3.778 4.124c.858.968 1.554 2.105 2.514 2.95 1.321 1.165 2.164 2.623 3.093 4.058.369.57 1.002.966 1.507 1.45.097.093.205.215.227.338.204 1.16 1.023 1.87 1.837 2.595.125.111.196.319.229.493.207 1.092.892 1.865 1.669 2.587.099.092.165.23.22.358.74 1.72 1.677 3.325 2.764 4.847.11.154.179.339.252.516.404.967.6 2.121 1.262 2.853.648.715.643 1.526 1.007 2.242.386.76.6 1.696 1.077 2.264.82.974.473 2.37 1.475 3.206.229.19.174.723.247 1.098.108.554.146 1.092.661 1.523.268.225.293.77.371 1.18.128.673-.077 1.401.702 1.913.274.18.226.886.28 1.358.077.666.198 1.267.61 1.864.323.47.344 1.168.436 1.774.111.735-.024 1.487.641 2.114.273.257.2.901.25 1.373.132 1.27-.006 2.567.817 3.725.294.413.215 1.11.251 1.682.062.957.07 1.918.12 2.876.016.331-.032.766.153.971.728.81.638 1.782.64 2.726.015 6.237.01 12.474.003 18.71 0 .758.033 1.512-.543 2.167-.215.245-.203.723-.226 1.099-.063 1.005-.08 2.013-.13 3.02-.049.95-.105 1.863-.669 2.738-.331.514-.269 1.289-.357 1.95-.135 1.01.104 2.078-.746 2.958-.263.273-.15.919-.187 1.395-.062.813-.098 1.603-.692 2.286-.25.288-.276.794-.343 1.211-.118.728.052 1.531-.756 2.033-.169.104-.163.526-.197.807-.1.835.005 1.706-.823 2.327-.232.174-.2.713-.27 1.089-.103.554-.046 1.17-.644 1.515-.076.043-.183.148-.173.206.23 1.34-1.099 2.129-1.183 3.367-.02.295-.302.57-.451.86-.172.334-.411.661-.475 1.018-.111.617-.116 1.243-.802 1.563-.099.047-.139.24-.187.371-.666 1.814-1.498 3.537-2.709 5.059-.116.146-.177.34-.251.516a16.274 16.274 0 0 1-2.682 4.316 1.75 1.75 0 0 0-.17.223c-.32.521.01 1.334-.902 1.63-.518.168-.345 1.175-1.087 1.33.06 1.06-.832 1.715-1.39 2.256-1.054 1.025-1.728 2.301-2.623 3.408-1.77 2.188-3.697 4.236-5.518 6.372-1.482 1.738-3.131 3.39-5.028 4.762-.96.695-1.953 1.438-2.656 2.454-.328.475-.89.684-1.301 1.112-.893.925-2.101 1.572-3.245 2.218-.494.28-.406 1.176-1.207 1.032-.934 1.186-2.628 1.397-3.468 2.703-.024.038-.079.083-.116.08-1.015-.066-1.696.718-2.252 1.263-.774.759-2.094.572-2.562 1.686-.029.07-.146.128-.232.145-1.763.351-3.015 1.751-4.714 2.277-.86.267-1.591.932-2.404 1.373-.368.2-.793.294-1.191.436-.358.127-.875.151-1.038.404-.352.546-.837.57-1.354.63-.095.011-.204-.003-.283.04-.517.28-1.006.621-1.545.845-.523.216-1.21.172-1.616.501-.532.433-1.07.57-1.694.61-.19.013-.474-.028-.555.078-.71.92-1.756.815-2.726.96-.227.034-.495.116-.645.271-.594.615-1.357.64-2.123.704-.652.054-1.305-.004-1.818.635-.206.256-.795.242-1.217.282-1.038.1-2.052.104-2.983.796-.432.32-1.202.186-1.818.256-1.066.12-2.218-.169-3.114.75-.157.161-.548.11-.833.126-.718.04-1.44.12-2.155.081-2.053-.108-3.959.504-5.871 1.106h-5.759Z" style="fill:#2878b8"/><path d="M0 93.024c.792-.027 1.05-.48 1.065-1.222.037-1.966.114-3.932.178-5.898.032-1.007.101-1.968.7-2.881.307-.466.21-1.199.289-1.812.154-1.192-.143-2.426.756-3.539.373-.461.162-1.39.227-2.107.054-.607.087-1.157.573-1.698.358-.4.341-1.158.44-1.764.122-.743-.005-1.563.74-2.08.04-.027.097-.075.093-.106-.202-1.56.968-2.719 1.218-4.153.092-.532.387-1.03.599-1.54.034-.083.178-.153.17-.217-.15-1.32 1.037-2.164 1.197-3.385.059-.444.37-.854.563-1.28.133-.293.312-.576.384-.884.128-.55.1-1.122.738-1.459.21-.11.193-.607.336-.9.175-.358.406-.69.622-1.028.073-.113.266-.22.253-.308-.182-1.214 1.02-1.827 1.236-2.902.136-.676.71-1.26 1.075-1.894.275-.48.408-1.166.816-1.423.974-.613.846-1.844 1.706-2.558.65-.54.883-1.57 1.352-2.35.225-.374.541-.704.861-1.007 1.141-1.077 1.481-2.7 2.77-3.742.993-.805 1.553-2.125 2.392-3.144.776-.942 1.432-2.003 2.487-2.699.48-.316.732-.86 1.176-1.257 1.007-.9 1.932-1.928 2.858-2.91.803-.852 1.755-1.6 2.47-2.586.65-.894 1.828-1.388 2.568-2.237 1.133-1.3 2.651-2.046 3.946-3.101.577-.47.995-1.19 1.63-1.523.776-.408 1.624-.766 2.183-1.395 1.046-1.18 2.779-1.353 3.691-2.676.072-.104.233-.179.364-.202 1.137-.203 1.857-1.083 2.756-1.672.236-.155.499-.278.762-.384.417-.167.966-.069 1.12-.722.035-.147.481-.215.747-.287.444-.12.948-.061 1.172-.656.066-.176.48-.22.735-.323.463-.188 1.063-.113 1.282-.766.044-.133.398-.182.618-.23.54-.118 1.136-.04 1.42-.75.076-.192.607-.18.906-.315.365-.164.706-.383 1.057-.578.197-.11.384-.29.592-.319.713-.095 1.323-.61 1.906-.733 1.392-.294 2.482-1.346 3.937-1.38.518-.012.993-.11 1.396-.582.225-.264.777-.237 1.17-.373a45.586 45.586 0 0 0 1.822-.688c.126-.05.242-.24.344-.226 1.819.251 3.236-1.218 5.034-1.15.609.023 1.226-.395 1.853-.563a16.67 16.67 0 0 1 1.806-.368c1.144-.173 2.39.19 3.381-.787.212-.209.738-.112 1.12-.131 1.484-.078 2.97-.122 4.452-.228.56-.04 1.216-.085 1.141-.946h8.061l-.232 4.126c-.56 0-1.032-.016-1.502.003-1.378.057-2.732.028-4.088.572-.937.377-2.077.263-3.128.334-1.149.076-2.306.062-3.448.186-.586.064-1.144.362-1.724.522a8.682 8.682 0 0 1-1.377.285c-1.31.138-2.676-.113-3.858.804-.326.253-.93.137-1.403.212-.871.137-1.838-.044-2.498.81-.109.142-.447.116-.681.15-.91.138-1.895-.051-2.621.813-.191.227-.728.154-1.1.24-.579.133-1.191.057-1.638.694-.198.283-.871.247-1.334.326-.55.093-1.167-.02-1.503.626-.07.135-.304.229-.477.26-.747.135-1.384.542-2.056.803-1.027.398-2.081.716-3.07 1.238-.484.255-1.153.153-1.428.806-.043.102-.219.19-.345.208-.69.105-1.228.288-1.818.836-.73.675-1.911.839-2.845 1.325-.716.372-1.352.9-2.02 1.363-.19.13-.348.366-.55.407-1.17.241-1.854 1.284-2.839 1.734-1.481.677-2.549 1.947-4.067 2.546-.546.216-.98.74-1.436 1.155-.715.65-1.341 1.382-2.282 1.778a4.375 4.375 0 0 0-1.52 1.107c-1.23 1.387-2.653 2.55-4.022 3.783-1.249 1.126-2.196 2.597-3.486 3.662-.906.747-1.449 1.815-2.492 2.435-.385.229-.704.777-1.035 1.167-1.187 1.397-2.493 2.729-3.298 4.427-.158.333-.578.532-.848.821-.9.966-1.31 2.306-2.187 3.226-.851.892-1.019 2.26-1.917 2.884-.984.685-.843 1.873-1.73 2.59-.675.546-.674 1.895-1.33 2.502-.875.811-.554 2.192-1.623 2.792-.018 1.218-1.354 1.902-1.28 3.176.013.244-.178.554-.364.746-.423.436-.605.932-.7 1.526-.06.377-.357.718-.556 1.07-.045.08-.184.146-.177.206.165 1.419-1.178 2.336-1.22 3.706-.013.41-.374.811-.583 1.213-.043.082-.177.154-.17.22.173 1.63-1.08 2.872-1.198 4.427-.061.795-.06 1.607-.736 2.26-.248.242-.217.803-.256 1.224-.091.989.014 1.984-.7 2.867-.28.348-.186 1.01-.233 1.533-.12 1.32.017 2.676-.807 3.872-.219.316-.18.833-.197 1.26-.066 1.63-.092 3.262-.162 4.892-.039.895.082 1.812-.554 2.616-.202.255-.157.737-.158 1.116-.012 3.023-.028 6.047.011 9.07.007.543.277 1.08.405 1.625.107.459.242.922.263 1.388.08 1.822.116 3.646.179 5.468.026.765.188 1.455.552 2.18.365.728.318 1.67.423 2.52.121.975.014 1.943.677 2.86.366.505.213 1.387.293 2.098.067.604.049 1.176.534 1.72.334.375.333 1.064.443 1.62.154.77-.032 1.638.79 2.197.17.115.149.529.196.809.132.775-.046 1.634.785 2.2.202.138.192.62.235.95.089.669.16 1.31.739 1.807.205.176.215.596.285.91.11.49-.027 1.056.611 1.35.178.08.25.499.28.772.071.64.28 1.182.735 1.661.21.22.29.587.364.902.126.54.023 1.161.727 1.438.142.056.14.43.247.636.23.443.49.871.73 1.309.11.198.278.4.291.608.074 1.14 1.03 1.785 1.477 2.712.06.125.22.219.243.343.188 1.067 1.23 1.692 1.4 2.803.064.416.61.746.899 1.143.894 1.228 1.374 2.742 2.6 3.744.132.109.22.306.267.478.274 1.02 1.043 1.644 1.75 2.345.477.473.87 1.063 1.184 1.662.7 1.337 1.95 2.192 2.823 3.337.733.962 1.72 1.653 2.384 2.681.559.866 1.413 1.548 2.17 2.276.87.838 1.888 1.551 2.626 2.488.426.541 1.027.812 1.47 1.342.857 1.023 1.982 1.857 2.991 2.772.583.529 1.466.738 2.058 1.368.361.384.873.627 1.23 1.014 1.023 1.109 2.602 1.463 3.552 2.666.1.126.317.197.49.219 1.099.138 1.608 1.137 2.445 1.655.11.068.176.28.273.288 1.352.11 2.063 1.33 3.159 1.808.855.373 1.635.854 2.465 1.253.444.213 1.075.094 1.236.77.015.068.15.163.218.154 1.265-.177 1.944 1.114 3.098 1.236.242.025.466.264.69.417.154.106.299.345.438.337 1.361-.078 2.305 1.04 3.568 1.218.048.007.108-.001.14.024.962.75 2.264.66 3.213 1.149.953.49 2.047.494 2.83 1.026.99.672 2.166.43 3.022.91 1.365.767 2.932.493 4.183 1.092 1.52.727 3.041.673 4.586.835.238.025.56-.03.698.103.952.908 2.155.672 3.277.762 1.29.103 2.59.099 3.877.227.699.07 1.373.36 2.071.472.846.136 1.704.22 2.56.272.71.043 1.423.008 2.264.008.05 1.501.196 2.823-.1 4.149h-5.758a16.726 16.726 0 0 0-6.143-1.146c-1.097.004-2.282.25-3.25-.704-.265-.261-.921-.124-1.398-.171-1.26-.125-2.56.077-3.706-.8-.397-.303-1.11-.193-1.677-.277-.73-.108-1.572.105-2.059-.718-.039-.066-.169-.116-.253-.111-1.423.075-2.618-.603-3.89-1.085-.717-.271-1.63-.015-2.15-.835-.04-.062-.173-.079-.266-.09-1.064-.13-2.064-.32-3.024-.944-.667-.433-1.675-.244-2.295-1.01-.16-.196-.642-.104-.952-.214-.332-.118-.635-.319-.951-.483-.28-.146-.555-.305-.843-.434-.454-.203-1.087-.092-1.279-.753-.022-.076-.145-.185-.207-.177-1.238.161-1.935-.998-3.021-1.24-.393-.088-.73-.764-1.059-.74-1.225.093-1.794-1.05-2.83-1.335-.732-.201-1.337-.869-1.998-1.33-.148-.104-.276-.28-.437-.315-1.133-.245-1.857-1.116-2.737-1.748-.115-.083-.228-.201-.356-.227-1.093-.216-1.723-1.075-2.483-1.757-.133-.12-.287-.256-.453-.296-1.45-.352-2.17-1.701-3.344-2.437-.614-.384-1.036-1.24-1.665-1.396-.964-.238-1.212-1.296-2.117-1.472-.462-1.122-1.906-1.35-2.301-2.532-1.404-.821-2.234-2.265-3.51-3.232-.521-.395-.96-.909-1.396-1.405-.838-.954-1.736-1.85-2.615-2.763-.942-.978-1.651-2.178-2.479-3.268a34.273 34.273 0 0 0-1.338-1.639c-.438-.508-1.115-.923-1.309-1.505-.394-1.186-1.298-1.901-2.02-2.804-.56-.7-.692-1.87-1.36-2.327-.975-.667-.47-2.192-1.743-2.512-.073-.896-.663-1.53-1.126-2.228-.602-.905-.96-1.955-1.667-2.8-.142-.17-.201-.422-.261-.646-.141-.527-.031-1.154-.76-1.407-.163-.056-.192-.509-.275-.78-.135-.441-.07-.99-.668-1.174-.075-.023-.171-.146-.168-.22.046-1.312-1.12-2.168-1.275-3.421-.052-.417-.417-.796-.646-1.19-.047-.08-.183-.153-.174-.215.192-1.415-1.062-2.373-1.155-3.737-.05-.74-.668-1.422-.893-2.172-.225-.744.009-1.568-.689-2.251-.334-.328-.273-1.078-.353-1.643-.106-.745-.058-1.499-.711-2.104-.258-.239-.252-.793-.307-1.212-.14-1.054.046-2.122-.732-3.107-.371-.47-.186-1.389-.23-2.106-.067-1.09-.028-2.165-.692-3.168-.31-.47-.282-1.198-.31-1.814-.09-2.06-.151-4.123-.192-6.185-.015-.742-.27-1.197-1.068-1.212V93.024Z" style="fill:#d8374b"/><path d="M355.248 110.214c.387-.036.713-.092 1.04-.092 4.22.002 8.438.006 12.658.024.956.004 1.899.037 2.78.555.39.23.916.243 1.387.316.858.132 1.817-.103 2.433.826.115.173.534.174.817.2.405.035.732.094.878.57.051.164.353.276.56.363 1.147.484 1.903 1.325 2.344 2.477.079.206.235.383.348.577.202.344.457.672.582 1.042.136.402.005.963.24 1.25 1.061 1.297.656 2.81.747 4.246.042.668.012 1.344-.026 2.013-.037.647.094 1.358-.617 1.798-.123.077-.177.345-.179.525-.015 1.735-1.373 2.72-2.27 3.934-.275.374-.86.547-1.227 1.011-.262.331-.968.31-1.606.482l-.154 1.35c.914.549 1.677 1.181 2.254 2.067.372.57 1 .973 1.496 1.468.123.123.216.304.26.474.155.592.183 1.247.91 1.495.064.022.124.155.13.24.06.791.6 1.332.933 1.981.315.615.562 1.23.975 1.829.558.808.756 1.856 1.194 2.759.502 1.034 1.105 2.017 1.648 3.031.128.24.198.512.286.772.106.315.133.68.314.942.687.997.705.985.8 1.975-.943.465-4.116.522-5.924.09-.197-.721-.182-1.574-1.01-2.057-.192-.112-.123-.633-.228-.949-.081-.245-.24-.465-.373-.692-.154-.265-.38-.506-.46-.79-.151-.534-.064-1.171-.795-1.378-.1-.028-.187-.217-.22-.347-.164-.658-.043-1.458-.913-1.746.235-1.35-1.335-1.989-1.285-3.28.023-.6-1.003-.53-.867-1.337.084-.502-.55-.843-.748-1.22-.567-1.087-1.627-1.64-2.321-2.553-.126-.165-.364-.269-.57-.343-.526-.187-1.096-.195-1.504-.73-.173-.227-.698-.25-1.064-.256a350.378 350.378 0 0 0-7.192-.039c-.452.003-.904.18-1.468.302v17.578h-5.069c-.313-1.5-.259-41.348.076-42.753Zm5.075 19.602c.671.121 1.266.316 1.863.322 2.443.023 4.895-.137 7.328.019 1.62.104 2.856-.726 3.989-1.461 1.498-.973 2.4-2.657 2.478-4.514.075-1.77.362-3.56-.76-5.259-.841-1.274-1.59-2.482-3.144-2.92-.228-.063-.535-.09-.657-.247-.558-.72-1.347-.642-2.093-.652a325.72 325.72 0 0 0-7.33-.031c-.548.004-1.094.191-1.674.3v14.443ZM309.205 59.321l-.135 1.314c1.218.94 2.156 2.037 3.15 3.092.716.76.664 1.984 1.713 2.44.064.028.107.163.113.251.055.736.254 1.393.94 1.798-.07 1.21 1.195 1.847 1.276 3.039.032.472.59.888.822 1.372.237.493.141 1.127.763 1.46.175.094.193.498.266.764.123.446.089.943.659 1.184.175.074.209.482.306.737.136.354.168.876.423 1.03.853.518.617 1.287.694 1.995-1.127.346-4.256.372-5.872.062-.366-.64-.112-1.518-.987-2.057-.518-.319-.051-1.524-.976-1.898-.113-.046-.147-.333-.183-.515-.113-.589-.068-1.237-.808-1.522-.13-.05-.129-.431-.193-.658-.137-.484-.071-1.074-.739-1.275-.122-.037-.211-.295-.253-.466-.15-.616-.023-1.348-.833-1.663-.131-.05-.132-.43-.198-.658-.129-.441-.077-.973-.675-1.168-.134-.043-.265-.284-.287-.45-.158-1.18-.926-1.901-1.809-2.575-.308-.235-.435-.729-.754-.923-2.347-1.429-2.82-2.077-5.677-1.972-1.677.061-3.357-.017-5.035.016-1.354.027-1.574.258-1.578 1.629-.014 4.749-.001 9.497-.013 14.246-.001.659-.08 1.317-.127 2.035h-5.041V37.288c.446-.05.811-.125 1.176-.124 4.412.004 8.823.018 13.235.035.71.003 1.363.049 2.033.49.504.334 1.281.273 1.941.347.697.078 1.456-.06 1.919.68.043.07.164.121.251.125 1.14.051 1.743 1.13 2.773 1.443.423.128.83.637 1.04 1.07.535 1.1 1.687 1.893 1.638 3.283-.006.184.012.424.12.55 1.018 1.18.755 2.617.807 3.98.034.91.027 1.828-.067 2.73-.05.493-.312.966-.494 1.442-.102.266-.323.515-.339.781-.082 1.367-.762 2.343-1.88 3.06-.047.898-1.066.91-1.45 1.571-.208.358-1.011.369-1.655.57Zm-15.873-9.761c0 1.916-.01 3.833.003 5.75.01 1.625.16 1.777 1.84 1.786 2.107.012 4.216.047 6.321-.029 1.364-.049 2.686.102 4.034-.804 1.168-.785 2.322-1.332 2.637-2.824.036-.173.185-.319.262-.486.213-.462.584-.925.592-1.393.031-1.827.552-3.742-.745-5.394-.083-.105-.103-.263-.14-.4-.348-1.29-1.455-2.064-2.426-2.6-1.531-.844-3.274-1.291-5.147-1.129-1.854.161-3.733.018-5.6.04-1.37.017-1.608.25-1.623 1.589-.023 1.964-.006 3.929-.008 5.893ZM297.17 128.022v-17.827h5.705c.313.977.449 40.146.14 42.635-1.193.327-4.155.342-5.836-.01V133.14c-.584-.042-1-.098-1.418-.099-5.805-.006-11.61-.004-17.415-.004-.144 0-.288-.003-.432.002-1.38.05-1.56.21-1.564 1.623-.012 4.8-.005 9.598-.005 14.397 0 .816.014 1.632-.008 2.448-.012.466-.082.931-.142 1.567h-5.022v-42.885c.394-.045.717-.11 1.041-.112 1.284-.012 2.568-.005 3.973-.005.06.792.148 1.45.15 2.107.013 4.51.007 9.022.008 13.533 0 .384-.015.77.014 1.151.07.918.306 1.15 1.24 1.242.238.023.48.008.72.008 5.804 0 11.609.002 17.414-.003.42 0 .839-.05 1.436-.087ZM331.812 110.064c.846 1.008 1.45 1.928 1.404 3.145-.01.24.243.49.376.733.15.277.374.536.44.83.156.698.214 1.401.773 1.96.205.205.229.61.293.931.116.588-.027 1.257.672 1.633.148.08.17.422.223.65.185.813.025 1.758.943 2.284.11.063.104.353.128.54.082.652.065 1.3.705 1.78.236.175.214.706.292 1.08.123.589.038 1.241.714 1.624.185.105.24.5.29.773.144.778-.012 1.665.842 2.164-.208 1.522 1.28 2.501 1.272 3.976-.002.32.274.643.431.96.12.24.329.46.37.71.147.884.097 1.826.981 2.423.114.076.098.354.129.54.105.643-.027 1.378.705 1.773a.17.17 0 0 1 .073.12c.09 1.288.723 2.385 1.184 3.551.265.67.03 1.533.854 1.99.109.06.113.35.128.537.055.722.157 1.404.751 1.938.188.168.256.515.297.792.105.695.094 1.363.763 1.904.291.234.188.957.281 1.573h-5.888c-.2-.911-.2-1.826-.959-2.473-.19-.161-.11-.64-.154-.972-.08-.603-.009-1.246-.71-1.613-.182-.096-.236-.496-.288-.768-.155-.81.015-1.682-.81-2.326-.266-.208-.14-.908-.21-1.38-.15-1.001-.484-1.32-1.491-1.405-.334-.028-.672-.01-1.007-.01h-17.377c.113 1.758-1.402 2.902-1.193 4.566-1.319.954-.506 2.812-1.696 3.92-.436.405-.277 1.45-.384 2.171-1.338.465-4.431.535-5.902.131.1-.987-.26-2.082.802-2.848.153-.11.183-.43.218-.66.107-.71.18-1.405.734-1.972.201-.206.22-.61.282-.931.104-.545.002-1.142.635-1.5.182-.104.207-.507.279-.78.21-.8.053-1.739.943-2.283.134-.081.099-.448.131-.684.077-.56.065-1.11.618-1.53.25-.187.288-.685.37-1.054.142-.632.033-1.366.789-1.72.066-.031.109-.16.123-.249.17-1.059.305-2.064.975-3.037.428-.622.363-1.627.934-2.329.16-.197.158-.538.203-.818.097-.591-.003-1.228.701-1.602.2-.107.223-.605.269-.932.1-.704.08-1.45.827-1.866.037-.02.081-.078.077-.113-.142-1.314.946-2.227 1.117-3.439.086-.606.109-1.207.687-1.66.243-.19.264-.693.337-1.063.124-.629-.068-1.387.754-1.704.028-1.274.815-2.27 1.217-3.405.226-.638.021-1.397.806-1.85.21-.12.158-.714.21-1.094.181-1.337.413-1.565 1.7-1.63.239-.011.479-.002.719-.002h4.297Zm4.326 27.06c.033-.447.083-.64.054-.819-.157-.96-.098-2.003-.973-2.706.241-1.572-1.286-2.639-1.187-4.17-.752-.868-.984-1.915-1.045-3.024a.318.318 0 0 0-.147-.228c-.694-.335-.607-1.018-.734-1.606-.092-.42-.048-1.044-.306-1.218-.74-.5-.64-1.205-.742-1.894-.048-.323-.108-.737-.323-.925-.543-.473-.546-1.087-.623-1.694-.127-1.005-.837-1.452-1.775-1.97-.13 1.287-.439 2.352-1.146 3.27-.125.161-.055.465-.097.7-.237 1.317-1.195 2.416-1.154 3.819.002.042-.026.108-.06.125-.836.436-.749 1.24-.822 1.994-.03.326-.071.793-.282.931-.637.42-.59 1.038-.672 1.642-.032.233-.017.575-.159.675-1.29.914-.47 2.787-1.712 3.703-.093 1.033-.166 2.07-.904 2.907-.027.03.066.166.2.478 4.765.019 9.626.006 14.609.01ZM397.041 79.89V37.379c.996-.33 23.963-.444 26.131-.117a15.72 15.72 0 0 1-.082 4.787h-1.598c-5.662 0-11.324-.001-16.986.002-.43 0-.867-.013-1.291.05-.581.085-.934.388-.932 1.056.015 3.836.007 7.672.007 11.687.722.076 1.367.2 2.012.203 5.374.016 10.748.009 16.122.01.384 0 .77-.024 1.15.01 1 .091 1.25.348 1.278 1.335.021.767.03 1.537-.009 2.303-.047.954-.359 1.267-1.31 1.363-.38.038-.766.014-1.15.014-5.326 0-10.652-.007-15.978.009-.652.002-1.304.12-2.028.191v14.29c.472.605 1.21.536 1.924.536 5.902.002 11.804.001 17.706.001h1.956v4.701c-.949.312-24.834.418-26.922.08ZM262.295 149.876c-.954.667-1.816 1.29-2.7 1.878-.23.153-.527.213-.798.298-1.426.448-2.744 1.274-4.31 1.231-1.007 1.014-2.311.725-3.523.768a59.02 59.02 0 0 1-4.171-.005c-1.065-.037-2.191.2-3.112-.684-.229-.22-.731-.16-1.109-.22-.878-.144-1.855-.003-2.47-.898-.063-.092-.262-.149-.386-.132-1.196.16-1.693-1.042-2.658-1.354-.468-.151-.895-.489-1.286-.81-.55-.45-1.1-.918-1.556-1.457-.845-1-1.738-1.977-2.24-3.22-.821-.24-.76-.964-.901-1.595-.045-.203-.221-.387-.366-.555-.088-.103-.304-.137-.338-.242-.415-1.287-.913-2.561-1.172-3.882-.227-1.158-.09-2.357-.704-3.48-.297-.541-.22-1.31-.236-1.978-.03-1.294-.056-2.593.02-3.884.041-.696.33-1.373.45-2.07.17-.984.283-1.978.427-2.967.093-.635-.083-1.316.616-1.812.265-.189.251-.787.338-1.205.123-.593.06-1.26.78-1.575.125-.055.212-.313.228-.485.108-1.195 1-1.863 1.722-2.658.713-.784 1.368-1.62 2.068-2.417.744-.846 1.718-1.435 2.532-2.217.706-.677 1.894-.854 2.871-1.245.132-.053.333-.021.411-.109.92-1.031 2.18-.761 3.335-.919.449-.06.87-.306 1.312-.436.448-.132.905-.307 1.362-.32 1.485-.04 2.972-.029 4.458-.007.706.01 1.373.014 2.008.56.361.311 1.092.197 1.658.264.837.1 1.733-.04 2.371.76.145.18.526.176.801.247.48.125 1.1-.022 1.28.683.017.07.15.163.222.157 1.18-.1 1.733.953 2.73 1.476 0 1.51.02 3.086-.019 4.662-.007.293-.177.712-.404.84-.365.205-.495-.354-.702-.442-.81-.349-1.143-1.287-2.077-1.493-.545-.12-1.068-.51-1.511-.885-1.291-1.092-3.103-.786-4.455-1.717-.282-.195-.732-.194-1.106-.2a182.87 182.87 0 0 0-4.89-.013c-.8.01-1.602-.044-2.278.621-.258.254-.816.197-1.233.298-.573.139-1.288-.008-1.546.783-.03.09-.236.163-.366.176-1.18.116-1.676 1.198-2.531 1.75-1.39.898-1.63 2.61-2.81 3.628-.173.15-.11.55-.204.817-.15.425-.351.832-.511 1.255-.149.392-.358.786-.39 1.192-.111 1.38-.358 2.708-.69 4.066-.531 2.173-.543 4.435.214 6.655.333.974.3 2.071.449 3.11.083.582-.124 1.29.654 1.598.073.03.166.158.155.226-.194 1.262.861 2.015 1.274 3.027.28.685.74 1.375 1.428 1.837.391.262.857.567 1.035.966.48 1.077 1.865.814 2.416 1.754.082.14.432.133.66.175.552.1 1.078.111 1.516.644.242.293.878.353 1.338.36 2.397.036 4.794.052 7.19-.002.529-.012 1.055-.326 1.574-.524.266-.101.538-.398.764-.358 1.359.24 2.136-.992 3.309-1.263.636-.147 1.156-.802 1.725-1.232.211-.16.389-.384.622-.487 1.107-.49 1.397-.328 1.428.834.033 1.244.008 2.49.008 3.858ZM356.08 40.205c.367 2.82.238 4.864-.446 5.884-.285-.883-1.208-.975-1.678-1.72-.354-.56-1.188-.975-1.88-1.128-1.25-.276-2.16-1.462-3.57-1.252a.935.935 0 0 1-.668-.202c-.8-.701-1.768-.646-2.717-.657-1.39-.015-2.781-.012-4.17.022-.743.017-1.55-.114-2.082.644-.066.094-.265.153-.391.138-1.37-.16-2.381.7-3.477 1.262-.702.359-1.277.95-1.895 1.456-1.206.988-1.61 2.532-2.716 3.56.054 1.396-1.194 2.349-1.264 3.704-.032.623-.055 1.246-.1 1.868-.025.333-.003.709-.149.988-1.118 2.138-.503 4.404-.537 6.62.86 1.378.693 2.941.806 4.454.003.047-.005.107.02.14.739.99.757 2.334 1.618 3.266.12.129.186.33.222.508.207 1.05.886 1.778 1.726 2.32.467.302.262 1.24 1.115 1.094.35 1.098 1.773.764 2.274 1.695.077.145.43.148.657.204.536.13 1.13.045 1.509.653.127.204.6.263.916.265 2.684.02 5.37.07 8.05-.025.693-.025 1.353-.582 2.057-.807.65-.208 1.461.056 1.894-.757.086-.16.405-.27.619-.274 1.03-.018 1.643-.84 2.26-1.397.597-.54 1.106-.773 2.014-.802.044.692.099 1.333.121 1.975.02.575-.084 1.168.022 1.723.218 1.148-.523 1.82-1.26 2.308-.83.552-1.925.699-2.782 1.223-1.128.691-2.47.633-3.565 1.108-3.216 1.399-6.48.598-9.725.644-.305.004-.618-.19-.918-.316-.262-.11-.519-.38-.761-.362-1.6.125-2.869-.81-4.27-1.299-.498-.173-.956-.517-1.372-.856-1.139-.928-2.492-1.527-3.48-2.722-.797-.963-1.291-2.154-2.124-2.972-.652-.64-.603-1.538-1.069-1.949-1.13-.997-.592-2.627-1.676-3.62-.336-.307-.146-1.192-.195-1.813-.062-.796.02-1.603-.597-2.29-.214-.238-.196-.728-.201-1.104-.024-1.775-.05-3.55-.004-5.324.013-.487.306-.961.415-1.454.153-.692.294-1.391.369-2.095.118-1.11-.13-2.297.861-3.19.178-.16.191-.533.227-.815.08-.648-.017-1.36.768-1.698.092-.04.136-.241.162-.375.106-.556.07-1.198.724-1.453.589-.23.217-1.032.949-1.31.54-.207.782-1.094 1.27-1.56.873-.83 2.02-1.437 2.703-2.389.69-.964 2.043-.7 2.584-1.748.066-.127.447-.093.682-.132.284-.047.708.012.829-.153.752-1.03 1.867-.71 2.856-.858.378-.056.796-.053 1.122-.22 2.324-1.19 4.77-.66 7.186-.564 1.321.808 2.818.803 4.287.948.251.024.485.238.723.372.235.132.453.357.7.395.704.106 1.27.478 1.886.745.944.41 1.669 1.08 2.536 1.476ZM262.266 71.993c0 1.566.105 3.053-.056 4.51-.058.525-.67 1.127-1.183 1.43-.867.51-1.91.72-2.782 1.223-1.133.653-2.297 1.046-3.6 1.038-3.179 1.627-6.547.653-9.84.706-.219.004-.438-.15-.66-.218-.67-.205-1.33-.469-2.015-.588-.662-.114-1.341-.082-1.83-.666-.115-.136-.306-.272-.474-.287-1.28-.12-2.104-.992-3.042-1.72-.607-.471-1.295-.84-1.92-1.302-.607-.448-.766-1.309-1.558-1.488-.34-1.138-1.184-1.915-1.936-2.766-.167-.189-.162-.538-.216-.817-.08-.418-.064-.88-.595-1.045-.083-.026-.188-.102-.211-.177-.401-1.293-.89-2.569-1.153-3.89-.221-1.109-.055-2.273-.699-3.328-.25-.41-.2-1.027-.213-1.55-.032-1.391-.085-2.786-.009-4.173.043-.789.35-1.56.489-2.348.157-.891.268-1.792.381-2.69.092-.73-.125-1.536.684-2.06.178-.114.187-.523.232-.803.12-.743.07-1.546.889-1.99.119-.065.155-.335.179-.516.144-1.116.88-1.822 1.645-2.548.486-.46.797-1.1 1.257-1.593.815-.874 1.853-1.544 2.65-2.39.742-.789 1.887-.763 2.5-1.643.122-.176.516-.17.788-.233.325-.074.837-.023.951-.215.57-.96 1.51-.616 2.307-.784.737-.155 1.46-.37 2.19-.557.461-.118.922-.32 1.387-.33 1.532-.034 3.066.002 4.6.015.143 0 .308-.015.426.048 1.432.763 3.008.808 4.566 1.005.54.069 1.01.581 1.557.75.534.165 1.127.1 1.44.736.078.157.434.276.644.252.957-.11 1.153 1.028 1.963 1.166.115.02.234.404.238.621a97.72 97.72 0 0 1-.01 4.314c-.008.29-.197.71-.426.824-.4.202-.461-.395-.656-.488-.783-.373-1.158-1.213-2.074-1.493-.994-.305-1.861-1.021-2.782-1.562-.08-.047-.152-.177-.218-.171-1.675.154-2.983-1.201-4.67-1.088-1.48.1-2.973.008-4.459.04-.745.016-1.557-.114-2.092.649-.066.094-.267.151-.395.135-1.372-.176-2.365.725-3.463 1.265-.668.328-1.23.902-1.782 1.426-.97.921-1.863 1.911-2.244 3.247-.859.309-.816 1.06-.873 1.767-.011.141-.01.343-.097.41-.996.771-.725 1.895-.864 2.916-.11.796-.305 1.585-.515 2.362-.563 2.083-.628 4.217-.081 6.258.338 1.264.579 2.498.666 3.789.043.63-.152 1.391.683 1.73.07.029.155.161.142.228-.25 1.28.926 1.978 1.244 3.034.158.524.52 1.06.938 1.416.775.663 1.438 1.437 2.188 2.094.474.416 1.36.37 1.794 1.033 1.397-.035 2.372 1.223 3.829 1.155 2.297-.106 4.603-.02 6.904-.044.553-.006 1.13.038 1.548-.537.16-.221.593-.29.915-.34.74-.114 1.543-.034 1.968-.872.046-.09.253-.127.39-.14 1.128-.109 1.822-.9 2.56-1.617.473-.46 1.018-.646 1.961-.525ZM385.136 110.088h33.553c.24 0 .48-.01.719.004 1.145.068 1.425.332 1.46 1.485.032 1.003.007 2.008.007 3.214-.69.093-1.324.25-1.96.254-3.74.023-7.481.012-11.222.012h-1.676c-.239 3.274-.086 6.377-.114 9.475-.027 3.117-.006 6.236-.006 9.354v18.828c-1.908.665-3.798.242-5.847.36v-37.978h-14.913v-5.008ZM365.14 37.18h5.103c.139 3.162.046 6.261.063 9.356.016 3.117.003 6.235.003 9.352v18.594c.666.684 1.394.628 2.11.627H390.935v4.856h-25.668c-.323-1.003-.456-40.218-.128-42.785ZM276.21 80.001h-4.882c-.31-1.114-.39-40.925-.089-42.798h4.954c.05.566.142 1.124.143 1.682.008 13.147.009 26.293.002 39.44 0 .517-.077 1.035-.129 1.676Z"/><path d="M101.408 12.938V9.294c.74-.055 1.391-.14 2.043-.143.959-.003 1.918.046 2.876.085.335.013.723-.04.993.108 1.786.978 3.742.583 5.625.76.882.084 1.737.02 2.577.621.548.393 1.476.255 2.234.354.928.12 1.85.055 2.703.72.453.352 1.289.206 1.95.297.634.087 1.33-.1 1.798.63.147.23.693.227 1.064.287.782.126 1.614.006 2.2.798.17.23.712.196 1.087.264.629.112 1.34-.07 1.757.696.108.197.62.152.928.267.606.226 1.196.493 1.798.728.3.118.61.223.923.303.485.123 1.067-.007 1.315.655.053.141.398.199.618.247.588.129 1.276.034 1.556.784.026.07.155.153.23.148 1.17-.08 1.804 1.138 2.925 1.201.23.013.454.267.664.431.108.086.176.316.265.318 1.083.017 1.689 1.087 2.711 1.214.451.056.7.255.97.673.269.417.877.622 1.348.901.893.53 1.844.98 2.677 1.591.65.476 1.45.71 1.972 1.428.386.529.989 1 1.596 1.243 1.059.423 1.749 1.193 2.527 1.958.906.89 2.037 1.55 3.064 2.32.517.388 1.066.75 1.52 1.204.988.988 1.98 1.964 3.007 2.91.773.713 1.445 1.655 2.214 2.41 1.597 1.569 2.67 3.56 4.232 5.113 1.185 1.176 1.983 2.56 2.912 3.889.325.465.853.788 1.101 1.366.216.5.686.915.81 1.425.154.635 1.209.56.978 1.396.932.489.718 1.828 1.704 2.302.146.07.155.421.231.641.166.477.136 1.068.78 1.264.1.03.176.214.216.342.424 1.328 1.14 2.488 1.89 3.658.56.873.656 2.047 1.225 2.912.677 1.031.788 2.31 1.608 3.253.17.195.22.524.254.8.093.759.095 1.53.817 2.054.153.111.183.429.216.66.121.844.1 1.713.845 2.366.193.17.15.63.182.959.071.711.036 1.45.68 1.967.101.081.193.252.187.376-.093 1.994 1.284 3.678 1.17 5.686-.044.797-.003 1.605.64 2.276.22.23.19.727.219 1.107.09 1.196.105 2.4.25 3.588.085.687.38 1.347.552 2.026.104.412.216.838.217 1.258.013 5.807.018 11.613-.012 17.42-.003.491-.28.978-.413 1.472-.124.456-.282.911-.325 1.377-.11 1.193-.149 2.394-.247 3.589-.058.701-.075 1.377-.586 2.013-.31.386-.24 1.092-.3 1.658-.117 1.082.02 2.198-.762 3.15-.235.285-.175.827-.213 1.255-.068.76-.04 1.544-.721 2.093a.361.361 0 0 0-.11.26c.063 1.612-1.044 2.89-1.257 4.442-.095.696-.644 1.32-.91 2.007-.257.665.167 1.593-.782 1.995-.034.014-.066.076-.07.118-.077.95-.497 1.713-1.024 2.52-.59.904-.562 2.293-1.267 3.018-.796.818-.594 2.106-1.627 2.706-.183.106-.157.536-.28.79-.15.313-.355.6-.536.897-.119.193-.294.37-.348.58-.415 1.59-1.778 2.654-2.296 4.182-1.086.491-.949 1.843-1.8 2.54-.46.378-.671 1.046-1.083 1.505-1.258 1.4-2.088 3.145-3.647 4.32-.592.447-.864 1.297-1.354 1.904-.764.945-1.577 1.852-2.392 2.754-.495.548-1.02 1.07-1.555 1.578-.883.839-1.786 1.656-2.679 2.485-.36.334-.704.685-1.072 1.009-1.273 1.118-2.618 2.144-3.985 3.148-.565.416-.98 1.036-1.472 1.554-.092.097-.219.195-.344.222-1.15.246-1.802 1.142-2.577 1.9-.319.311-.763.544-1.192.686-1.061.35-1.702 1.349-2.8 1.678-.67.2-1.43.627-1.79 1.185-.357.554-.775.587-1.251.74-.29.092-.553.27-.82.423-.224.13-.419.342-.657.408-.544.152-1.157.129-1.386.832-.04.12-.305.213-.477.237-.62.089-1.207.163-1.567.814-.09.163-.53.117-.796.204-.312.1-.78.163-.882.382-.285.611-.795.625-1.309.692-.43.056-.877.058-1.034.588-.013.044-.055.117-.077.115-1.375-.126-2.268 1.11-3.555 1.251-.54.06-1.198-.042-1.446.687-.022.065-.164.138-.243.13-1.732-.188-3.007 1.339-4.712 1.256-.233-.011-.584-.016-.688.122-.732.972-1.812.647-2.762.827-.538.102-1.04.372-1.574.513-.637.169-1.286.304-1.937.41-1.105.18-2.294-.08-3.263.788-.236.211-.734.155-1.114.174-1.198.06-2.397.099-3.595.14-.91.03-1.785.083-2.644.528-.517.268-1.21.243-1.826.26-1.332.034-2.666.01-4.02.01-.455-1.281-.297-2.454-.196-3.664.263-.086.482-.21.707-.224 2.476-.154 4.832-1.183 7.362-.984.808.063 1.635.013 2.441-.084.542-.066 1.057-.333 1.595-.464.643-.157 1.294-.326 1.95-.38 1.235-.099 2.486-.035 3.579-.808.249-.176.637-.168.966-.215.963-.136 2.011.104 2.794-.788.17-.194.635-.147.967-.18.897-.087 1.824-.03 2.48-.87.134-.172.53-.153.81-.19.609-.084 1.242-.03 1.677-.644.135-.191.506-.268.78-.297.752-.08 1.542.014 1.99-.838.079-.149.43-.19.664-.216.72-.078 1.407-.157 1.95-.76.18-.201.633-.134.931-.258.373-.156.721-.375 1.068-.587.114-.069.2-.296.282-.288 1.188.13 1.796-1.043 2.882-1.248.764-.144 1.423-.807 2.149-1.199 1.08-.583 1.95-1.555 3.216-1.79.588-.108.488-1.143 1.292-.91.947-1.106 2.462-1.423 3.43-2.556.544-.636 1.479-.919 2.146-1.471.603-.499 1.33-.84 1.782-1.56.295-.473.8-.906 1.31-1.135 1.557-.698 2.464-2.115 3.713-3.126 1.27-1.027 2.275-2.298 3.535-3.33 1.029-.845 1.616-2.206 2.553-3.192.83-.873 1.415-1.948 2.402-2.699.52-.394.966-.995 1.224-1.597.425-.994 1.09-1.727 1.843-2.472.577-.572.825-1.46 1.323-2.132.957-1.291 1.42-2.89 2.565-4.06.097-.098.19-.243.202-.374.094-1.101 1.33-1.686 1.276-2.848 1.102-.51.608-2.018 1.623-2.605.15-.086.162-.424.22-.65.14-.542.127-1.12.697-1.505.226-.153.322-.586.364-.907.081-.628.172-1.193.702-1.665.23-.205.223-.695.29-1.063.082-.461.078-.892.58-1.224.283-.187.378-.743.446-1.152.113-.685-.035-1.455.763-1.854.035-.017.071-.083.066-.12-.255-1.751 1.18-3.062 1.227-4.744.021-.788-.035-1.58.654-2.258.295-.291.19-1.001.241-1.524.114-1.175-.027-2.378.772-3.44.277-.367.21-1.016.243-1.54.074-1.15.064-2.305.182-3.449.066-.643.33-1.263.483-1.9.1-.414.227-.837.229-1.257.017-4.366.02-8.733 0-13.1-.002-.462-.168-.926-.28-1.384-.135-.545-.372-1.077-.425-1.628-.104-1.097-.102-2.204-.163-3.306-.05-.902-.142-1.759-.632-2.602-.334-.574-.265-1.385-.367-2.092-.14-.961.103-1.969-.707-2.832-.317-.338-.193-1.1-.248-1.671-.068-.712-.04-1.45-.689-1.958-.072-.057-.167-.155-.162-.228.101-1.551-.933-2.79-1.16-4.249-.086-.555-.014-1.176-.656-1.488-.082-.04-.2-.125-.2-.19-.014-1.226-.755-2.194-1.153-3.282-.188-.515-.464-.998-.677-1.505a9.24 9.24 0 0 1-.365-1.056c-.113-.4-.062-.844-.587-1.06-.18-.074-.262-.462-.326-.722-.123-.5-.086-1.07-.73-1.272-.076-.024-.18-.14-.177-.209.062-1.116-.994-1.716-1.235-2.716-.146-.602-.53-1.203-.955-1.667-.584-.638-1.036-1.292-1.128-2.163-.953-.203-1.078-1.195-1.413-1.803-.751-1.363-2.15-2.284-2.544-3.856-.796-.265-.907-1.163-1.56-1.647-.878-.65-1.502-1.678-2.135-2.61-.57-.838-1.305-1.52-1.919-2.285-.748-.933-1.721-1.632-2.41-2.618-.383-.552-1.065-.89-1.586-1.353-.43-.383-.77-.85-1.212-1.243-.778-.69-1.493-1.412-2.397-1.98-.969-.61-1.778-1.471-2.663-2.215-.615-.517-1.193-1.102-1.876-1.508-.813-.485-1.634-.918-2.233-1.684-.127-.163-.394-.226-.606-.313-.929-.383-1.68-1.01-2.386-1.705-.097-.095-.215-.207-.338-.23-1.23-.234-1.988-1.355-3.07-1.723-1.107-.375-1.781-1.574-3.074-1.472-.523-1.092-2.029-.575-2.617-1.596-.095-.164-.406-.245-.63-.284-.61-.104-1.113-.426-1.654-.662-1.046-.456-2.145-.775-3.181-1.32-.582-.304-1.421-.104-1.876-.803-1.453-.022-2.62-.942-3.973-1.258-.861-.202-1.855.057-2.496-.817-.025-.035-.085-.07-.124-.065-2.16.243-3.964-1.33-6.115-1.186-.804.053-1.603-.034-2.32-.565-.312-.23-.815-.25-1.236-.273-1.293-.071-2.588-.097-3.883-.142-1.149-.04-2.275-.085-3.376-.569-.582-.255-1.32-.145-1.983-.232-.559-.074-1.112-.195-1.702-.301Z" style="fill:#2878b8"/><path d="M97.064 185.014v3.993c-2.194-.18-4.3.333-6.32-.602-.458-.211-1.028-.216-1.55-.245-1.342-.075-2.69-.058-4.025-.18-.64-.06-1.254-.372-1.89-.53a14.611 14.611 0 0 0-1.803-.35c-1.084-.127-2.19-.06-3.157-.77-.309-.226-.821-.196-1.245-.238-.833-.084-1.675.031-2.367-.71-.259-.278-.906-.208-1.38-.264-.762-.091-1.534-.118-2.097-.77-.11-.126-.328-.208-.503-.221-.808-.064-1.627-.072-2.183-.809-1.523.062-2.611-1.246-4.106-1.306-.307-.012-.607-.238-.905-.378-.364-.17-.728-.342-1.082-.532-.403-.217-.797-.451-1.19-.687-.079-.047-.136-.196-.199-.193-1.092.047-1.773-.876-2.732-1.153-.377-.109-.703-.404-1.044-.627-.152-.1-.273-.318-.426-.338-1.25-.162-2.157-.882-2.988-1.751-.088-.092-.264-.1-.4-.146-1.186-.395-2.14-1.17-3.139-1.881-1.111-.79-2.277-1.505-3.4-2.28-.36-.249-.631-.626-.991-.876-1.082-.754-2.24-1.408-3.267-2.227-.922-.735-1.696-1.652-2.56-2.462-.82-.766-1.7-1.468-2.5-2.252-1.21-1.184-2.324-2.472-3.578-3.607-.897-.812-1.588-1.8-2.523-2.587-.864-.727-1.45-1.775-2.238-2.607-1.029-1.087-1.513-2.586-2.79-3.5-.453-.322-.686-.965-.991-1.478-.794-1.334-1.407-2.818-2.402-3.977-1.026-1.198-1.552-2.645-2.404-3.918-.585-.875-1.378-1.743-1.487-2.916-.021-.235-.261-.456-.419-.67-.082-.111-.253-.174-.3-.292a217.264 217.264 0 0 1-1.263-3.202c-.12-.31-.13-.75-.352-.918-.613-.465-.676-1.094-.772-1.758-.036-.252-.212-.492-.356-.717-.072-.114-.317-.19-.31-.27.13-1.559-1.19-2.67-1.27-4.162-.031-.562-.092-1.098-.606-1.541-.257-.222-.27-.77-.322-1.18-.095-.745-.028-1.477-.692-2.1-.312-.292-.265-.985-.346-1.501-.136-.877.04-1.82-.736-2.544-.194-.181-.157-.637-.18-.97-.052-.765-.027-1.54-.128-2.298-.066-.498-.324-.967-.45-1.461-.16-.637-.343-1.279-.396-1.929-.121-1.482-.131-2.973-.264-4.454-.062-.697-.31-1.377-.458-2.068-.1-.466-.238-.937-.24-1.407-.023-3.407-.016-6.815-.014-10.222 0-.287-.046-.615.07-.855.937-1.937.662-4.033.834-6.07.103-1.222.067-2.422.727-3.59.386-.685.213-1.685.29-2.542.066-.75.033-1.465.6-2.147.34-.407.244-1.185.322-1.8.094-.747.022-1.528.718-2.092.184-.148.22-.516.263-.793.142-.91-.083-1.93.816-2.602-.079-1.632 1.17-2.871 1.311-4.44.038-.424.044-.872.562-1.066.103-.039.219-.217.219-.331.002-.895.645-1.566.852-2.315.314-1.135 1.042-2.05 1.323-3.172.095-.378.42-.7.65-1.04.076-.114.256-.2.266-.31.165-1.743 1.667-2.848 2.11-4.453 1.11-.466.579-2.112 1.797-2.5.13-.87.678-1.512 1.163-2.197a37.086 37.086 0 0 0 1.488-2.272c.788-1.307 1.965-2.298 2.763-3.629a10.968 10.968 0 0 1 2.359-2.743c.874-.73 1.505-1.744 2.296-2.583 1.137-1.206 2.38-2.317 3.47-3.563.81-.926 1.873-1.564 2.618-2.568.406-.546 1.253-.77 1.643-1.32.648-.914 1.562-1.455 2.391-2.12.777-.623 1.584-1.208 2.376-1.81.42-.32.829-.656 1.26-.96 1.294-.914 2.528-1.95 3.921-2.674.886-.46 1.53-1.274 2.575-1.516.67-.155 1.43-.567 1.818-1.103.383-.528.834-.531 1.297-.712.283-.111.538-.303.788-.484.107-.077.17-.32.248-.317 1.15.038 1.81-1.06 2.88-1.222.33-.05.622-.336.93-.516.24-.14.466-.373.72-.41.673-.096 1.3-.228 1.711-.835 1.45.1 2.435-1.178 3.819-1.289.273-.021.609-.081.792-.254.567-.536 1.241-.678 1.974-.714.235-.012.567.008.683-.13.745-.89 1.777-.826 2.77-.929.283-.029.667-.033.819-.21.693-.804 1.626-.643 2.504-.733.331-.034.77.018.97-.17.87-.818 1.952-.69 2.986-.789.945-.09 1.893-.086 2.72-.714.268-.205.73-.191 1.108-.213 1.053-.06 2.109-.082 3.163-.128 1.097-.047 2.172-.055 3.214-.597.55-.287 1.31-.212 1.977-.228 1.235-.031 2.472-.01 3.81-.01v3.77c-.188.084-.312.18-.443.192-3.322.305-6.585 1.182-9.959 1.004-.603-.032-1.154.14-1.743.461-.666.364-1.562.338-2.364.414-1.042.098-2.093.052-3.005.744-.275.209-.725.205-1.1.257-.96.135-2.017-.113-2.772.798-.119.144-.451.146-.687.151-.915.022-1.77.136-2.522.777-.288.245-.802.237-1.218.32-.5.098-1.016.036-1.406.552-.189.249-.668.33-1.031.383-.7.101-1.466.004-1.823.843-.03.069-.164.147-.236.135-1.28-.2-2.084.923-3.26 1.157-1.128.225-2.13 1.072-3.195 1.634-.858.452-1.827.761-2.56 1.362-.816.668-2.012.654-2.63 1.599a.407.407 0 0 1-.219.168c-1.25.284-2.081 1.17-3.05 1.918-.584.451-1.374.709-1.98 1.247-.452.402-1.137.575-1.512 1.024-.943 1.127-2.647 1.344-3.273 2.813-1.7.753-2.601 2.482-4.202 3.401-.942.541-1.689 1.454-2.454 2.265-1.389 1.473-2.813 2.927-4.055 4.52-.902 1.155-1.947 2.168-2.852 3.3-.48.6-.75 1.37-1.32 1.961-.554.573-.972 1.277-1.451 1.923-.113.152-.282.282-.34.452-.375 1.108-1.276 1.867-1.851 2.837-.53.895-.982 1.836-1.49 2.745-.259.465-.573.9-.846 1.357-.259.432-.521.865-.74 1.318-.459.958-.736 2.049-1.371 2.864-.8 1.024-.66 2.462-1.69 3.348-.202.175-.182.619-.247.942-.08.403.04.896-.528 1.061-.08.024-.203.128-.198.185.145 1.592-1.309 2.684-1.309 4.24 0 .552-.069 1.084-.613 1.523-.281.226-.25.869-.313 1.33-.088.651-.059 1.276-.64 1.821-.317.296-.306.969-.39 1.48-.15.913.113 1.915-.739 2.666-.192.169-.142.637-.164.97-.05.766-.06 1.535-.114 2.3-.026.38.018.859-.19 1.114-.77.949-.695 2.063-.754 3.151-.072 1.341-.075 2.687-.138 4.029-.059 1.237.029 2.495-.557 3.663-.142.285-.158.659-.148.989.068 2.33-.415 4.7.547 6.968.142.334.086.758.1 1.14.069 1.823.113 3.647.202 5.468.051 1.041.1 2.048.702 3.026.36.585.203 1.486.293 2.244.114.965-.083 1.947.694 2.834.36.412.192 1.288.257 1.955.065.66-.002 1.364.666 1.803.075.05.175.15.17.22-.1 1.556.878 2.82 1.143 4.272.117.64-.007 1.317.693 1.777.247.162.292.68.367 1.049.128.625-.063 1.364.76 1.707.129.053.127.434.172.666.106.544.015 1.176.689 1.457.07.03.116.148.149.234.411 1.088.782 2.193 1.239 3.26.345.81.657 1.713 1.246 2.318.532.545.506 1.237.857 1.719.386.53.674 1.063.977 1.632.377.705.795 1.415 1.247 2.071.957 1.388 1.93 2.76 2.766 4.227.216.38.541.712.866 1.011 1.1 1.012 1.719 2.388 2.726 3.502 1.194 1.32 2.449 2.629 3.52 4.091.98 1.338 2.278 2.454 3.505 3.592.912.846 2.104 1.434 2.87 2.38 1.076 1.333 2.539 2.2 3.697 3.43.503.533 1.395.854 2.043 1.388.435.358 1.13.536 1.365.978.537 1.013 1.797.838 2.444 1.774.455.658 1.723.71 2.303 1.335.727.784 1.793.807 2.53 1.544.596.598 1.503.891 2.282 1.302.651.344 1.286.789 1.984.955.723.173 1.246.546 1.852.917.92.563 2.06.756 3.076 1.178.533.222.97.683 1.507.881.572.212 1.4.04 1.78.396.641.598 1.399.48 2.06.755 1.308.543 2.575 1.138 4.022 1.174.67.926 1.697.664 2.61.794.422.06.933.041 1.24.274.918.694 1.968.634 3.007.735.976.095 2.016-.09 2.845.716.194.188.64.142.973.156 1.294.055 2.59.092 3.884.133 1.101.035 2.195.037 3.226.566.358.184.842.132 1.27.169.711.06 1.423.107 2.25.168Z" style="fill:#d8374b"/><path d="M97.049 18.14v3.89c-.818.719-1.79.94-2.89.936-1.918-.006-3.837.073-5.754.166-.562.027-1.12.199-1.673.338-.73.183-1.44.483-2.18.584-1.126.153-2.298.021-3.29.782-.2.155-.546.136-.828.168-.972.108-1.984-.036-2.8.781-.25.251-.817.197-1.242.26-.612.089-1.23.104-1.706.623-.176.192-.498.308-.77.344-.784.106-1.45.294-2.182.757-1.107.7-2.504.936-3.773 1.386-.252.089-.48.248-.72.373-.315.164-.62.361-.95.479-.438.155-.98.096-1.166.683-.026.083-.125.212-.18.207-1.129-.102-1.76.907-2.719 1.225-.786.261-1.449.894-2.169 1.357-.267.172-.524.397-.82.483-.492.144-1.053.1-1.185.808-.024.128-.383.206-.595.284-.917.338-1.606.976-2.294 1.642-.474.46-.99.976-1.586 1.187-1.044.37-1.644 1.199-2.442 1.836-1.273 1.017-2.379 2.217-3.698 3.177-1.603 1.167-2.9 2.66-4.206 4.139-.93 1.055-1.876 2.107-2.783 3.17-.849.995-1.885 1.879-2.446 3.174-.265.612-.775 1.273-1.408 1.769-.514.403-.923 1.055-1.15 1.68-.33.911-1.133 1.509-1.404 2.457-.159.557-.47 1.23-.923 1.511-1.016.631-.588 2.097-1.689 2.625-.146.07-.153.435-.223.664-.131.429.016 1.018-.666 1.13-.072.013-.187.139-.18.202.118 1.222-1.07 1.945-1.171 3.09-.028.309-.251.598-.373.901-.207.516-.428 1.028-.6 1.556-.14.433-.043.932-.612 1.205-.208.1-.265.577-.332.894-.166.78-.07 1.657-.887 2.17-.033.02-.06.081-.059.122.066 1.41-.661 2.6-1.029 3.89-.318 1.12-.246 2.3-.85 3.418-.396.733-.213 1.78-.286 2.687-.057.704.006 1.405-.558 2.015-.246.265-.239.808-.263 1.23a178.35 178.35 0 0 0 .014 21.007c.03.491.308.966.456 1.454.122.401.283.804.322 1.216.086.907-.166 1.957.21 2.7.723 1.425.522 3.027 1.09 4.383.448 1.065.452 2.26.945 3.156.575 1.045.502 2.276 1.088 3.126.556.804.447 1.782.936 2.391.592.736.532 1.698 1.027 2.284.73.863.447 2.194 1.512 2.835.149.09.141.432.214.655.156.48.098 1.07.743 1.291.13.045.255.29.27.453.106 1.146.977 1.854 1.53 2.742.125.2.316.375.384.59.478 1.5 1.471 2.77 2.38 3.928.996 1.269 1.815 2.649 2.81 3.903.357.449.792.882 1.19 1.253 1.42 1.329 2.481 2.958 3.856 4.31 1 .984 1.99 1.978 3.037 2.91.94.837 1.852 1.73 2.836 2.487 1.12.86 1.863 2.258 3.405 2.552.377.69 1.37.683 1.672 1.477.055.145.249.3.404.334 1.137.25 1.921.98 2.623 1.843.08.097.241.163.372.178 1.176.132 1.96.908 2.763 1.656a.83.83 0 0 0 .236.155c1.007.428 2.213.637 2.973 1.333.824.754 2.033.642 2.691 1.541.029.039.065.099.1.1 1.127.046 1.975.79 2.97 1.16.686.256 1.539.08 1.984.906.057.105.356.095.545.113.811.077 1.61.122 2.242.787.191.2.621.187.947.244.786.135 1.588.093 2.237.78.257.272.896.212 1.365.247.814.061 1.59.114 2.323.607.396.267.994.27 1.508.32 1.323.133 2.68.01 3.867.863.304.22.837.145 1.266.16 2.014.068 4.029.118 6.043.18.43.014.87.01 1.289.096.674.137 1.149.545 1.151 1.274.004 1.087-.057 2.175-.095 3.407-1.625-.184-3.115.328-4.48-.621-.278-.194-.742-.144-1.123-.16-1.294-.057-2.589-.082-3.883-.14-.948-.042-1.855-.082-2.736-.653-.548-.354-1.384-.27-2.092-.368-.963-.132-1.983.13-2.822-.731-.282-.29-1.006-.165-1.53-.205-.765-.057-1.524-.07-2.126-.687-.177-.18-.51-.238-.783-.291-.9-.175-1.913.026-2.577-.905-.115-.161-.545-.093-.827-.142-.373-.066-.828-.032-1.098-.237-.705-.536-1.447-.884-2.334-.91-.7-1.08-2.11-.68-3.03-1.519-.784-.712-2.112-.786-3.03-1.396-.843-.56-1.912-.73-2.587-1.55-.086-.103-.222-.24-.334-.238-1.106.008-1.7-1.029-2.69-1.295-.452-.122-.841-.543-1.214-.878-1.149-1.034-2.774-1.376-3.751-2.694-.364-.49-1.037-.771-1.602-1.091-1.323-.75-2.36-1.8-3.397-2.898-.853-.902-1.99-1.528-2.931-2.357a40.095 40.095 0 0 1-4.116-4.18c-.812-.958-1.609-1.95-2.48-2.874-.888-.94-1.956-1.818-2.486-3.126-.272-.672-.963-1.165-1.409-1.78-.505-.695-.946-1.438-1.42-2.156-.438-.663-.884-1.32-1.323-1.983-.226-.34-.656-.71-.623-1.029.081-.784-.793-.756-.932-1.334-.125-.524-.056-1.188-.72-1.466-.085-.036-.195-.09-.228-.166-.411-.93-.64-2.002-1.255-2.765-.771-.96-.642-2.334-1.654-3.133-.151-.12-.151-.434-.216-.66-.15-.531-.07-1.163-.72-1.47-.124-.059-.193-.324-.213-.503-.095-.861-.16-1.728-.903-2.336.126-1.634-1.395-2.789-1.279-4.45.032-.456-.341-.943-.54-1.411-.054-.128-.222-.244-.214-.357.148-2.104-1.353-3.869-1.207-5.983.054-.789.065-1.604-.58-2.293-.245-.262-.226-.813-.247-1.237-.072-1.437-.046-2.882-.175-4.314-.103-1.13-.386-2.244-.575-3.367-.071-.425-.14-.855-.148-1.284-.031-1.727-.063-3.454-.045-5.181.013-1.191.114-2.35.483-3.53.348-1.116.265-2.371.335-3.567.065-1.102.07-2.206.123-3.309.018-.38-.03-.878.182-1.112.809-.89.613-1.969.69-2.99.065-.866.108-1.703.636-2.464.229-.33.277-.806.338-1.225.128-.88-.009-1.82.777-2.52.172-.153.17-.54.189-.822.065-.958.073-1.917.875-2.643.145-.131.137-.446.172-.68.1-.655.099-1.32.675-1.83.214-.19.26-.6.322-.923.114-.592-.01-1.259.7-1.62.147-.074.158-.422.226-.646.175-.569.08-1.276.819-1.554.064-.024.126-.166.12-.248-.07-1.217.87-2.054 1.311-3.042.38-.849.586-1.977 1.514-2.573.072-.046.119-.147.158-.231.436-.951.84-1.918 1.313-2.85a4.53 4.53 0 0 1 .874-1.196c1.106-1.065 1.335-2.745 2.665-3.67.46-.32.814-.884 1.056-1.41.693-1.509 1.853-2.579 3.045-3.677.835-.769 1.414-1.809 2.151-2.691a36.813 36.813 0 0 1 5.395-5.27c.964-.765 1.976-1.492 2.747-2.517.424-.565 1.242-.814 1.796-1.304.684-.606 1.515-.983 2.167-1.67.597-.63 1.517-.95 2.286-1.422.481-.295 1.151-.51 1.378-.948.538-1.041 1.959-.705 2.432-1.736.03-.066.16-.105.249-.12 1.38-.24 2.347-1.253 3.527-1.863.944-.489 1.95-.855 2.924-1.285.301-.133.6-.282.877-.46.156-.099.284-.405.393-.39 1.274.178 2.047-1.06 3.24-1.122.287-.015.558-.29.841-.436.337-.173.663-.42 1.02-.485.773-.138 1.625.015 2.147-.816.07-.112.357-.096.547-.124.978-.145 1.984-.114 2.81-.864.27-.245.815-.198 1.237-.258.825-.117 1.653.008 2.398-.68.369-.342 1.189-.218 1.808-.262 1.09-.078 2.183-.014 3.146-.76.33-.256.919-.217 1.394-.244 1.149-.065 2.301-.073 3.45-.136 1.036-.057 2.015-.125 3.046-.576.98-.428 2.25-.196 3.659-.268Z" style="fill:#d8374b"/><path d="M101.336 176.419c.938-1.106 2.055-1.274 3.296-1.25 1.581.031 3.165-.068 4.747-.116 1.004-.031 1.946-.141 2.905-.618.768-.382 1.773-.279 2.67-.411.821-.122 1.687.071 2.404-.676.285-.297.998-.203 1.519-.246.764-.063 1.528-.055 2.143-.657.181-.178.512-.225.785-.282.902-.19 1.931.01 2.58-.937.093-.134.45-.102.687-.118.726-.05 1.41-.145 1.973-.714.204-.207.609-.215.922-.313.479-.151 1.09-.041 1.32-.685.027-.076.135-.18.203-.177 1.042.028 1.782-.704 2.68-1.03.486-.177 1.037-.16 1.337-.698.062-.11.226-.173.356-.23.965-.418 2.2-.592 2.832-1.304.755-.852 1.914-.746 2.626-1.653.515-.656 1.578-.869 2.368-1.328a4.85 4.85 0 0 0 1.114-.878c1.042-1.125 2.602-1.516 3.607-2.78.772-.97 2.05-1.523 3.034-2.343.95-.791 1.81-1.69 2.715-2.536.867-.81 1.747-1.608 2.61-2.424.417-.394.855-.78 1.205-1.23 1.136-1.463 2.424-2.806 3.37-4.424.317-.543.934-.905 1.396-1.37.156-.156.286-.358.374-.562.306-.713 1.122-1.784 1.79-2.49.371-.392.652-.885.917-1.363.505-.914.951-1.861 1.46-2.774.367-.661.857-1.23 1.144-1.969.33-.85 1.027-1.55 1.433-2.38.512-1.045.892-2.154 1.326-3.236.123-.307.148-.775.37-.897.579-.322.564-.834.626-1.341.052-.429.032-.879.562-1.054.077-.026.181-.14.178-.208-.07-1.568 1.216-2.721 1.289-4.26.022-.478.352-.938.513-1.416.164-.483.34-.97.427-1.471.154-.886.11-1.791.752-2.574.259-.315.188-.912.243-1.383.125-1.067-.119-2.204.735-3.125.187-.202.139-.643.158-.977.056-.958.062-1.92.141-2.875.114-1.375.353-2.73.588-4.092.622-3.6.66-7.294.01-10.881-.352-1.945-.522-3.87-.672-5.817-.079-1.027.026-2.05-.697-3.008-.367-.488-.202-1.388-.249-2.103-.05-.76-.034-1.502-.593-2.157-.246-.29-.23-.81-.314-1.23-.182-.909.03-1.928-.856-2.633-.173-.138-.158-.54-.19-.823-.085-.786.04-1.606-.76-2.191-.231-.17-.185-.716-.272-1.088-.136-.58-.014-1.279-.738-1.592a.319.319 0 0 1-.161-.225c-.058-.903-.432-1.641-.9-2.428-.612-1.025-.885-2.25-1.328-3.378-.253-.648-1.037-1.024-.957-1.849-.925-.516-.675-1.856-1.643-2.354-.092-.047-.153-.258-.142-.385.08-.926-.84-1.27-1.135-1.987-.297-.722-.584-1.536-1.122-2.051-.916-.877-1.465-1.92-2.107-2.971-.496-.812-1.365-1.457-1.925-2.331-.515-.802-1.237-1.468-1.852-2.208-.421-.507-.76-1.096-1.232-1.547-1.02-.974-1.936-2.062-2.952-3.012-1.397-1.306-2.77-2.652-4.23-3.893-.625-.531-1.389-.897-2.041-1.4-.584-.45-1.096-.994-1.652-1.482a1.758 1.758 0 0 0-.559-.342c-.983-.342-1.613-1.146-2.399-1.75-.722-.558-1.577-.944-2.365-1.417-.452-.272-.859-.647-1.34-.834-.531-.205-.971-.362-1.367-.876-.39-.506-1.218-.47-1.819-.965-.824-.68-2.002-.93-3.029-1.364-.258-.11-.657-.152-.748-.342-.275-.57-.772-.48-1.225-.564-.41-.076-.87-.043-1.06-.576-.05-.135-.294-.26-.462-.28-.872-.1-1.673-.347-2.321-.971-1.615.117-2.782-1.316-4.392-1.267-.34.01-.684-.263-1.034-.382-.53-.181-1.059-.396-1.606-.499-.864-.163-1.785.047-2.531-.725-.26-.268-.913-.168-1.389-.213-1.275-.121-2.562-.063-3.74-.788-.447-.275-1.115-.233-1.686-.255-2.06-.079-4.123-.12-6.185-.183-1.842-.057-2.495-.708-2.495-2.472 0-2.229.05-2.29 2.237-2.24.942.023 1.915-.13 2.741.585.211.182.641.134.973.148 1.198.05 2.397.077 3.595.124 1.05.04 2.043.127 3.036.67.702.383 1.669.29 2.52.387.741.084 1.453.013 2.122.62.38.345 1.183.233 1.799.304.698.081 1.428-.025 1.951.671.162.215.601.246.924.31.807.16 1.731-.069 2.304.83.107.167.535.15.82.177.75.073 1.538-.002 2.012.814.085.148.435.148.666.204.538.13 1.12.056 1.513.657.157.24.703.208 1.055.342.472.181.93.4 1.39.61.251.115.482.288.743.363.542.154 1.151.145 1.447.774.049.103.229.193.355.203.738.059 1.275.383 1.842.896.477.431 1.243.464 1.817.999.631.588 1.705.69 2.367 1.259.743.638 1.634.96 2.418 1.49 1.223.825 2.157 2.065 3.642 2.518.569.174.606 1.12 1.394 1.04 1.307 1.675 3.17 2.69 4.756 4.033.871.737 1.563 1.683 2.378 2.492.846.84 1.764 1.607 2.609 2.447.475.473.928.991 1.282 1.558.798 1.279 1.782 2.373 2.886 3.397.532.494.807 1.255 1.269 1.839.561.71.917 1.56 1.67 2.15.441.345.784.901 1 1.432.609 1.491 1.525 2.825 2.409 4.12.587.86.64 2.059 1.654 2.658.18.106.174.527.254.802.115.395.058.875.61 1.039.134.04.262.272.297.436.146.676.404 1.235.797 1.851.685 1.073.917 2.433 1.353 3.667.105.295.257.575.4.855.142.276.377.53.435.82.167.839.2 1.683.897 2.358.247.24.195.807.247 1.228.077.611.014 1.263.649 1.663.1.063.188.242.183.363-.083 2.177 1.51 4.017 1.236 6.25-.055.448.315.943.469 1.423.127.397.29.799.32 1.207.08 1.1.035 2.212.16 3.305.095.841.39 1.658.563 2.493.136.653.31 1.315.315 1.975.03 3.934.051 7.87-.008 11.804-.014.88-.376 1.753-.549 2.634-.138.703-.278 1.412-.335 2.124-.082 1.052-.044 2.114-.152 3.162-.05.483-.356.933-.488 1.415a10.881 10.881 0 0 0-.337 1.654c-.132 1.174.033 2.396-.835 3.413-.215.251-.175.733-.221 1.112-.09.738.055 1.552-.717 2.05a.166.166 0 0 0-.063.125c.062 1.523-.866 2.75-1.23 4.146-.148.568.056 1.3-.742 1.567-.063.021-.13.17-.119.248.192 1.398-1.019 2.316-1.225 3.596-.086.537-.634.984-.835 1.523-.205.552-.043 1.266-.814 1.517-.066.021-.142.159-.135.235.103 1.139-.93 1.752-1.262 2.715-.306.89-1.206 1.572-1.535 2.46-.358.965-1.085 1.66-1.494 2.582-.327.736-.788 1.488-1.519 2.03-.454.336-.777.919-1.026 1.453-.694 1.487-1.864 2.552-2.99 3.686-.607.613-.93 1.498-1.482 2.18-.702.866-1.489 1.667-2.268 2.469-.889.915-1.848 1.75-2.678 2.74-.717.856-1.668 1.543-2.597 2.188-1.228.852-2.323 1.824-3.365 2.893-.562.576-1.361.914-2.027 1.396-.674.488-1.389.896-1.998 1.51-.6.603-1.484.919-2.23 1.382-1.366.847-2.654 1.86-4.104 2.517-1.054.476-1.906 1.284-3.103 1.563-.988.231-1.861.954-2.788 1.455-.29.157-.576.386-.886.431-.71.104-1.415.103-1.893.806-.114.169-.55.09-.813.192-.422.164-.819.393-1.233.58-.343.154-.685.357-1.047.414-.734.116-1.534-.015-2.01.789-.065.112-.352.106-.54.132-.977.14-1.97.125-2.8.876-.295.268-.911.192-1.383.254-.785.103-1.581-.017-2.254.683-.282.293-.997.186-1.518.229-1.23.1-2.48-.006-3.579.808-.338.25-.923.2-1.398.223-1.246.064-2.493.088-3.74.138-.708.029-1.363.263-2.04.452-1.16.324-2.45.246-3.681.207-.231-.007-.594-.609-.633-.965-.094-.848-.03-1.714-.03-2.445Z" style="fill:#2878b8"/><path d="M96.838 166.278c.516 1.19.384 2.351.297 3.484-.065.857-.512 1.178-1.264.891-1.528-.584-3.12-.401-4.685-.544-.954-.087-1.916-.092-2.874-.15-.333-.02-.753.02-.98-.161-1.039-.824-2.262-.676-3.443-.764-.71-.053-1.386-.038-1.97-.65-.262-.273-.907-.191-1.38-.249-.844-.103-1.73-.023-2.364-.806-.142-.175-.522-.178-.799-.22-.827-.127-1.747.053-2.324-.834-.09-.139-.447-.107-.682-.147-.554-.095-1.108-.1-1.528-.634-.201-.256-.67-.348-1.037-.417-.636-.12-1.338-.014-1.702-.78-.062-.132-.439-.112-.67-.166-.491-.114-1.069-.037-1.28-.715-.046-.15-.372-.255-.586-.304-.578-.131-1.27-.02-1.494-.811-.017-.061-.154-.107-.242-.126-.642-.132-1.264-.158-1.696-.867-.28-.458-1.017-.64-1.504-.876-.875-.423-1.615-1.037-2.473-1.467-1.168-.585-2.133-1.493-3.163-2.291-.217-.169-.402-.423-.646-.504-.984-.326-1.51-1.224-2.288-1.755-1.087-.742-1.91-1.75-2.967-2.522-1.38-1.01-2.53-2.344-3.735-3.582-.524-.538-.838-1.327-1.43-1.74-.62-.432-.696-1.358-1.532-1.516-.541-1.2-1.716-1.902-2.329-3.092-.59-1.144-1.541-2.1-2.318-3.15-.223-.301-.394-.642-.584-.967-.475-.814-.992-1.607-1.408-2.45-.48-.971-1.476-1.647-1.587-2.833-.018-.195-.26-.362-.377-.555-.214-.352-.48-.692-.6-1.076-.125-.403-.052-.874-.588-1.04-.079-.025-.193-.127-.19-.191.036-1.35-1.265-2.21-1.293-3.555-.007-.362-.342-.72-.539-1.073-.042-.076-.206-.127-.202-.18.105-1.272-.936-2.149-1.133-3.302-.16-.931-.07-1.912-.878-2.645-.163-.147-.105-.547-.134-.831-.09-.888-.099-1.741-.673-2.568-.365-.525-.254-1.386-.338-2.099-.122-1.033-.04-2.094-.712-3.024-.224-.31-.205-.825-.227-1.25a197.883 197.883 0 0 1 .005-20.284c.022-.423.026-.93.252-1.244.543-.76.551-1.603.643-2.456.126-1.166-.069-2.409.847-3.399.16-.174.113-.55.14-.836.085-.886-.034-1.802.73-2.53.225-.213.187-.72.237-1.098.108-.804.104-1.645.842-2.208.037-.028.09-.076.086-.109-.142-1.3 1.037-2.148 1.148-3.373.038-.41.165-.91.438-1.178.422-.412.511-.871.622-1.39.07-.332.332-.623.511-.931.113-.194.296-.373.332-.58.108-.618.15-1.245.843-1.551.103-.046.183-.223.21-.352.118-.594.156-1.142.777-1.58.428-.302.466-1.04.884-1.537.595-.706.898-1.65 1.406-2.44.464-.723 1.043-1.37 1.556-2.063.408-.55.815-1.105 1.18-1.684.836-1.32 1.936-2.406 2.957-3.571 1.134-1.295 2.216-2.656 3.376-3.939.996-1.102 1.999-2.194 3.34-2.935.569-.314 1.028-.872 1.458-1.385.713-.85 1.803-1.295 2.375-2.282.936-.021 1.456-.779 2.146-1.229.437-.285.829-.638 1.245-.955.392-.297.765-.633 1.192-.867.448-.245.848-.47 1.238-.853.574-.562 1.432-.83 2.16-1.239.303-.17.575-.393.873-.57.28-.166.565-.337.869-.442.426-.147.997-.013 1.108-.698.016-.098.306-.182.481-.22.628-.138 1.387-.023 1.611-.893.008-.031.083-.07.122-.065 1.247.122 1.986-1.198 3.217-1.133.181.009.402-.033.546-.134.784-.547 1.59-1.02 2.59-.993.731-.988 1.843-.818 2.859-.952.175-.023.393-.108.495-.24.506-.655 1.24-.638 1.948-.72.788-.092 1.592.001 2.265-.675.27-.27.904-.199 1.375-.244 1.18-.112 2.394.04 3.453-.749.303-.225.83-.176 1.258-.201 1.676-.098 3.356-.148 5.03-.271.705-.052 1.408-.21 2.098-.376.981-.236 1.425-.032 1.484.95.065 1.086-.034 2.183-.064 3.393-.633.04-1.099.083-1.565.098-1.63.05-3.263.059-4.891.15-.94.053-1.852.143-2.753.64-.658.364-1.582.242-2.385.352-.824.114-1.693-.09-2.402.687-.269.295-.996.19-1.518.232-.666.052-1.352.007-1.814.647-.074.103-.244.162-.38.19-1.138.233-2.244.463-3.297 1.07-.666.382-1.71.006-2.206.967-.072.138-.44.138-.675.174-.512.078-1.061.028-1.37.606-.074.138-.313.233-.49.262-1.44.23-2.485 1.27-3.747 1.795-.99.412-1.837 1.05-2.78 1.51-.769.377-1.556.89-2.327 1.345-1.34.79-2.338 2.012-3.759 2.724-.97.487-1.735 1.387-2.578 2.117-.544.471-1.053.981-1.596 1.453-1.049.91-2.19 1.731-3.145 2.73-.883.922-1.525 2.07-2.362 3.042-.743.862-1.707 1.544-2.386 2.447-.507.673-1.25 1.154-1.538 2.038-.206.636-.59 1.343-1.11 1.72-.981.708-1.152 1.856-1.8 2.725-.32.429-.712.822-.94 1.295-.215.447-.124 1.025-.767 1.256-.163.059-.17.505-.284.759-.152.34-.333.67-.51.998-.168.311-.39.6-.512.927-.16.43-.098.924-.646 1.198-.198.098-.213.573-.303.879-.127.437-.019.999-.645 1.165-.082.021-.211.12-.209.176.064 1.245-1.036 2.072-1.155 3.248-.066.654.017 1.375-.74 1.744-.072.035-.159.156-.15.228.17 1.616-1.093 2.862-1.129 4.431-.019.85-.13 1.654-.65 2.442-.359.542-.298 1.38-.366 2.091-.113 1.18.013 2.386-.716 3.462-.215.317-.18.835-.181 1.26-.011 5.28-.025 10.558.014 15.836.005.638.335 1.268.473 1.91.149.693.286 1.392.36 2.095.13 1.22-.013 2.473.815 3.565.253.332.157.925.234 1.397.13.81-.144 1.729.75 2.335.194.131.154.626.197.957.095.738-.053 1.55.78 2.028.153.087.188.425.227.656.14.828.019 1.734.893 2.307.16.106.18.555.133.823-.143.832.708 1.03.962 1.606.234.53-.17 1.31.633 1.617.08.031.196.128.194.191-.031 1.075.998 1.7 1.158 2.625.128.745.828.985.986 1.597.153.597.254 1.111.879 1.512.453.292.698.977.93 1.531.449 1.074 1.27 1.844 1.964 2.73.462.59.633 1.385 1.287 1.918.46.375.65 1.097 1.122 1.44.963.698 1.552 1.72 2.407 2.506.605.555.829 1.403 1.553 1.944 1.187.886 2.237 1.955 3.338 2.956.889.808 1.755 1.641 2.654 2.437.5.443 1.002.919 1.584 1.226.941.496 1.694 1.186 2.476 1.883.608.543 1.42.855 2.133 1.285.485.292.932.655 1.437.903.502.246.99.38 1.394.89.398.504 1.24.409 1.848.907.796.653 1.912.916 2.888 1.35.3.133.593.28.89.419.367.17.722.38 1.105.5.486.15.998.103 1.323.697.142.261.745.313 1.152.376.612.094 1.267.037 1.642.684.024.041.063.111.088.109 1.6-.18 2.769 1.144 4.295 1.228.746.04 1.45.048 2.123.609.406.337 1.184.252 1.799.307 1.13.102 2.259-.005 3.314.69.507.332 1.297.282 1.963.314 1.58.076 3.164.094 4.747.146.472.015.943.062 1.39.093Z" style="fill:#d8374b"/><path d="M101.31 169.833c0-.678-.03-1.35.008-2.017.054-.941.685-1.575 1.638-1.62 1.437-.069 2.877-.08 4.315-.132 1.189-.042 2.328-.139 3.462-.699.764-.377 1.778-.246 2.68-.343.69-.075 1.38.045 1.967-.613.269-.301.989-.216 1.508-.273.846-.093 1.737 0 2.357-.804.117-.152.425-.18.652-.22.86-.145 1.834.079 2.439-.858.086-.133.448-.093.684-.123.563-.072 1.096-.101 1.53-.624.233-.282.758-.353 1.168-.451.544-.13 1.14-.057 1.48-.695.091-.174.51-.154.754-.272.411-.197.806-.43 1.202-.658.12-.069.228-.26.325-.249 1.2.14 1.807-1.026 2.872-1.285.72-.175 1.298-.934 1.943-1.428.142-.11.288-.265.45-.29 1.163-.188 1.918-.998 2.728-1.735.134-.122.312-.219.487-.272.994-.304 1.599-1.09 2.306-1.77.515-.496 1.134-.899 1.75-1.269 1.207-.724 2.268-1.608 3.107-2.732.349-.468.908-.602 1.276-1.16.601-.913 1.734-1.453 2.498-2.284.878-.954 1.576-2.072 2.395-3.085.791-.979 1.67-1.888 2.446-2.877.54-.69.97-1.466 1.456-2.2.291-.44.664-.844.87-1.32.229-.527.665-.959.855-1.402.362-.844 1.284-1.362 1.309-2.383.005-.217.298-.425.454-.641.154-.212.368-.41.438-.648.166-.567.056-1.246.812-1.527.123-.045.121-.434.17-.665.106-.498.04-1.09.725-1.262.074-.019.185-.14.177-.2-.157-1.307 1.219-2.074 1.161-3.364-.022-.5.048-1.074.642-1.341.08-.036.188-.137.185-.204-.067-1.505.975-2.701 1.145-4.13.09-.758.124-1.468.605-2.157.327-.467.335-1.18.416-1.791.14-1.067-.055-2.19.765-3.12.209-.237.143-.738.16-1.12.053-1.197.025-2.403.141-3.594.13-1.326.443-2.633.568-3.959.198-2.094.385-4.193-.16-6.28a12.718 12.718 0 0 1-.374-2.407c-.097-1.532-.106-3.069-.172-4.603-.026-.612-.03-1.2-.505-1.74-.272-.31-.27-.886-.333-1.35-.173-1.26.064-2.601-.918-3.687-.21-.233-.13-.737-.167-1.118-.071-.739.094-1.558-.725-2.03a.157.157 0 0 1-.062-.126c.203-1.642-1.185-2.815-1.293-4.379-.026-.365-.37-.702-.542-1.064a5.707 5.707 0 0 1-.337-.877c-.137-.48-.002-1.096-.692-1.282-.08-.022-.2-.131-.194-.19.105-1.16-.998-1.828-1.169-2.886-.05-.318-.334-.602-.527-.89-.1-.152-.311-.265-.342-.421-.245-1.219-1.31-1.988-1.735-3.026-.626-1.526-2.077-2.458-2.544-4.051-.156-.533-.696-1.013-1.055-1.337-1.159-1.043-1.704-2.523-2.82-3.559-.291-.27-.708-.461-.883-.787-.2-.373-.378-.619-.742-.903-.884-.691-1.563-1.64-2.355-2.456-.427-.44-.89-.858-1.33-1.273a26.98 26.98 0 0 0-4.274-3.276c-.584-.363-.973-1.026-1.519-1.468-.64-.518-1.359-.938-2.034-1.413-1.401-.985-2.936-1.757-4.367-2.702-.808-.534-1.654-1.315-2.778-1.383-.24-.014-.462-.266-.697-.398-.317-.178-.624-.39-.963-.508-.425-.148-.998.02-1.16-.626-.018-.075-.127-.172-.203-.18-1.107-.113-2.05-.554-3.009-1.138-.613-.373-1.587-.083-2.105-.894-.07-.11-.36-.089-.55-.112-.88-.107-1.741-.086-2.496-.81-.366-.352-1.18-.241-1.793-.331-.64-.094-1.321.053-1.832-.596-.181-.23-.7-.235-1.07-.264-1.42-.11-2.838-.028-4.171-.802-.567-.329-1.403-.226-2.12-.257-1.533-.067-3.07-.075-4.603-.142-1.101-.048-1.713-.697-1.761-1.803-.017-.383-.01-.768 0-1.152.005-.237.034-.474.05-.674.667-.78 1.366-.758 2.31-.551 1.294.284 2.67.2 4.011.275 1.006.055 2.012.1 3.016.171.332.024.76-.001.972.188.847.752 1.871.615 2.855.692.754.06 1.482.02 2.15.591.344.296.995.25 1.512.323.788.112 1.655-.021 2.198.783.047.069.17.137.246.128 1.58-.196 2.762 1.028 4.252 1.188.422.045.808.402 1.214.608.242.123.481.282.74.334.585.12 1.254.006 1.564.743.046.11.338.13.521.165.595.114 1.23.08 1.567.786.09.188.5.263.776.31.47.082.956.06 1.132.667.034.116.309.184.484.233.568.159 1.283.044 1.47.87.02.086.236.168.368.183 1.209.14 1.9 1.204 2.913 1.636 1.496.638 2.468 2.049 4.028 2.558.558.182.621 1.07 1.371 1.02.816 1.422 2.498 1.805 3.542 2.962a28.822 28.822 0 0 0 2.665 2.563c.909.777 1.642 1.712 2.548 2.487.981.84 1.65 2.034 2.52 3.015.536.605.926 1.302 1.532 1.882.9.861 1.53 2.008 2.262 3.042a76.875 76.875 0 0 1 1.5 2.2c.204.311.351.66.542.981.156.265.325.524.515.765.082.105.331.158.332.236.012.95.697 1.56 1.123 2.3.251.436.517.864.755 1.306.13.24.243.496.315.758.135.49.087 1.042.716 1.304.163.067.146.515.26.765.19.413.432.803.63 1.213.14.29.257.592.36.897.158.468-.018 1.097.66 1.308.074.023.173.149.166.217-.175 1.607 1.298 2.723 1.267 4.298-.01.5.125.98.588 1.393.282.251.27.866.326 1.326.085.702.086 1.359.605 1.995.342.42.268 1.183.37 1.794.176 1.06-.059 2.205.786 3.129.213.232.158.733.176 1.113.053 1.103.022 2.212.135 3.307.086.84.345 1.661.518 2.493.078.373.19.75.193 1.127.026 2.878.031 5.757.038 8.636 0 .239.033.513-.066.711-.995 1.985-.604 4.137-.782 6.219-.071.839-.066 1.636-.593 2.443-.402.616-.279 1.572-.397 2.375-.124.834.025 1.74-.723 2.405-.146.13-.15.439-.185.67-.147.953.056 1.983-.823 2.756-.222.194-.15.728-.202 1.107-.085.61-.084 1.224-.65 1.681-.225.182-.325.588-.37.907-.104.74-.017 1.526-.83 1.99-.136.077-.1.446-.153.678-.113.496-.087 1.013-.651 1.355-.25.151-.254.684-.408 1.027-.143.318-.34.61-.507.918-.13.24-.295.474-.36.732-.138.544-.11 1.13-.762 1.437-.196.092-.29.485-.352.759-.094.417-.092.814-.615 1.027-.204.084-.278.55-.36.855-.11.414-.25.714-.63 1.029-.507.419-.977 1.085-1.103 1.716-.19.948-.947 1.452-1.43 2.1-.845 1.132-1.462 2.43-2.61 3.392-.955.8-1.528 2.043-2.322 3.048-.468.594-1.033 1.112-1.563 1.654-.402.412-.863.773-1.22 1.22a24.03 24.03 0 0 1-4.654 4.42c-1.119.812-2.169 1.732-3.282 2.55-.945.695-2.098 1.154-2.863 1.99-1.039 1.137-2.734 1.271-3.592 2.599-.078.12-.345.124-.526.172-.186.049-.406.037-.555.137-.437.291-.813.691-1.276.923-.472.236-1.175-.007-1.407.754-.04.132-.393.193-.611.242-.556.124-1.14.146-1.431.793-.068.15-.399.196-.617.26-.52.15-1.204-.033-1.423.718-.01.036-.071.087-.103.083-1.413-.165-2.282 1.258-3.66 1.246-.437-.004-.882.07-1.234.56-.207.29-.85.293-1.305.372-.641.11-1.282.018-1.814.65-.27.319-.969.3-1.482.384-.832.138-1.704.012-2.411.719-.244.243-.813.178-1.237.22-1.12.114-2.265-.053-3.297.701-.408.298-1.11.227-1.681.26-1.772.104-3.546.176-5.318.263-.336.016-.719-.052-.996.087-.823.411-1.458.103-2.223-.509Z" style="fill:#2878b8"/><path d="M101.395 160.935v-3.555c.613-.112 1.154-.268 1.702-.3 1.148-.068 2.302-.054 3.452-.105.698-.03 1.351-.048 2.006-.542.467-.351 1.278-.262 1.94-.335 1.108-.12 2.254.112 3.256-.728.378-.317 1.103-.222 1.67-.311.647-.101 1.367-.004 1.798-.684.046-.072.157-.16.228-.151 1.515.178 2.598-1.032 3.996-1.242.293-.044.563-.273.831-.437.158-.096.28-.31.439-.335 1.523-.238 2.665-1.292 4.018-1.84.984-.398 1.702-1.28 2.797-1.39.652-.066.624-1.132 1.43-.958.966-1.065 2.534-1.33 3.373-2.612.304-.463.946-.726 1.469-1.018 1.385-.775 2.31-2.07 3.5-3.036.924-.75 1.766-1.62 2.57-2.434 1.05-1.062 2.31-2.07 3.012-3.363.88-1.62 2.293-2.827 3.086-4.445.413-.846 1.344-1.378 1.346-2.493 0-.543.792-.709 1.002-1.394.35-1.133 1.132-2.127 1.685-3.204.191-.374.126-.92.38-1.214.583-.674.548-1.655.966-2.222.709-.96.519-2.162 1.091-2.97.672-.95.713-1.902.82-2.917.01-.095-.014-.226.04-.28 1.067-1.08.675-2.518.954-3.79.12-.55.354-1.072.505-1.616.139-.501.334-1.014.337-1.522.024-5.612.031-11.225-.006-16.837-.004-.585-.358-1.16-.485-1.754-.188-.884-.319-1.78-.476-2.67-.137-.778.066-1.65-.696-2.257-.146-.116-.148-.439-.178-.671-.124-.964.03-1.987-.846-2.758-.226-.198-.157-.727-.233-1.102-.076-.375-.04-.925-.272-1.086-.652-.456-.682-1.076-.77-1.738-.033-.247-.243-.47-.373-.704-.18-.325-.372-.644-.538-.976-.207-.414-.4-.836-.585-1.26-.169-.386-.347-.771-.472-1.172-.149-.48-1.153-2.229-1.53-2.58-.102-.094-.276-.174-.296-.282-.251-1.382-1.366-2.262-1.954-3.422-.683-1.346-1.894-2.265-2.513-3.687-.425-.977-1.737-1.532-2.354-2.472-.672-1.024-1.824-1.565-2.361-2.657-.25-.51-1.191-.294-1.12-1.108-1.304-.81-2.192-2.125-3.478-2.938-1.52-.962-2.812-2.282-4.395-3.08-.848-.428-1.38-1.444-2.482-1.373-.525-1.024-1.727-1.03-2.567-1.5-.926-.52-1.827-1.333-3.015-1.417-.287-.02-.55-.308-.833-.455-.282-.147-.563-.31-.864-.397-.58-.17-1.264-.08-1.622-.742-.038-.07-.16-.134-.245-.136-1.301-.036-2.376-.79-3.58-1.11-.995-.267-2.043-.153-2.97-.88-.44-.346-1.296-.16-1.963-.212-.99-.077-2.01.06-2.87-.69-.24-.21-.73-.17-1.107-.185-1.246-.05-2.494-.05-3.739-.112-.602-.03-1.199-.16-1.892-.256v-3.662c.568-.052 1.127-.151 1.685-.144 1.678.022 3.357.062 5.034.141.832.04 1.636-.001 2.416.618.476.377 1.378.247 2.092.284.869.044 1.697.09 2.434.686.3.242.801.265 1.22.325.783.111 1.617-.029 2.205.756.15.199.626.173.957.21.7.079 1.436-.001 1.879.777.101.179.514.204.792.252.56.098 1.13.102 1.531.644.145.195.5.283.774.323.663.096 1.346.096 1.741.791.057.1.253.189.373.176.96-.102 1.434.776 2.2 1.073.772.3 1.695.557 2.19 1.14.588.695 1.604.616 1.959 1.152.503.76 1.287 1.002 1.906 1.364 1.38.807 2.415 1.98 3.659 2.914.698.524 1.449.977 2.14 1.51.524.403 1.018.854 1.476 1.331.451.471.746 1.173 1.278 1.468.909.502 1.285 1.458 2.02 2.029.823.64 1.295 1.488 1.923 2.25.83 1.006 1.58 2.074 2.504 3.016.598.61.912 1.492 1.39 2.228.854 1.316 1.757 2.6 2.592 3.928.247.393.204 1.078.522 1.293.79.534.61 1.461 1.015 2.03.46.644.764 1.24.872 1.994.024.169.156.36.295.466.553.426.54 1.058.73 1.645.414 1.274.84 2.563 1.35 3.783.29.693.594 1.322.647 2.076.042.607.063 1.173.581 1.694.301.303.247.986.298 1.503.094.948.081 1.887.685 2.741.277.391.293 1.003.328 1.522.081 1.196.081 2.398.153 3.595.057.935-.137 1.938.621 2.716l.014 7.18c-1.014 1.356-.528 2.952-.691 4.44-.16 1.458.044 2.94-.84 4.305-.349.538-.197 1.4-.275 2.113-.061.56-.045 1.097-.511 1.584-.28.291-.297.868-.356 1.327-.095.738.078 1.554-.72 2.046-.065.04-.108.172-.106.26.042 1.51-1.197 2.625-1.257 4.11-.01.268-.124.626-.318.775-.552.424-.65 1.01-.796 1.616-.07.292-.303.546-.463.816-.113.192-.3.374-.327.577-.091.665-.394 1.14-.801 1.698-.46.632-.76 1.453-1.25 2.14-.904 1.269-1.44 2.766-2.547 3.93-.583.612-.715 1.57-1.447 2.159-.427.344-.67.912-1.01 1.37-.715.96-1.282 2.127-2.205 2.811-.976.723-1.503 1.817-2.558 2.47-.907.56-1.555 1.535-2.332 2.312-.474.474-.908 1.041-1.477 1.353-.977.536-1.766 1.225-2.568 1.994-.935.896-2.109 1.566-3.249 2.231-.46.269-.838.698-1.318.904-.51.218-.935.403-1.377.827-.639.613-1.65.816-2.43 1.31-.784.497-1.666.794-2.435 1.24-.632.368-1.193.67-1.912.781-.344.053-.651.34-.979.512-.24.126-.476.3-.733.345-.654.115-1.32.128-1.73.807-.092.154-.425.189-.656.228-.866.148-1.794.019-2.48.83-.185.219-.728.147-1.108.184-.858.082-1.68.153-2.425.738-.359.282-.994.218-1.506.298-.958.149-2.036-.199-2.81.72-.094.114-.36.108-.548.114-2.348.075-4.696.15-7.045.203-.278.007-.558-.106-.903-.177Z" style="fill:#2878b8"/><path d="M97.076 36.927v4.08c-1.137.038-2.175.074-3.214.106-.767.024-1.535.035-2.301.07-.335.014-.785-.05-.98.134-1.04.982-2.332.644-3.53.773-.746.08-1.516-.036-2.098.665-.17.205-.621.207-.95.244-.9.101-1.807.116-2.547.782-.189.17-.531.202-.81.23-.703.07-1.38.06-1.9.739-.204.265-.804.217-1.217.332-.487.135-1.054.08-1.352.664-.08.157-.393.235-.613.273-.6.104-1.234.076-1.522.812-.053.135-.433.131-.654.213-.463.17-1.092.048-1.278.732-.026.096-.224.202-.345.206-1.316.04-2.043 1.096-3.024 1.717-.834.53-1.762.916-2.571 1.477-.695.483-1.413.91-2.017 1.585-.82.917-1.98 1.52-2.948 2.316-.997.82-1.923 1.726-2.904 2.568-1.513 1.297-2.555 3.008-3.88 4.472-.888.98-2.104 1.865-2.415 3.32-.756.336-.595 1.46-1.472 1.715-.13.037-.257.282-.284.447-.181 1.117-1.033 1.817-1.62 2.683a3.871 3.871 0 0 0-.443.884c-.137.389-.056.892-.635 1.005-.076.015-.196.137-.188.196.154 1.233-1.062 1.922-1.205 3.046-.037.29-.282.558-.447.827-.073.119-.27.216-.267.32.032 1.424-1.075 2.47-1.256 3.819-.089.658-.142 1.286-.72 1.8-.252.223-.234.795-.264 1.213-.066.908-.098 1.778-.664 2.597-.292.422-.241 1.098-.295 1.664-.126 1.322-.005 2.672-.79 3.885-.234.361-.197.931-.199 1.406-.013 4.078-.032 8.157.016 12.235.008.681.367 1.352.508 2.039.171.838.321 1.685.412 2.535.116 1.084.008 2.195.745 3.152.205.267.162.732.213 1.108.12.867-.085 1.81.763 2.488.206.165.189.626.247.956.122.688.045 1.424.78 1.903.202.132.216.613.246.94.06.673.065 1.339.739 1.774.155.1.177.415.25.634.174.52.085 1.183.785 1.418.07.024.166.149.156.212-.192 1.202.952 1.847 1.2 2.882.12.498.577.917.887 1.367.861 1.247 1.402 2.712 2.557 3.76.1.092.201.215.236.341.304 1.094 1.228 1.711 1.866 2.548.699.917 1.598 1.665 2.19 2.642.71 1.169 1.7 2.075 2.667 2.98 1.3 1.219 2.73 2.304 4.14 3.403.88.687 1.766 1.46 2.611 2.236.139.127.285.252.446.347 1.323.78 2.757 1.423 3.932 2.384.618.505 1.165.832 1.91.92.487 1.135 2.065.554 2.585 1.64.018.04.064.097.094.096 1.25-.071 2.033 1.099 3.226 1.203.559.049 1.166.081 1.486.694.04.075.14.178.206.173 1.397-.106 2.488.839 3.778 1.089.82.159 1.673.065 2.383.765.297.294 1.004.17 1.524.24 1.194.16 2.464-.188 3.543.755.322.281 1.018.157 1.543.177 1.578.058 3.157.096 4.808.144.388 1.322.273 2.584.168 3.843-.193.087-.321.197-.447.193a1054.5 1054.5 0 0 1-7.331-.227c-.238-.008-.558.014-.696-.123-.892-.888-2.033-.645-3.098-.74-.617-.055-1.198-.074-1.701-.587-.26-.266-.788-.297-1.206-.373-.912-.167-1.923.06-2.637-.837-.154-.193-.648-.084-.961-.187-.57-.188-1.122-.433-1.683-.65-.345-.132-.688-.27-1.04-.377-.474-.144-1.104.041-1.3-.66-.02-.071-.15-.165-.222-.16-1.084.09-1.81-.696-2.686-1.1-1.115-.515-2.2-1.106-3.287-1.668-.884-.458-1.678-1.067-2.589-1.486-.772-.355-1.416-.991-2.117-1.503-.146-.107-.28-.274-.442-.31-1.119-.248-1.76-1.107-2.523-1.847-.77-.745-1.68-1.344-2.511-2.029-1.377-1.135-2.814-2.212-4.084-3.458-.942-.925-1.647-2.089-2.478-3.13-.44-.551-.971-1.035-1.373-1.61-.454-.65-1.136-1.075-1.508-1.832-.398-.81-1.069-1.483-1.618-2.219-.322-.43-.804-.824-.924-1.306-.275-1.106-1.143-1.845-1.572-2.869-.357-.85-.93-1.657-1.339-2.524a29.312 29.312 0 0 0-.543-1.082c-.21-.403-.442-.794-.64-1.202-.12-.245-.185-.515-.29-.768-.495-1.186-1.282-2.269-1.28-3.63-.742-.551-.734-1.383-.835-2.181a.878.878 0 0 0-.242-.502c-.629-.578-.688-1.333-.73-2.11-.042-.743-.005-1.45-.616-2.115-.345-.376-.252-1.18-.302-1.796-.089-1.09-.016-2.185-.752-3.151-.255-.335-.24-.922-.241-1.394-.015-5.566-.028-11.131.015-16.697.005-.626.382-1.243.531-1.877.173-.738.302-1.488.42-2.238.15-.957-.094-1.964.735-2.815.315-.324.191-1.099.221-1.67.037-.683.098-1.342.623-1.857.102-.1.25-.215.26-.334.087-1.006.365-1.933 1.013-2.727-.314-1.454 1.165-2.311 1.215-3.644.942-.727.917-1.966 1.454-2.921.544-.97 1.41-1.833 1.572-3.05.05-.367.584-.648.815-1.019.244-.394.331-.89.593-1.27.877-1.269 1.962-2.383 2.616-3.823.22-.486.717-.925 1.115-1.296 1.113-1.037 1.963-2.262 2.904-3.428.494-.612 1.132-1.161 1.649-1.738 1.185-1.325 2.712-2.209 3.949-3.45 1.134-1.14 2.378-2.176 3.63-3.188.552-.448 1.31-.486 1.865-1.127.534-.618 1.754-.661 2.245-1.29.685-.877 1.794-.852 2.509-1.645.548-.609 1.492-1.026 2.323-1.173 1.144-.203 1.869-1.355 3.112-1.21.113.013.328-.1.353-.193.172-.643.717-.556 1.17-.616.53-.071 1.045-.123 1.377-.63.07-.108.23-.182.364-.22 1.427-.404 2.849-.834 4.29-1.177.69-.164 1.393-.146 1.983-.69.271-.25.793-.256 1.209-.313 1.102-.15 2.315.18 3.224-.78.054-.057.183-.052.277-.056 2.676-.11 5.352-.215 8.185-.328Z" style="fill:#d8374b"/><path d="M101.377 151.96v-3.777c1.047-.063 2.036-.11 3.022-.184 1.022-.077 2.058.117 2.995-.666.396-.33 1.198-.19 1.818-.236 1.046-.075 2.104-.012 2.985-.8.241-.216.722-.176 1.096-.227.73-.1 1.558.095 2.016-.756.047-.088.26-.108.398-.122.954-.09 1.897-.144 2.591-.99.16-.197.635-.12.956-.205.262-.07.667-.134.734-.307.203-.524.605-.528 1.033-.603.464-.081.948-.153 1.15-.715.048-.135.283-.24.453-.287.566-.153 1.178-.048 1.559-.768.216-.408 1.134-.175 1.302-.907.014-.059.159-.09.246-.128.621-.273 1.175-.539 1.716-1.063.958-.929 2.291-1.457 3.348-2.301.891-.712 1.6-1.648 2.415-2.46.81-.81 1.714-1.535 2.465-2.395.914-1.047 2.003-1.953 2.6-3.278.284-.628.722-1.302 1.28-1.656.442-.28.498-.592.67-.965.272-.585.52-1.287.997-1.648.901-.682.675-2.022 1.698-2.593.167-.093.149-.524.208-.801.096-.45.019-.995.658-1.138.079-.017.193-.116.2-.186.085-.945.725-1.653 1.04-2.486.323-.855.025-1.93 1.009-2.565.164-.106.134-.538.163-.823.082-.79.035-1.555.693-2.239.318-.33.207-1.095.25-1.666.079-1.048.1-2.077.7-3.038.279-.446.274-1.114.277-1.682.021-4.174.04-8.348-.014-12.522-.01-.73-.401-1.447-.546-2.183-.184-.934-.295-1.881-.438-2.823-.096-.637.026-1.283-.598-1.83-.305-.268-.219-.985-.301-1.5-.089-.552-.016-1.124-.605-1.53-.257-.178-.352-.657-.423-1.018-.14-.713.092-1.55-.817-1.968-.128-.059-.11-.439-.157-.671-.1-.503-.056-1.064-.726-1.274-.147-.046-.23-.381-.29-.598-.157-.558.031-1.287-.803-1.496-.077-.019-.143-.244-.146-.376-.026-1.126-1.124-1.67-1.425-2.66a4.698 4.698 0 0 0-.776-1.476c-.292-.376-.996-.405-.94-1.097-1.013-.308-.864-1.446-1.476-2.082-.575-.597-1.36-1.075-1.607-1.958-1.461-.811-2.155-2.486-3.657-3.251-.487-1.128-1.736-1.518-2.401-2.479-.094-.135-.31-.204-.483-.262-.977-.327-1.643-1.066-2.36-1.744a1.409 1.409 0 0 0-.582-.332c-1.057-.277-1.744-1.089-2.563-1.712-.176-.135-.412-.198-.629-.27-.511-.172-1.204-.015-1.371-.802-.02-.092-.216-.177-.345-.21-.66-.172-1.46-.063-1.773-.91-1.453.111-2.357-1.332-3.822-1.324-.564.003-1.106-.591-1.702-.757-.636-.177-1.51.064-1.953-.288-1.097-.873-2.328-.761-3.55-.88-.697-.07-1.377-.03-1.992-.598-.316-.292-.997-.223-1.517-.252-1.28-.072-2.56-.105-3.928-.157v-3.836c.679-.043 1.287-.111 1.894-.112 1.104 0 2.208.02 3.31.069.653.028 1.26.054 1.874.515.477.357 1.273.302 1.931.4 1.056.157 2.224-.12 3.069.846.099.112.362.09.55.114.968.123 2.01-.02 2.763.844.104.12.358.119.547.151.188.033.383.062.572.05.806-.054 1.17.714 1.808.954.583.22 1.395-.13 1.727.71.016.04.07.097.103.094 1.255-.12 1.897 1.165 3.055 1.332.378.054.673.674 1.052.73 1.277.191 2.003 1.181 2.957 1.838.117.081.237.197.367.215 1.08.149 1.55 1.145 2.353 1.675.186.122.354.302.557.359.99.278 1.542 1.106 2.249 1.74.88.792 1.765 1.581 2.644 2.375.432.39.961.724 1.263 1.2.746 1.177 1.826 2.026 2.732 3.042.513.576.674 1.403 1.327 1.958.474.403.587 1.33 1.085 1.585 1.047.533.672 1.999 1.784 2.387.059.02.094.162.106.251.167 1.262 1.23 2.04 1.689 3.14.143.345.245.706.38 1.054.137.352.28.701.44 1.042.193.412.4.818.612 1.22.192.362.4.715.603 1.07.091.16.26.313.27.476.05 1.024.207 2 1.004 2.746-.153 1.757 1.204 3.16 1.128 4.926-.026.62.345 1.255.516 1.887.124.456.28.914.314 1.379.415 5.753.425 11.507-.01 17.259-.04.535-.378 1.042-.516 1.578a16.326 16.326 0 0 0-.342 1.815c-.116.829.101 1.736-.692 2.387-.148.122-.151.445-.182.68-.122.939-.08 1.915-.876 2.65-.176.163-.185.528-.23.807-.104.636.054 1.347-.71 1.753-.18.095-.161.53-.276.789-.183.415-.397.817-.606 1.22-.088.169-.224.315-.295.488-.383.944-.506 2.173-1.187 2.769-.857.748-.801 1.879-1.642 2.627-.525.466-.71 1.448-1.324 2.07-.417.422-.582 1.11-1.02 1.495-1.104.969-1.594 2.383-2.733 3.38-.812.71-1.653 1.574-2.293 2.549-.297.453-.834.772-1.25 1.165-.603.572-1.223 1.123-1.8 1.733-.437.462-.975.853-1.525 1.18-.965.573-1.807 1.253-2.638 2.019-.498.458-1.34.74-2.006 1.164-.32.203-.62.289-.798.68-.089.192-.45.277-.703.373-.46.172-1.069.036-1.253.747-.036.14-.51.147-.77.25-.347.138-.686.302-1.02.47-.357.181-.707.377-1.056.572-.353.198-.705.4-1.05.61-.076.045-.136.199-.187.191-1.424-.2-2.308 1.08-3.647 1.294-1.292.207-2.471 1.082-3.885.989-1.002 1.099-2.381.758-3.62.944-.653.098-1.356.01-1.837.627-.075.097-.254.148-.39.157-2.047.14-4.095.277-6.291.043Z" style="fill:#2878b8"/><path d="M97.058 50.13c-1.009 0-1.87-.02-2.729.006-.938.029-1.825.04-2.732.58-.674.402-1.673.273-2.53.345-.804.067-1.559.11-2.282.645-.447.333-1.18.298-1.791.388-.647.096-1.378-.057-1.768.688-1.277-.003-2.16 1.02-3.325 1.283-.636.143-1.15.318-1.733.724-.675.471-1.523.82-2.295 1.24-.997.543-2.01.956-2.897 1.752-.57.512-1.41.898-2.138 1.214-.59.256-.589.777-1.013 1.061-1.686 1.13-3.336 2.27-4.722 3.836-1.033 1.167-2.265 2.19-3.25 3.427-.599.753-1.048 1.647-1.726 2.311-.496.485-.832 1.044-1.221 1.582-.272.376-.479.8-.767 1.161-.596.748-.926 1.64-1.406 2.447-.583.98-1.443 1.8-1.551 3.037-.027.306-.216.69-.457.864-.458.329-.481.766-.586 1.237-.086.382-.349.727-.545 1.082-.044.079-.204.14-.197.194.213 1.652-1.333 2.795-1.267 4.413a2.653 2.653 0 0 1-.593 1.84c-.331.424-.263 1.185-.31 1.8-.09 1.18-.002 2.355-.673 3.464-.317.524-.275 1.305-.281 1.97a387.91 387.91 0 0 0 0 8.637c.012.992.13 1.947.651 2.895.36.653.199 1.588.291 2.395.1.878-.061 1.777.677 2.559.317.335.196 1.09.26 1.656.064.562-.006 1.16.587 1.533.144.091.296.323.286.48-.077 1.335.907 2.307 1.174 3.524.075.339.318.643.496.957.14.248.404.474.432.73.149 1.372 1.204 2.269 1.708 3.42.407.927 1.054 1.679 1.484 2.579.364.76 1.033 1.464 1.62 2.152.763.893 1.53 1.835 2.205 2.822a14.041 14.041 0 0 0 2.735 2.964c.836.683 1.415 1.633 2.357 2.23.842.533 1.542 1.309 2.416 1.767.581.305.652 1.014 1.418 1.235.503.145 1.063.648 1.656.938.532.26.847.824 1.52 1.058.89.31 1.59 1.196 2.483 1.464 1.153.347 2.022 1.18 3.261 1.449 1.165.252 2.354.86 3.46 1.484.394.223.887.312 1.346.373.892.12 1.787.074 2.549.768.296.27.907.212 1.38.269 1.258.151 2.587-.105 3.706.808.246.2.743.117 1.124.121 1.142.013 2.284.005 3.522.005v3.965H91.24c-1.423-.977-3.18-.562-4.655-1.088-1.224-.436-2.589-.464-3.64-1.011-1.118-.582-2.497-.504-3.427-1.47-.177-.183-.512-.243-.786-.298-.623-.127-1.358.049-1.688-.776-.053-.132-.43-.13-.656-.199-.483-.148-1.082-.097-1.281-.747-.023-.075-.13-.17-.205-.177-1.748-.16-3.005-1.4-4.319-2.288-1.178-.795-2.562-1.357-3.556-2.559-.646-.78-1.631-1.416-2.506-2.063-2.162-1.602-4.128-3.386-5.545-5.718-.3-.492-.749-.898-1.153-1.322-1.027-1.08-2.039-2.163-2.66-3.55-.1-.224-.344-.384-.526-.569-.127-.128-.35-.23-.378-.375-.245-1.214-.935-2.144-1.788-2.99-.124-.124-.154-.346-.22-.525-.186-.506-.068-1.14-.765-1.43-.186-.079-.16-.616-.276-.927-.123-.335-.293-.653-.451-.974-.185-.374-.458-.725-.552-1.12-.152-.644-.085-1.363-.805-1.735.08-1.395-1.02-2.409-1.205-3.714-.131-.924-.119-1.817-.751-2.677-.388-.528-.197-1.483-.26-2.246-.07-.853-.025-1.707-.61-2.465-.233-.302-.245-.825-.247-1.247-.017-4.413-.027-8.826.01-13.239.004-.54.32-1.072.454-1.617.147-.597.278-1.202.367-1.81.168-1.145-.181-2.399.801-3.37.165-.164.133-.55.15-.836.064-1.006.057-2.015.906-2.785.168-.151.13-.536.175-.815.087-.55-.004-1.133.625-1.509.216-.129.267-.594.322-.918.113-.658.14-1.326.828-1.728.15-.088.184-.415.227-.64.104-.549.036-1.168.729-1.427.092-.034.163-.24.17-.37.065-1.198 1.082-1.848 1.591-2.789.11-.203.287-.375.363-.587.199-.553.238-1.061.924-1.453.593-.339.82-1.3 1.246-1.961.406-.63.748-1.377 1.318-1.81 1.175-.89 1.72-2.257 2.729-3.255.83-.822 1.62-1.687 2.445-2.515 1.112-1.114 2.422-2.01 3.625-3.007 1.027-.85 1.908-2.106 3.444-2.314.504-.069.483-1.083 1.262-.89.523-.903 1.816-.744 2.33-1.69.08-.147.42-.162.643-.223.482-.134 1.051-.041 1.303-.694.07-.182.482-.24.744-.338.459-.172 1.098-.003 1.266-.727.024-.103.326-.2.5-.2.854-.005 1.5-.684 2.202-.819 1.482-.285 2.666-1.429 4.249-1.328.362.023.824-.031 1.09-.24.864-.678 1.866-.666 2.862-.74.854-.063 1.716-.06 2.424-.686.16-.142.451-.186.683-.188 1.864-.015 3.729-.008 5.721-.008v3.959Z" style="fill:#d8374b"/></svg>