<svg id="Layer_1" data-name="Layer 1" xmlns="http://www.w3.org/2000/svg" viewBox="0 0 92.96 56.03"><defs><style>.cls-1{fill:#de3b6d;}.cls-2{fill:#676767;}</style></defs><g id="Layer_2" data-name="Layer 2"><g id="Layer_1-2" data-name="Layer 1-2"><path class="cls-1" d="M474.55,474.77h0a4.63,4.63,0,0,1,4.63,4.63v40.9a4.63,4.63,0,0,1-4.63,4.63h0a4.63,4.63,0,0,1-4.63-4.63V479.4A4.63,4.63,0,0,1,474.55,474.77Z" transform="translate(-453.18 -471.83)"/><rect class="cls-1" x="50.22" width="9.26" height="56.03" rx="4.63"/><rect class="cls-1" x="31.73" y="21.63" width="12.77" height="12.77" rx="6.38"/><rect class="cls-2" x="66.96" y="15.61" width="9.26" height="24.81" rx="4.63"/><rect class="cls-2" x="83.7" y="6.79" width="9.26" height="42.44" rx="4.63"/><path class="cls-2" d="M457.81,485.65h0a4.63,4.63,0,0,1,4.63,4.63v19.14a4.63,4.63,0,0,1-4.63,4.63h0a4.63,4.63,0,0,1-4.63-4.63V490.28A4.63,4.63,0,0,1,457.81,485.65Z" transform="translate(-453.18 -471.83)"/></g></g></svg>