<svg id="Layer_1" data-name="Layer 1" xmlns="http://www.w3.org/2000/svg" viewBox="0 0 198.06 198.14"><defs><style>.cls-1{fill:#2979b8;}.cls-2{fill:#d9394c;}</style></defs><path class="cls-1" d="M501.93,598.91v-4c.92-.06,1.72-.12,2.52-.15a10.4,10.4,0,0,0,3.52-.58,8.5,8.5,0,0,1,2.55-.3c1.25-.08,2.5-.07,3.74-.19a10.57,10.57,0,0,0,1.57-.5,11.38,11.38,0,0,1,1.52-.31c1.3-.15,2.66.09,3.86-.78.4-.3,1.11-.19,1.68-.26.74-.09,1.55,0,2.08-.71a.56.56,0,0,1,.39-.16,9,9,0,0,0,3.5-1c.87-.45,2.06-.24,2.89-1,.17-.16.55-.09.83-.14.5-.1,1.09,0,1.37-.59a.35.35,0,0,1,.22-.18c1.34-.06,2.41-.92,3.66-1.27a5.65,5.65,0,0,0,.95-.48,5.2,5.2,0,0,1,.69-.38c.57-.17,1.26-.06,1.56-.81.06-.15.42-.18.64-.26.47-.15,1.08,0,1.28-.71,0-.15.49-.2.76-.29.43-.14,1,0,1.15-.67a.43.43,0,0,1,.31-.26,3.67,3.67,0,0,0,2.16-1c.64-.49,1.68-.61,2.13-1.21s1.66-.58,1.95-1.13c.4-.77,1.41-.61,1.62-1.42,0-.07.15-.13.24-.15a5.39,5.39,0,0,0,2.7-1.9,8.47,8.47,0,0,1,1.85-1.25,12.84,12.84,0,0,0,3.11-2.68,8.3,8.3,0,0,1,1.73-1.29,21.77,21.77,0,0,0,3-2.61c.9-.86,1.83-1.69,2.68-2.59s1.64-1.93,2.47-2.89c.57-.65,1.13-1.32,1.68-2,1.16-1.42,2.63-2.61,3.39-4.35a4.21,4.21,0,0,1,.9-1c1.08-1.14,1.33-2.88,2.73-3.79.12-.08.13-.34.19-.52a19.73,19.73,0,0,1,1.63-2.46,1.08,1.08,0,0,0,.3-.44c.17-.62.1-1.37,1-1.58.06,0,.14-.16.13-.23-.11-1.18,1.16-1.78,1.19-2.89,1-.59.64-2.06,1.62-2.72.18-.11.12-.54.23-.79.19-.41.43-.8.66-1.19.05-.08.17-.12.2-.2.39-1.07.77-2.15,1.15-3.22.13-.36.24-.71.38-1.06.2-.52.46-1,.63-1.55s.06-1,.64-1.19a.29.29,0,0,0,.16-.23c-.18-1.68,1.2-2.93,1.23-4.56a2.83,2.83,0,0,1,.67-2,2.5,2.5,0,0,0,.3-1.35,4,4,0,0,1,.58-2.16,4.42,4.42,0,0,0,.36-1.94,6.41,6.41,0,0,1,.72-3.17,3.3,3.3,0,0,0,.28-1.53c.07-1.1.08-2.21.13-3.31a3,3,0,0,1,.48-1.9,2.18,2.18,0,0,0,.25-1.24q0-8.42,0-16.84a1.65,1.65,0,0,0-.09-.84c-1-1.48-.59-3.15-.73-4.74a6.25,6.25,0,0,0-.7-3.17,5.18,5.18,0,0,1-.33-2.1c-.12-1,0-2-.74-2.84-.19-.2-.15-.64-.18-1-.08-.89,0-1.81-.72-2.54-.2-.19-.18-.62-.25-1-.18-.95,0-2-.92-2.74-.14-.1-.1-.45-.13-.69-.12-.77.07-1.63-.79-2.17-.17-.11-.12-.54-.22-.81-.19-.52-.43-1-.63-1.55a9.89,9.89,0,0,1-.39-1.2c-.12-.49,0-1.06-.62-1.36-.15-.07-.22-.39-.27-.61-.14-.59-.07-1.27-.79-1.57a.29.29,0,0,1-.14-.24c.12-1.23-1.21-1.9-1.2-3.09-.92-.65-.74-2-1.67-2.66-.18-.13-.18-.52-.25-.79s0-.88-.62-1a.59.59,0,0,1-.35-.4c-.18-1.25-1.3-2-1.73-3-.63-1.52-2-2.51-2.49-4.1-.07-.24-.52-.35-.69-.6-.77-1.12-1.49-2.27-2.25-3.39a7.1,7.1,0,0,0-1.09-1.34,18.86,18.86,0,0,1-3.08-3.64,20.51,20.51,0,0,0-2.48-2.45c-.79-.78-1.57-1.58-2.33-2.4a22.33,22.33,0,0,0-2.93-2.65,23.43,23.43,0,0,1-3-2.67,10.69,10.69,0,0,0-3.06-2.24c-.57-.27-.75-.76-1.2-1.05-1.12-.73-2.36-1.34-3.4-2.14a8.47,8.47,0,0,0-1.83-1.1,10.16,10.16,0,0,1-1.71-1.28,4,4,0,0,0-.84-.51c-.37-.15-.86,0-1-.65,0-.15-.46-.23-.72-.31-.48-.14-1-.06-1.29-.72-.07-.2-.57-.24-.87-.35s-.86-.07-1.05-.62c-.06-.17-.46-.25-.72-.32-.49-.13-1-.11-1.3-.73-.06-.15-.39-.23-.61-.28-.58-.14-1.23-.08-1.55-.8-.07-.16-.52-.16-.8-.22-.45-.09-.95,0-1.22-.56-.09-.19-.49-.26-.76-.33-.77-.2-1.64-.12-2.17-.91-.07-.12-.34-.14-.53-.15a2.83,2.83,0,0,1-1.93-.74c-.3-.28-.9-.24-1.37-.32a3.4,3.4,0,0,1-2-.71c-.3-.27-.89-.25-1.35-.31-.65-.08-1.31,0-1.84-.61-.24-.26-.79-.28-1.2-.34a6,6,0,0,1-3.12-.8c-.43-.32-1.21-.16-1.83-.23-1.06-.12-2.19.14-3.12-.72-.22-.21-.73-.14-1.12-.16-1.19-.07-2.39-.1-3.59-.17a11.8,11.8,0,0,1-3.51-.59,10,10,0,0,0-2.7-.29c-.8-.06-1.6-.1-2.52-.15v-4h7.78c.05.68.52.85,1.09.89l4.31.26a3.61,3.61,0,0,1,2.15.56,4.15,4.15,0,0,0,2,.33c1.08.09,2.16,0,3.13.71a3.38,3.38,0,0,0,1.53.31,3.5,3.5,0,0,1,2.38.72c.3.3,1,.15,1.52.28s1.23.42,1.85.62a10.49,10.49,0,0,0,1.2.39c.72.15,1.58,0,2,.82,0,0,.08,0,.13,0a8,8,0,0,1,3.21,1c.6.3,1.39.16,1.83.9.1.16.53.16.81.18.48.05,1,.06,1.22.59.07.13.31.19.49.26a16.11,16.11,0,0,1,3.22,1.32c1.38.94,3.16,1.17,4.3,2.52.16.18.52.2.8.28s.88.08,1,.66a.43.43,0,0,0,.28.29c1.33.14,2,1.4,3.14,1.8,1.59.58,2.5,2.16,4.19,2.55a3.28,3.28,0,0,1,1.08.9,12.21,12.21,0,0,0,2.79,2,7.88,7.88,0,0,1,1.31,1.15,56.92,56.92,0,0,0,4.44,3.91,22.48,22.48,0,0,1,2.5,2.38c1.28,1.35,2.54,2.73,3.78,4.12a31.21,31.21,0,0,0,2.51,2.95,18.33,18.33,0,0,1,3.09,4.06,9.46,9.46,0,0,0,1.51,1.45.69.69,0,0,1,.23.34,4.57,4.57,0,0,0,1.84,2.59.92.92,0,0,1,.22.5A4.82,4.82,0,0,0,584.4,448a1,1,0,0,1,.22.36,25.87,25.87,0,0,0,2.77,4.85,2.41,2.41,0,0,1,.25.51,9.78,9.78,0,0,0,1.26,2.86c.65.71.64,1.52,1,2.24a11.86,11.86,0,0,0,1.08,2.26c.82,1,.47,2.37,1.47,3.21.23.19.17.72.25,1.1a2.24,2.24,0,0,0,.66,1.52c.27.23.29.77.37,1.18.13.67-.08,1.4.7,1.91.28.18.23.89.28,1.36a3.91,3.91,0,0,0,.61,1.87,4.36,4.36,0,0,1,.44,1.77c.11.73,0,1.49.64,2.11.27.26.2.9.25,1.38.13,1.27,0,2.56.82,3.72a3.59,3.59,0,0,1,.25,1.68c.06,1,.07,1.92.12,2.88,0,.33,0,.77.15,1a3.67,3.67,0,0,1,.64,2.73q0,9.35,0,18.71a2.92,2.92,0,0,1-.54,2.16,2,2,0,0,0-.23,1.1c-.06,1-.08,2-.13,3a5.16,5.16,0,0,1-.67,2.74,5,5,0,0,0-.35,1.95c-.14,1,.1,2.08-.75,3-.26.27-.15.92-.19,1.39a3.52,3.52,0,0,1-.69,2.29,2.56,2.56,0,0,0-.34,1.21c-.12.73,0,1.53-.76,2-.17.11-.16.53-.19.81-.1.84,0,1.71-.83,2.33-.23.17-.2.71-.27,1.09-.1.55,0,1.17-.64,1.51-.08,0-.18.15-.17.21.23,1.34-1.1,2.13-1.19,3.36,0,.3-.3.57-.45.86a4.06,4.06,0,0,0-.47,1c-.11.62-.12,1.25-.8,1.57-.1,0-.14.24-.19.37a18.17,18.17,0,0,1-2.71,5.06,1.86,1.86,0,0,0-.25.51,16.35,16.35,0,0,1-2.68,4.32,1.18,1.18,0,0,0-.17.22c-.32.52,0,1.33-.91,1.63-.51.17-.34,1.18-1.08,1.33.06,1.06-.83,1.72-1.39,2.26a35.12,35.12,0,0,0-2.63,3.4c-1.77,2.19-3.69,4.24-5.51,6.38a29.53,29.53,0,0,1-5,4.76,10.85,10.85,0,0,0-2.66,2.45c-.33.48-.89.69-1.3,1.11a13.58,13.58,0,0,1-3.24,2.22c-.5.28-.41,1.18-1.21,1-.93,1.19-2.63,1.4-3.47,2.71a.17.17,0,0,1-.11.08,3.09,3.09,0,0,0-2.26,1.26c-.77.76-2.09.57-2.56,1.69a.34.34,0,0,1-.23.14c-1.76.35-3,1.75-4.71,2.28a14.88,14.88,0,0,0-2.41,1.37,8.06,8.06,0,0,1-1.19.44c-.36.12-.87.15-1,.4a1.53,1.53,0,0,1-1.35.63.79.79,0,0,0-.28,0c-.52.28-1,.62-1.55.85s-1.21.17-1.62.5a2.78,2.78,0,0,1-1.69.61c-.19,0-.47,0-.55.08-.71.92-1.76.81-2.73,1a1.12,1.12,0,0,0-.65.27,3,3,0,0,1-2.12.7,2.18,2.18,0,0,0-1.82.64c-.2.25-.79.24-1.21.28a5.44,5.44,0,0,0-3,.79c-.43.32-1.2.19-1.81.26-1.07.12-2.22-.17-3.12.75-.16.16-.55.11-.83.13a19.49,19.49,0,0,1-2.16.08,16.57,16.57,0,0,0-5.87,1.1Z" transform="translate(-400.59 -400.77)"/><path class="cls-2" d="M400.59,493.79c.79,0,1.05-.48,1.07-1.22,0-2,.11-3.93.17-5.9a5.28,5.28,0,0,1,.7-2.88,4.5,4.5,0,0,0,.29-1.81c.16-1.19-.14-2.43.76-3.54.37-.46.16-1.39.23-2.11a2.51,2.51,0,0,1,.57-1.69c.36-.4.34-1.16.44-1.77s0-1.56.74-2.08c0,0,.1-.07.09-.1-.2-1.56,1-2.72,1.22-4.16a7.67,7.67,0,0,1,.6-1.54c0-.08.18-.15.17-.21-.15-1.32,1-2.17,1.2-3.39a4.94,4.94,0,0,1,.56-1.28,5.2,5.2,0,0,0,.38-.88c.13-.55.1-1.13.74-1.46.21-.11.19-.61.34-.9a9.07,9.07,0,0,1,.62-1c.07-.11.26-.22.25-.31-.18-1.21,1-1.83,1.24-2.9a7,7,0,0,1,1.07-1.89c.28-.48.41-1.17.82-1.43,1-.61.84-1.84,1.7-2.56.65-.54.89-1.57,1.36-2.35a4.8,4.8,0,0,1,.86-1c1.14-1.08,1.48-2.7,2.77-3.74,1-.81,1.55-2.13,2.39-3.15a12.27,12.27,0,0,1,2.49-2.7c.48-.31.73-.86,1.17-1.25,1-.9,1.93-1.93,2.86-2.91a27.6,27.6,0,0,0,2.47-2.59c.65-.89,1.83-1.39,2.57-2.24,1.13-1.3,2.65-2,3.94-3.1.58-.47,1-1.19,1.63-1.52a7.47,7.47,0,0,0,2.19-1.4c1-1.18,2.78-1.35,3.69-2.67a.54.54,0,0,1,.36-.2c1.14-.21,1.86-1.09,2.76-1.68a4.9,4.9,0,0,1,.76-.38c.42-.17,1-.07,1.12-.72,0-.15.48-.22.75-.29.44-.12.95-.06,1.17-.66.07-.17.48-.22.73-.32.47-.19,1.07-.11,1.29-.76,0-.14.39-.19.61-.23.54-.12,1.14,0,1.42-.75.08-.2.61-.18.91-.32a10.9,10.9,0,0,0,1.06-.58,1.89,1.89,0,0,1,.59-.32,19.65,19.65,0,0,0,1.91-.73c1.39-.29,2.48-1.35,3.93-1.38a1.71,1.71,0,0,0,1.4-.58c.22-.27.78-.24,1.17-.37.61-.22,1.22-.45,1.82-.69.13-.05.24-.24.34-.23,1.82.25,3.24-1.22,5-1.15a7.1,7.1,0,0,0,1.85-.56,16.13,16.13,0,0,1,1.81-.37c1.14-.17,2.39.19,3.38-.79.21-.21.74-.11,1.12-.13,1.48-.08,3-.12,4.45-.23.56,0,1.22-.08,1.14-.94h8.06l-.23,4.12c-.56,0-1,0-1.5,0a11.74,11.74,0,0,0-4.09.57,10.38,10.38,0,0,1-3.13.33c-1.15.08-2.3.07-3.45.19a11.26,11.26,0,0,0-1.72.52,9.14,9.14,0,0,1-1.38.29c-1.31.13-2.67-.12-3.85.8-.33.25-.93.14-1.41.21-.87.14-1.84,0-2.5.81-.1.14-.44.12-.68.15-.91.14-1.89,0-2.62.82-.19.22-.73.15-1.1.24-.58.13-1.19.05-1.64.69-.19.28-.87.25-1.33.33s-1.17,0-1.5.62a.71.71,0,0,1-.48.26,11.89,11.89,0,0,0-2.06.8,29.85,29.85,0,0,0-3.07,1.24c-.48.26-1.15.16-1.42.81a.53.53,0,0,1-.35.21,3,3,0,0,0-1.82.83c-.73.68-1.91.84-2.84,1.33a19.29,19.29,0,0,0-2,1.36c-.19.13-.35.37-.55.41-1.17.24-1.86,1.28-2.84,1.73-1.48.68-2.55,1.95-4.07,2.55a5.33,5.33,0,0,0-1.43,1.15,8.35,8.35,0,0,1-2.29,1.78A4.49,4.49,0,0,0,439,427a49.5,49.5,0,0,1-4,3.78c-1.25,1.13-2.19,2.6-3.48,3.66-.91.75-1.45,1.82-2.5,2.44a5.6,5.6,0,0,0-1,1.16,21.11,21.11,0,0,0-3.3,4.43c-.16.33-.58.53-.85.82-.9,1-1.31,2.31-2.18,3.23s-1,2.26-1.92,2.88-.84,1.88-1.73,2.59c-.68.55-.67,1.9-1.33,2.5-.88.82-.55,2.2-1.62,2.8,0,1.21-1.36,1.9-1.28,3.17a1.17,1.17,0,0,1-.37.75,2.68,2.68,0,0,0-.7,1.52,3.51,3.51,0,0,1-.55,1.07c0,.08-.19.15-.18.21.16,1.42-1.18,2.34-1.22,3.71,0,.41-.37.81-.58,1.21-.05.08-.18.15-.17.22.17,1.63-1.08,2.87-1.2,4.43a3.11,3.11,0,0,1-.74,2.26c-.25.24-.21.8-.25,1.22a4.76,4.76,0,0,1-.7,2.87c-.28.35-.19,1-.24,1.53-.12,1.32,0,2.68-.8,3.87a2.58,2.58,0,0,0-.2,1.26c-.07,1.63-.09,3.26-.16,4.89a4.05,4.05,0,0,1-.56,2.62,2,2,0,0,0-.15,1.12c0,3,0,6,0,9.07a7.38,7.38,0,0,0,.4,1.62,7.4,7.4,0,0,1,.26,1.39c.08,1.82.12,3.65.18,5.47a5.08,5.08,0,0,0,.56,2.18,8.21,8.21,0,0,1,.42,2.52,5.37,5.37,0,0,0,.68,2.86c.36.5.21,1.38.29,2.1a2.73,2.73,0,0,0,.53,1.72,3.5,3.5,0,0,1,.45,1.62c.15.77,0,1.63.79,2.19.17.12.14.53.19.81.13.78,0,1.64.79,2.2.2.14.19.62.23,1a2.56,2.56,0,0,0,.74,1.81c.21.17.22.59.29.91.11.49,0,1.05.61,1.35.17.08.25.5.28.77a2.74,2.74,0,0,0,.73,1.66,2.07,2.07,0,0,1,.37.9c.12.54,0,1.16.72,1.44.14.06.14.43.25.64.23.44.49.87.73,1.31a1.58,1.58,0,0,1,.29.6c.07,1.14,1,1.79,1.48,2.72.06.12.22.22.24.34.19,1.07,1.23,1.69,1.4,2.8.06.42.61.75.9,1.15.89,1.22,1.37,2.74,2.6,3.74a1,1,0,0,1,.27.48,5.33,5.33,0,0,0,1.75,2.34,7.16,7.16,0,0,1,1.18,1.66c.7,1.34,1.95,2.2,2.82,3.34.74,1,1.72,1.65,2.39,2.68a13.73,13.73,0,0,0,2.17,2.28,25.81,25.81,0,0,1,2.62,2.49c.43.54,1,.81,1.47,1.34a31.53,31.53,0,0,0,3,2.77c.59.53,1.47.74,2.06,1.37.36.38.88.63,1.23,1,1,1.11,2.6,1.47,3.55,2.67a.82.82,0,0,0,.49.22c1.1.14,1.61,1.13,2.45,1.65.11.07.18.28.27.29,1.35.11,2.07,1.33,3.16,1.81.86.37,1.64.85,2.47,1.25.44.21,1.07.1,1.23.77a.3.3,0,0,0,.22.16c1.27-.18,1.94,1.11,3.1,1.23.24,0,.46.27.69.42s.3.34.44.34c1.36-.08,2.3,1,3.56,1.21.05,0,.11,0,.14,0,1,.75,2.27.66,3.22,1.15s2,.49,2.83,1c1,.67,2.16.43,3,.91,1.36.77,2.93.5,4.18,1.09a12.93,12.93,0,0,0,4.59.84c.24,0,.56,0,.7.1.95.91,2.15.67,3.27.76,1.29.11,2.59.1,3.88.23.7.07,1.37.36,2.07.47.85.14,1.71.22,2.56.28s1.42,0,2.27,0a16.74,16.74,0,0,1-.1,4.15h-5.76a16.77,16.77,0,0,0-6.15-1.14c-1.09,0-2.28.25-3.25-.71-.26-.26-.92-.12-1.39-.17-1.26-.12-2.56.08-3.71-.8-.4-.3-1.11-.19-1.68-.28-.73-.1-1.57.11-2.06-.71a.27.27,0,0,0-.25-.11,9.65,9.65,0,0,1-3.89-1.09c-.72-.27-1.63,0-2.15-.83,0-.07-.17-.08-.26-.09a6.69,6.69,0,0,1-3-1c-.67-.43-1.67-.24-2.29-1-.16-.19-.65-.1-1-.21a7.78,7.78,0,0,1-1-.49c-.28-.14-.55-.3-.84-.43-.45-.2-1.09-.09-1.28-.75,0-.08-.14-.19-.21-.18-1.23.16-1.93-1-3-1.24-.39-.09-.73-.76-1.06-.74-1.22.09-1.79-1.05-2.83-1.33a7.78,7.78,0,0,1-2-1.33c-.15-.11-.28-.28-.44-.32-1.13-.24-1.86-1.12-2.74-1.75a1,1,0,0,0-.35-.22,5.53,5.53,0,0,1-2.49-1.76,1.11,1.11,0,0,0-.45-.3c-1.45-.35-2.17-1.7-3.34-2.43-.62-.39-1-1.24-1.67-1.4-1-.24-1.21-1.3-2.12-1.47-.46-1.12-1.9-1.35-2.3-2.53-1.4-.83-2.23-2.27-3.51-3.24a9.68,9.68,0,0,1-1.39-1.4c-.84-1-1.74-1.85-2.62-2.76a36.46,36.46,0,0,1-2.48-3.27c-.43-.56-.87-1.11-1.33-1.64s-1.12-.92-1.31-1.51a9.46,9.46,0,0,0-2-2.8c-.56-.7-.7-1.87-1.36-2.33-1-.66-.47-2.19-1.75-2.51a4.82,4.82,0,0,0-1.12-2.23,29.53,29.53,0,0,0-1.67-2.8,1.73,1.73,0,0,1-.26-.64c-.14-.53,0-1.16-.76-1.41-.16-.06-.19-.51-.28-.78-.13-.44-.07-1-.66-1.17a.31.31,0,0,1-.17-.22c0-1.32-1.12-2.17-1.28-3.43a3.75,3.75,0,0,0-.64-1.19c-.05-.08-.19-.15-.18-.21.2-1.42-1.06-2.37-1.15-3.74,0-.74-.67-1.42-.89-2.17s0-1.57-.69-2.25c-.34-.33-.28-1.08-.36-1.64a3,3,0,0,0-.71-2.11c-.26-.24-.25-.79-.3-1.21-.14-1.05,0-2.12-.74-3.11-.37-.47-.18-1.39-.23-2.1a5.82,5.82,0,0,0-.69-3.17,3.8,3.8,0,0,1-.31-1.81c-.09-2.06-.15-4.13-.19-6.19,0-.74-.27-1.2-1.07-1.21v-12.1Z" transform="translate(-400.59 -400.77)"/><path class="cls-1" d="M502,413.71v-3.65c.74-.05,1.39-.14,2-.14,1,0,1.92.05,2.88.08a2.46,2.46,0,0,1,1,.11c1.79,1,3.74.59,5.63.76a4.7,4.7,0,0,1,2.57.62c.55.4,1.48.26,2.24.36a4.84,4.84,0,0,1,2.7.72c.45.35,1.29.2,2,.29s1.33-.1,1.8.63c.14.23.69.23,1.06.29.78.13,1.62,0,2.2.8.17.23.71.2,1.09.26.63.12,1.34-.07,1.76.7.1.2.62.15.92.27.61.22,1.2.49,1.8.72a7.65,7.65,0,0,0,.92.31c.49.12,1.07,0,1.32.65,0,.14.4.2.62.25.59.13,1.27,0,1.55.78a.3.3,0,0,0,.23.15c1.17-.08,1.81,1.14,2.93,1.2.23,0,.45.27.66.43s.18.32.27.32c1.08,0,1.69,1.09,2.71,1.22a1.21,1.21,0,0,1,1,.67c.27.42.88.62,1.35.9.89.53,1.84,1,2.67,1.59.65.48,1.45.71,2,1.43a3.73,3.73,0,0,0,1.59,1.24,7.7,7.7,0,0,1,2.53,2A29.27,29.27,0,0,0,559,432a13.83,13.83,0,0,1,1.52,1.2c1,1,2,2,3,2.91.77.72,1.44,1.66,2.21,2.41,1.6,1.57,2.67,3.56,4.24,5.12a26.63,26.63,0,0,1,2.91,3.89c.32.46.85.78,1.1,1.36s.68.92.81,1.43,1.21.56,1,1.39c.93.49.71,1.83,1.7,2.3.15.07.16.43.23.65.17.47.14,1.06.78,1.26.1,0,.18.21.22.34a15.5,15.5,0,0,0,1.89,3.66c.56.87.65,2.05,1.22,2.91.68,1,.79,2.31,1.61,3.25a1.54,1.54,0,0,1,.25.8c.1.76.1,1.53.82,2.06.15.11.18.43.22.66a3.35,3.35,0,0,0,.84,2.36c.2.17.15.63.18,1,.08.71,0,1.45.68,2a.49.49,0,0,1,.19.38c-.09,2,1.29,3.67,1.17,5.68a2.84,2.84,0,0,0,.64,2.28c.22.23.19.73.22,1.11.09,1.19.11,2.4.25,3.58a18.48,18.48,0,0,0,.55,2,5,5,0,0,1,.22,1.26c0,5.8,0,11.61,0,17.42a6.25,6.25,0,0,1-.42,1.47,8.36,8.36,0,0,0-.32,1.38c-.11,1.19-.15,2.39-.25,3.59a3.33,3.33,0,0,1-.58,2c-.31.38-.24,1.09-.3,1.66-.12,1.08,0,2.19-.77,3.15-.23.28-.17.82-.21,1.25-.07.76,0,1.55-.72,2.09a.38.38,0,0,0-.11.26c.06,1.62-1,2.89-1.26,4.45a9.61,9.61,0,0,1-.91,2c-.25.67.17,1.6-.78,2,0,0-.06.07-.07.12a5.44,5.44,0,0,1-1,2.52c-.59.9-.56,2.29-1.27,3s-.59,2.11-1.63,2.71c-.18.11-.15.54-.28.79s-.35.6-.53.9a2.19,2.19,0,0,0-.35.58c-.42,1.59-1.78,2.65-2.3,4.18-1.08.49-.95,1.84-1.8,2.54-.46.38-.67,1-1.08,1.5-1.26,1.4-2.09,3.15-3.65,4.32-.59.45-.86,1.3-1.35,1.91-.76.94-1.58,1.85-2.39,2.75-.5.55-1,1.07-1.56,1.58-.88.84-1.78,1.66-2.68,2.49-.36.33-.7.68-1.07,1-1.27,1.12-2.62,2.15-4,3.15a12.91,12.91,0,0,0-1.48,1.56.77.77,0,0,1-.34.22c-1.15.24-1.8,1.14-2.58,1.9a3.13,3.13,0,0,1-1.19.68c-1.06.35-1.7,1.35-2.8,1.68a3.35,3.35,0,0,0-1.79,1.19c-.36.55-.77.58-1.25.74a4.54,4.54,0,0,0-.82.42,3.28,3.28,0,0,1-.66.41c-.54.15-1.15.13-1.38.83,0,.12-.31.21-.48.24-.62.09-1.21.16-1.57.81-.09.16-.53.12-.79.21s-.78.16-.88.38c-.29.61-.8.62-1.31.69s-.88.06-1,.59c0,0,0,.11-.07.11-1.38-.12-2.27,1.11-3.56,1.25-.54.06-1.2,0-1.45.69a.27.27,0,0,1-.24.13c-1.73-.19-3,1.34-4.71,1.26-.23,0-.58,0-.69.12-.73,1-1.81.65-2.76.83-.54.1-1,.37-1.57.51s-1.29.3-1.94.41c-1.11.18-2.3-.08-3.26.79-.24.21-.74.15-1.12.17-1.2.06-2.4.1-3.59.14a5.85,5.85,0,0,0-2.65.53,4.35,4.35,0,0,1-1.82.26c-1.34,0-2.67,0-4,0A8.21,8.21,0,0,1,502,586a3.18,3.18,0,0,1,.71-.22c2.47-.15,4.83-1.18,7.36-1a12.46,12.46,0,0,0,2.44-.09,13.74,13.74,0,0,0,1.6-.46,11.79,11.79,0,0,1,1.95-.38,6.66,6.66,0,0,0,3.57-.81,2.16,2.16,0,0,1,1-.21c1-.14,2,.1,2.79-.79.17-.2.64-.15,1-.18.9-.09,1.83,0,2.48-.87.14-.17.53-.16.81-.19.61-.09,1.24,0,1.68-.65.13-.19.5-.26.78-.29.75-.08,1.54,0,2-.84.08-.15.43-.19.66-.22a2.72,2.72,0,0,0,2-.76c.18-.2.64-.13.93-.26a7.38,7.38,0,0,0,1.07-.58c.12-.07.2-.3.28-.29,1.19.13,1.8-1,2.89-1.25a8.48,8.48,0,0,0,2.14-1.2c1.08-.58,2-1.55,3.22-1.79.59-.11.49-1.14,1.29-.91,1-1.1,2.46-1.42,3.43-2.55.55-.64,1.48-.92,2.15-1.47a7.11,7.11,0,0,0,1.78-1.56,3.14,3.14,0,0,1,1.31-1.14c1.56-.7,2.46-2.11,3.71-3.13s2.28-2.29,3.54-3.33c1-.84,1.61-2.2,2.55-3.19a22.71,22.71,0,0,1,2.4-2.7,4.09,4.09,0,0,0,1.23-1.59,7.76,7.76,0,0,1,1.84-2.48,16.23,16.23,0,0,0,1.32-2.13c1-1.29,1.42-2.89,2.57-4.06a.65.65,0,0,0,.2-.37c.09-1.1,1.33-1.69,1.28-2.85,1.1-.51.6-2,1.62-2.6.15-.09.16-.43.22-.65.14-.55.13-1.12.7-1.51a1.43,1.43,0,0,0,.36-.91,2.38,2.38,0,0,1,.7-1.66c.23-.21.23-.7.29-1.06s.08-.9.58-1.23c.29-.19.38-.74.45-1.15.11-.69,0-1.46.76-1.85a.17.17,0,0,0,.07-.12c-.26-1.76,1.18-3.07,1.22-4.75a2.9,2.9,0,0,1,.66-2.26c.29-.29.19-1,.24-1.52.11-1.18,0-2.38.77-3.44a3,3,0,0,0,.24-1.54c.08-1.15.07-2.31.19-3.45a14.69,14.69,0,0,1,.48-1.9,5.48,5.48,0,0,0,.23-1.26q0-6.54,0-13.1a6.15,6.15,0,0,0-.28-1.38,12.26,12.26,0,0,1-.43-1.63c-.1-1.1-.1-2.2-.16-3.3a5.52,5.52,0,0,0-.63-2.61,5.8,5.8,0,0,1-.37-2.09c-.14-1,.1-2-.71-2.83-.31-.34-.19-1.1-.24-1.67s0-1.45-.69-2c-.07-.06-.17-.15-.16-.23.1-1.55-.94-2.79-1.16-4.25-.09-.55,0-1.17-.66-1.48-.08,0-.2-.13-.2-.19,0-1.23-.76-2.2-1.15-3.29-.19-.51-.47-1-.68-1.5a10.24,10.24,0,0,1-.37-1.06c-.11-.4-.06-.84-.58-1.06-.18-.07-.26-.46-.33-.72-.12-.5-.08-1.07-.73-1.27-.07,0-.18-.14-.18-.21.07-1.12-1-1.72-1.23-2.72a4,4,0,0,0-1-1.66,3.78,3.78,0,0,1-1.12-2.17c-1-.2-1.08-1.19-1.42-1.8-.75-1.36-2.15-2.28-2.54-3.86-.8-.26-.91-1.16-1.56-1.64a10.52,10.52,0,0,1-2.14-2.61c-.57-.84-1.3-1.52-1.91-2.29-.75-.93-1.73-1.63-2.41-2.62a9.52,9.52,0,0,0-1.59-1.35c-.43-.38-.77-.85-1.21-1.24a19.13,19.13,0,0,0-2.4-2,24.26,24.26,0,0,1-2.66-2.22,15.65,15.65,0,0,0-1.88-1.5,7.52,7.52,0,0,1-2.23-1.69,1.6,1.6,0,0,0-.61-.31,7.34,7.34,0,0,1-2.38-1.71.93.93,0,0,0-.34-.23c-1.23-.23-2-1.35-3.07-1.72s-1.78-1.57-3.08-1.47c-.52-1.09-2-.58-2.61-1.6-.1-.16-.41-.24-.63-.28a7.77,7.77,0,0,1-1.66-.66c-1-.46-2.14-.78-3.18-1.32-.58-.31-1.42-.11-1.87-.81-1.46,0-2.62-.94-4-1.25-.86-.21-1.85.05-2.49-.82a.19.19,0,0,0-.13-.07c-2.16.25-4-1.33-6.11-1.18a3.36,3.36,0,0,1-2.32-.57,2.39,2.39,0,0,0-1.24-.27c-1.29-.07-2.59-.1-3.88-.14a8.94,8.94,0,0,1-3.38-.57,7.08,7.08,0,0,0-2-.23c-.56-.08-1.11-.2-1.7-.3Z" transform="translate(-400.59 -400.77)"/><path class="cls-2" d="M497.65,585.78v4c-2.19-.18-4.3.33-6.32-.61a4.35,4.35,0,0,0-1.55-.24c-1.34-.08-2.69-.06-4-.18a13.36,13.36,0,0,1-1.89-.53,14,14,0,0,0-1.8-.35,6.07,6.07,0,0,1-3.16-.77,2.61,2.61,0,0,0-1.25-.24c-.83-.08-1.67,0-2.36-.71-.26-.28-.91-.21-1.38-.26a2.92,2.92,0,0,1-2.1-.77.77.77,0,0,0-.5-.22,2.71,2.71,0,0,1-2.19-.81c-1.52.06-2.61-1.25-4.1-1.31a2.64,2.64,0,0,1-.91-.38c-.36-.17-.72-.34-1.08-.53s-.8-.45-1.19-.69c-.08,0-.13-.19-.2-.19-1.09,0-1.77-.88-2.73-1.15a4.31,4.31,0,0,1-1-.63c-.16-.1-.28-.32-.43-.34a5,5,0,0,1-3-1.75c-.09-.09-.26-.1-.4-.14a12.27,12.27,0,0,1-3.14-1.89c-1.11-.79-2.27-1.5-3.4-2.28-.36-.24-.63-.62-1-.87-1.08-.76-2.24-1.41-3.26-2.23s-1.7-1.65-2.56-2.46-1.7-1.47-2.5-2.25c-1.21-1.19-2.33-2.47-3.58-3.61-.9-.81-1.59-1.8-2.53-2.59a29.58,29.58,0,0,1-2.23-2.6c-1-1.09-1.52-2.59-2.79-3.5a4.58,4.58,0,0,1-1-1.48,27.35,27.35,0,0,0-2.41-4,37.74,37.74,0,0,1-2.4-3.92,6.42,6.42,0,0,1-1.49-2.91c0-.24-.26-.46-.42-.67s-.25-.18-.3-.29q-.65-1.61-1.26-3.21c-.12-.31-.13-.75-.35-.91a2.33,2.33,0,0,1-.77-1.76,2.21,2.21,0,0,0-.36-.72c-.07-.11-.32-.19-.31-.27.13-1.56-1.19-2.67-1.27-4.16a1.92,1.92,0,0,0-.61-1.54c-.25-.22-.27-.77-.32-1.18a2.91,2.91,0,0,0-.69-2.1c-.31-.29-.26-1-.35-1.5-.13-.88,0-1.82-.73-2.55-.2-.18-.16-.63-.18-1-.05-.76,0-1.54-.13-2.3a14.31,14.31,0,0,0-.45-1.46,12.72,12.72,0,0,1-.4-1.93c-.12-1.48-.13-3-.26-4.45a16.67,16.67,0,0,0-.46-2.07,6.73,6.73,0,0,1-.24-1.4c0-3.41,0-6.82,0-10.23a2,2,0,0,1,.07-.85c.94-1.94.66-4,.83-6.07a8.25,8.25,0,0,1,.73-3.59,6.73,6.73,0,0,0,.29-2.54,3.41,3.41,0,0,1,.6-2.15c.34-.41.24-1.19.32-1.8s0-1.53.72-2.09c.18-.15.22-.52.26-.8.14-.91-.08-1.93.82-2.6-.08-1.63,1.17-2.87,1.31-4.44,0-.42,0-.87.56-1.06a.45.45,0,0,0,.22-.33c0-.9.65-1.57.85-2.32.32-1.13,1-2.05,1.33-3.17a3.61,3.61,0,0,1,.65-1c.07-.12.25-.2.26-.31.17-1.74,1.67-2.85,2.11-4.45,1.11-.47.58-2.12,1.8-2.5a5.25,5.25,0,0,1,1.16-2.2c.53-.74,1-1.5,1.49-2.27.79-1.31,2-2.3,2.76-3.63a11.1,11.1,0,0,1,2.36-2.75,28.39,28.39,0,0,0,2.3-2.58c1.13-1.2,2.38-2.32,3.47-3.56.81-.93,1.87-1.57,2.62-2.57.4-.55,1.25-.77,1.64-1.32a11.43,11.43,0,0,1,2.39-2.12c.78-.62,1.58-1.21,2.38-1.81.42-.32.82-.66,1.26-1a34.29,34.29,0,0,1,3.92-2.67c.88-.46,1.53-1.28,2.57-1.52a3.29,3.29,0,0,0,1.82-1.1c.38-.53.83-.53,1.3-.71a4.25,4.25,0,0,0,.78-.49c.11-.08.17-.32.25-.32,1.15,0,1.81-1.06,2.88-1.22a3.05,3.05,0,0,0,.93-.51c.24-.14.47-.38.72-.41a2.21,2.21,0,0,0,1.71-.84c1.45.1,2.44-1.18,3.82-1.29a1.35,1.35,0,0,0,.79-.25,2.92,2.92,0,0,1,2-.72c.23,0,.57,0,.68-.13.75-.89,1.78-.82,2.77-.92.28,0,.67,0,.82-.21.69-.81,1.63-.65,2.5-.74.34,0,.77,0,1-.17.87-.82,2-.69,3-.79a4.87,4.87,0,0,0,2.72-.71,2.09,2.09,0,0,1,1.11-.21c1.05-.06,2.11-.09,3.16-.13a7.38,7.38,0,0,0,3.22-.6,4.72,4.72,0,0,1,2-.23c1.24,0,2.47,0,3.81,0v3.77a2,2,0,0,1-.44.2c-3.32.3-6.59,1.18-10,1a3.23,3.23,0,0,0-1.74.46,6.28,6.28,0,0,1-2.37.41,5.39,5.39,0,0,0-3,.75,2.58,2.58,0,0,1-1.1.26c-1,.13-2-.12-2.77.79-.12.15-.45.15-.69.15a3.78,3.78,0,0,0-2.52.78,2.72,2.72,0,0,1-1.22.32c-.5.1-1,0-1.41.55a1.71,1.71,0,0,1-1,.39c-.7.1-1.46,0-1.82.84a.26.26,0,0,1-.24.13c-1.28-.2-2.08.93-3.26,1.16a13.06,13.06,0,0,0-3.19,1.64,14.51,14.51,0,0,0-2.56,1.36c-.82.67-2,.65-2.63,1.6a.36.36,0,0,1-.22.16,8.14,8.14,0,0,0-3.05,1.92c-.58.45-1.37.71-2,1.25-.45.4-1.14.57-1.51,1-.95,1.13-2.65,1.35-3.28,2.82-1.7.75-2.6,2.48-4.2,3.4a11.61,11.61,0,0,0-2.45,2.26c-1.39,1.48-2.81,2.93-4.06,4.52-.9,1.16-1.94,2.17-2.85,3.3a23.21,23.21,0,0,1-1.32,2,19.84,19.84,0,0,0-1.45,1.93,2.05,2.05,0,0,0-.34.45,15.74,15.74,0,0,1-1.85,2.84c-.53.89-1,1.83-1.49,2.74-.26.47-.57.9-.85,1.36s-.52.86-.74,1.32a15.38,15.38,0,0,1-1.37,2.86c-.8,1-.66,2.46-1.69,3.35-.2.17-.18.62-.24.94s0,.9-.53,1.06c-.08,0-.21.13-.2.19.14,1.59-1.31,2.68-1.31,4.24a1.75,1.75,0,0,1-.61,1.52c-.28.22-.25.87-.32,1.33a2.51,2.51,0,0,1-.64,1.82c-.31.3-.3,1-.39,1.48-.15.91.12,1.91-.73,2.67-.2.16-.15.63-.17,1-.05.76-.06,1.53-.11,2.3,0,.38,0,.85-.19,1.11a5,5,0,0,0-.76,3.15c-.07,1.34-.07,2.69-.13,4a8.81,8.81,0,0,1-.56,3.66,2.19,2.19,0,0,0-.15,1c.07,2.33-.41,4.7.55,7a3.54,3.54,0,0,1,.1,1.14c.07,1.82.11,3.65.2,5.47a5.91,5.91,0,0,0,.7,3,6,6,0,0,1,.29,2.25c.12,1-.08,1.94.7,2.83.36.41.19,1.29.26,2s0,1.36.66,1.8c.08,0,.18.15.17.22-.1,1.56.88,2.82,1.14,4.27.12.64,0,1.32.7,1.78.24.16.29.68.36,1.05.13.62-.06,1.36.76,1.7.13.06.13.44.18.67.1.54,0,1.18.69,1.46.07,0,.11.15.14.23.42,1.09.79,2.19,1.24,3.26a7.62,7.62,0,0,0,1.25,2.32c.53.54.51,1.24.86,1.72a13.46,13.46,0,0,1,1,1.63,21.45,21.45,0,0,0,1.25,2.07c1,1.39,1.93,2.76,2.77,4.23a4.35,4.35,0,0,0,.86,1c1.1,1,1.72,2.39,2.73,3.5a53.28,53.28,0,0,1,3.52,4.09,26.37,26.37,0,0,0,3.5,3.59,27.06,27.06,0,0,1,2.87,2.38c1.08,1.34,2.54,2.2,3.7,3.43a23.31,23.31,0,0,0,2,1.39c.44.36,1.13.54,1.37,1,.54,1,1.8.84,2.44,1.77.46.66,1.73.71,2.31,1.34s1.79.81,2.53,1.54a32.55,32.55,0,0,0,4.26,2.26,6.16,6.16,0,0,1,1.85.92,23.1,23.1,0,0,0,3.08,1.18c.53.22,1,.68,1.51.88s1.4,0,1.78.39c.64.6,1.4.48,2.06.76a11.09,11.09,0,0,0,4,1.17c.67.93,1.7.67,2.61.8a2.86,2.86,0,0,1,1.24.27,5.43,5.43,0,0,0,3,.73c1,.1,2-.09,2.84.72.19.19.64.14,1,.16l3.89.13a7.16,7.16,0,0,1,3.22.57,3.52,3.52,0,0,0,1.27.16l2.25.17Z" transform="translate(-400.59 -400.77)"/><path class="cls-2" d="M497.64,418.91v3.89a4.08,4.08,0,0,1-2.89.93c-1.92,0-3.84.08-5.75.17a8.94,8.94,0,0,0-1.68.34,21.25,21.25,0,0,1-2.18.58c-1.12.16-2.3,0-3.29.78a1.67,1.67,0,0,1-.83.17c-1,.11-2,0-2.8.78-.25.25-.81.2-1.24.26a2.51,2.51,0,0,0-1.7.63,1.39,1.39,0,0,1-.77.34,5.09,5.09,0,0,0-2.19.76,18.37,18.37,0,0,1-3.77,1.38,5.52,5.52,0,0,0-.72.38,8.45,8.45,0,0,1-.95.48c-.44.15-1,.09-1.16.68,0,.08-.13.21-.18.21-1.13-.11-1.76.9-2.72,1.22a10.2,10.2,0,0,0-2.17,1.36,3.82,3.82,0,0,1-.82.48c-.49.14-1.06.1-1.19.81,0,.13-.38.2-.59.28a6.82,6.82,0,0,0-2.3,1.64,4.85,4.85,0,0,1-1.58,1.19,8.43,8.43,0,0,0-2.44,1.84c-1.28,1-2.38,2.21-3.7,3.17a27,27,0,0,0-4.21,4.14c-.93,1.06-1.87,2.11-2.78,3.17a13.09,13.09,0,0,0-2.45,3.18,4.72,4.72,0,0,1-1.41,1.77A3.89,3.89,0,0,0,436,457.6c-.33.91-1.13,1.51-1.4,2.45a2.72,2.72,0,0,1-.92,1.51c-1,.64-.59,2.1-1.69,2.63-.15.07-.15.43-.22.66-.14.43,0,1-.67,1.13-.07,0-.19.14-.18.21.12,1.22-1.07,1.94-1.17,3.09a4,4,0,0,1-.37.9c-.21.51-.43,1-.6,1.55s-.05.93-.62,1.21c-.2.1-.26.57-.33.89-.16.78-.07,1.66-.89,2.17a.13.13,0,0,0-.05.12c.06,1.41-.67,2.6-1,3.89-.32,1.12-.25,2.3-.85,3.42a7.08,7.08,0,0,0-.29,2.69,2.91,2.91,0,0,1-.56,2,2.18,2.18,0,0,0-.26,1.23,179.59,179.59,0,0,0,0,21,6.59,6.59,0,0,0,.46,1.45,6.87,6.87,0,0,1,.32,1.22c.09.91-.16,2,.21,2.7.72,1.43.52,3,1.09,4.38.45,1.07.45,2.26,1,3.16s.5,2.28,1.08,3.13.45,1.78.94,2.39.53,1.69,1,2.28c.73.86.44,2.19,1.51,2.84.15.09.14.43.21.65.16.48.1,1.07.75,1.29a.63.63,0,0,1,.27.45c.1,1.15,1,1.86,1.53,2.75a3.11,3.11,0,0,1,.38.59,12.87,12.87,0,0,0,2.38,3.92c1,1.27,1.82,2.65,2.81,3.91a11.82,11.82,0,0,0,1.19,1.25c1.42,1.33,2.48,3,3.86,4.31,1,1,2,2,3,2.91s1.86,1.73,2.84,2.49,1.86,2.26,3.4,2.55c.38.69,1.37.68,1.68,1.48a.63.63,0,0,0,.4.33,4.68,4.68,0,0,1,2.62,1.84.57.57,0,0,0,.38.18,4.92,4.92,0,0,1,2.76,1.66.83.83,0,0,0,.23.15,10.26,10.26,0,0,1,3,1.34c.82.75,2,.64,2.69,1.54,0,0,.06.1.1.1,1.13,0,2,.79,3,1.16.68.25,1.54.08,2,.9.06.11.36.1.55.12a3.16,3.16,0,0,1,2.24.78c.19.2.62.19.95.25a3.36,3.36,0,0,1,2.23.78c.26.27.9.21,1.37.24a4.48,4.48,0,0,1,2.32.61,3.38,3.38,0,0,0,1.51.32c1.32.13,2.68,0,3.87.86a2.43,2.43,0,0,0,1.26.16l6.05.18a7.71,7.71,0,0,1,1.28.1,1.27,1.27,0,0,1,1.16,1.27c0,1.09-.06,2.18-.1,3.41-1.62-.18-3.11.33-4.48-.62a2.37,2.37,0,0,0-1.12-.16c-1.3-.06-2.59-.08-3.89-.14a5.06,5.06,0,0,1-2.73-.65,5.37,5.37,0,0,0-2.09-.37c-1-.13-2,.13-2.83-.73-.28-.29-1-.17-1.53-.21a3,3,0,0,1-2.12-.68,1.64,1.64,0,0,0-.78-.3c-.9-.17-1.92,0-2.58-.9-.12-.16-.55-.09-.83-.14s-.83,0-1.1-.24a3.93,3.93,0,0,0-2.33-.91c-.7-1.08-2.11-.68-3-1.52s-2.11-.78-3-1.39-1.91-.73-2.59-1.55c-.08-.11-.22-.24-.33-.24-1.11,0-1.7-1-2.69-1.3a3.48,3.48,0,0,1-1.22-.88c-1.14-1-2.77-1.37-3.75-2.69A4.87,4.87,0,0,0,451,564a14.94,14.94,0,0,1-3.4-2.9c-.85-.9-2-1.53-2.93-2.36a39.58,39.58,0,0,1-4.11-4.18c-.81-1-1.61-2-2.48-2.87a10.51,10.51,0,0,1-2.49-3.13c-.27-.67-1-1.16-1.41-1.78s-.94-1.43-1.42-2.15l-1.32-2c-.23-.34-.66-.71-.62-1,.08-.79-.8-.76-.94-1.34s-.05-1.19-.72-1.46c-.08,0-.19-.09-.22-.17a11.77,11.77,0,0,0-1.26-2.76c-.77-1-.64-2.34-1.65-3.14-.15-.12-.15-.43-.22-.66-.15-.53-.07-1.16-.72-1.47-.12-.06-.19-.32-.21-.5a3.18,3.18,0,0,0-.9-2.34c.12-1.63-1.4-2.79-1.28-4.45,0-.45-.34-.94-.54-1.41-.06-.13-.23-.24-.22-.35.15-2.11-1.35-3.87-1.2-6a2.81,2.81,0,0,0-.58-2.29c-.25-.26-.23-.81-.25-1.24-.07-1.43-.05-2.88-.18-4.31-.1-1.13-.38-2.25-.57-3.37a9.12,9.12,0,0,1-.15-1.28c0-1.73-.06-3.46,0-5.18a11.88,11.88,0,0,1,.48-3.53,15,15,0,0,0,.33-3.57c.07-1.1.07-2.21.13-3.31,0-.38,0-.88.18-1.11.81-.89.61-2,.69-3a4.69,4.69,0,0,1,.63-2.47,2.88,2.88,0,0,0,.34-1.22c.13-.88,0-1.82.78-2.52.17-.15.17-.54.19-.82a3.49,3.49,0,0,1,.87-2.65c.15-.13.14-.44.18-.68a2.63,2.63,0,0,1,.67-1.83,1.74,1.74,0,0,0,.32-.92c.12-.59,0-1.26.7-1.62.15-.07.16-.42.23-.64.17-.57.08-1.28.82-1.56.06,0,.12-.16.12-.25-.07-1.21.87-2.05,1.31-3s.58-2,1.51-2.57a.63.63,0,0,0,.16-.23c.44-.95.84-1.92,1.31-2.85a4.53,4.53,0,0,1,.88-1.2c1.1-1.06,1.33-2.74,2.66-3.67a3.49,3.49,0,0,0,1.06-1.41,11.87,11.87,0,0,1,3-3.68,23.69,23.69,0,0,0,2.15-2.69,37.89,37.89,0,0,1,5.4-5.27,14.49,14.49,0,0,0,2.75-2.51c.42-.57,1.24-.82,1.79-1.31a26.13,26.13,0,0,0,2.17-1.67,10.77,10.77,0,0,1,2.29-1.42c.48-.29,1.15-.51,1.37-.95.54-1,2-.7,2.44-1.73,0-.07.16-.11.24-.12,1.38-.24,2.35-1.26,3.53-1.87.95-.49,1.95-.85,2.93-1.28a5.56,5.56,0,0,0,.87-.46c.16-.1.29-.41.4-.39,1.27.18,2-1.06,3.24-1.12.28,0,.55-.29.84-.44a3.79,3.79,0,0,1,1-.48c.77-.14,1.62,0,2.14-.82.07-.11.36-.1.55-.12a4.79,4.79,0,0,0,2.81-.87c.27-.24.82-.2,1.24-.26a3.7,3.7,0,0,0,2.4-.68c.36-.34,1.18-.21,1.8-.26a5.26,5.26,0,0,0,3.15-.76,2.69,2.69,0,0,1,1.39-.24c1.15-.07,2.3-.08,3.45-.14a8.4,8.4,0,0,0,3.05-.57c1-.43,2.25-.2,3.66-.27Z" transform="translate(-400.59 -400.77)"/><path class="cls-1" d="M501.93,577.19a3.73,3.73,0,0,1,3.29-1.25c1.58,0,3.17-.07,4.75-.12a6.59,6.59,0,0,0,2.9-.62,9.21,9.21,0,0,1,2.67-.41c.83-.12,1.69.07,2.41-.67.28-.3,1-.21,1.52-.25a3,3,0,0,0,2.14-.66,1.73,1.73,0,0,1,.79-.28c.9-.19,1.93,0,2.58-.94.09-.13.45-.1.68-.11a2.82,2.82,0,0,0,2-.72c.2-.2.6-.21.92-.31.48-.15,1.09,0,1.32-.69,0-.07.13-.18.2-.17,1,0,1.78-.71,2.68-1,.49-.18,1-.16,1.34-.7.06-.11.22-.17.35-.23,1-.42,2.2-.59,2.84-1.3s1.91-.75,2.62-1.66c.52-.65,1.58-.87,2.37-1.33a4.69,4.69,0,0,0,1.11-.87c1.05-1.13,2.61-1.52,3.61-2.78.77-1,2-1.53,3-2.35s1.81-1.69,2.72-2.53,1.75-1.61,2.61-2.43a10.72,10.72,0,0,0,1.2-1.23,40.26,40.26,0,0,0,3.37-4.42,8.27,8.27,0,0,1,1.4-1.37,1.71,1.71,0,0,0,.37-.56,10.63,10.63,0,0,1,1.79-2.49,6.09,6.09,0,0,0,.92-1.37c.51-.91,1-1.86,1.46-2.77a15.87,15.87,0,0,0,1.15-2c.33-.85,1-1.55,1.43-2.38.51-1,.89-2.15,1.32-3.23.13-.31.15-.78.37-.9.58-.32.57-.84.63-1.34s0-.88.56-1.06a.29.29,0,0,0,.18-.2c-.07-1.57,1.22-2.73,1.29-4.26a5.78,5.78,0,0,1,.51-1.42,9.51,9.51,0,0,0,.43-1.47,4.92,4.92,0,0,1,.75-2.58c.26-.31.19-.91.24-1.38.13-1.07-.11-2.2.74-3.12.19-.21.14-.65.16-1,0-1,.06-1.92.14-2.88.11-1.37.35-2.73.59-4.09a31.31,31.31,0,0,0,0-10.88,54.61,54.61,0,0,1-.68-5.82,5,5,0,0,0-.69-3c-.37-.49-.2-1.39-.25-2.11a3.34,3.34,0,0,0-.59-2.15c-.25-.29-.23-.81-.32-1.23-.18-.91,0-1.93-.85-2.64-.18-.13-.16-.54-.19-.82-.09-.79,0-1.61-.76-2.19-.24-.17-.19-.72-.28-1.09-.13-.58,0-1.28-.73-1.59a.33.33,0,0,1-.17-.23,5.18,5.18,0,0,0-.9-2.42,22.57,22.57,0,0,1-1.32-3.38c-.26-.65-1-1-1-1.85-.93-.52-.68-1.86-1.64-2.35a.47.47,0,0,1-.15-.39c.08-.93-.84-1.27-1.13-2a6,6,0,0,0-1.12-2.05,13.37,13.37,0,0,1-2.11-3c-.5-.81-1.36-1.46-1.92-2.33a24.18,24.18,0,0,0-1.86-2.21,18.44,18.44,0,0,0-1.23-1.54c-1-1-1.93-2.07-2.95-3-1.4-1.3-2.77-2.65-4.23-3.89-.63-.53-1.39-.9-2-1.4s-1.1-1-1.65-1.48a1.72,1.72,0,0,0-.56-.34,9.09,9.09,0,0,1-2.4-1.75,22.5,22.5,0,0,0-2.37-1.42A9,9,0,0,0,539,434a2.73,2.73,0,0,1-1.36-.88c-.39-.51-1.22-.47-1.82-1a11.92,11.92,0,0,0-3-1.36c-.26-.11-.66-.15-.75-.34-.27-.57-.77-.48-1.22-.57s-.87,0-1.06-.57a.64.64,0,0,0-.47-.28,3.84,3.84,0,0,1-2.32-1c-1.61.11-2.78-1.32-4.39-1.27-.34,0-.68-.26-1-.38a11.52,11.52,0,0,0-1.61-.5c-.86-.16-1.78.05-2.53-.73-.26-.26-.91-.16-1.39-.21a8,8,0,0,1-3.74-.79,3.7,3.7,0,0,0-1.69-.25c-2.06-.08-4.12-.12-6.18-.18-1.84-.06-2.5-.71-2.5-2.48,0-2.23.05-2.29,2.24-2.24.94,0,1.92-.13,2.74.59.21.18.64.13,1,.15,1.19,0,2.39.07,3.59.12a6.57,6.57,0,0,1,3,.67,7.28,7.28,0,0,0,2.52.39,3.17,3.17,0,0,1,2.12.62c.38.34,1.18.23,1.8.3s1.43,0,2,.67c.16.22.6.25.92.31.81.16,1.73-.07,2.31.83.1.17.53.15.82.18.75.07,1.53,0,2,.81.08.15.43.15.66.21.54.13,1.12.05,1.52.65.15.24.7.21,1,.35s.93.4,1.39.61a6.47,6.47,0,0,0,.75.36c.54.15,1.15.14,1.44.77a.48.48,0,0,0,.36.21,3,3,0,0,1,1.84.89c.48.43,1.24.47,1.82,1s1.7.69,2.36,1.26a24.63,24.63,0,0,0,2.42,1.49c1.22.83,2.16,2.07,3.64,2.52.57.17.61,1.12,1.4,1,1.3,1.67,3.17,2.69,4.75,4,.87.74,1.57,1.68,2.38,2.49s1.77,1.61,2.61,2.45a8.31,8.31,0,0,1,1.28,1.56,16.75,16.75,0,0,0,2.89,3.4,15.22,15.22,0,0,1,1.27,1.83,10.71,10.71,0,0,0,1.67,2.15,3.67,3.67,0,0,1,1,1.44,22.56,22.56,0,0,0,2.41,4.12c.58.86.64,2.06,1.65,2.65.18.11.17.53.25.81s.06.87.61,1a.61.61,0,0,1,.3.43,5.5,5.5,0,0,0,.8,1.85,17.85,17.85,0,0,1,1.35,3.67,9.37,9.37,0,0,0,.4.85,3.85,3.85,0,0,1,.44.82,3.92,3.92,0,0,0,.89,2.36c.25.24.2.81.25,1.23.08.61,0,1.26.65,1.66a.49.49,0,0,1,.18.37c-.08,2.17,1.51,4,1.24,6.25-.06.44.31.94.47,1.42a5.85,5.85,0,0,1,.32,1.21c.08,1.1,0,2.21.16,3.3.09.84.39,1.66.56,2.49a10.47,10.47,0,0,1,.32,2c0,3.93.05,7.87,0,11.8a16.53,16.53,0,0,1-.55,2.64,19.09,19.09,0,0,0-.34,2.12c-.08,1.05,0,2.12-.15,3.16a8.53,8.53,0,0,1-.49,1.42,11.47,11.47,0,0,0-.33,1.65c-.14,1.18,0,2.4-.84,3.42-.21.25-.17.73-.22,1.11-.09.74.06,1.55-.72,2.05a.17.17,0,0,0-.06.12c.06,1.53-.87,2.75-1.23,4.15-.15.57.06,1.3-.74,1.57a.3.3,0,0,0-.12.24c.19,1.4-1,2.32-1.23,3.6-.08.54-.63,1-.83,1.52s0,1.27-.81,1.52a.27.27,0,0,0-.14.23c.1,1.14-.93,1.76-1.26,2.72s-1.21,1.57-1.54,2.46-1.08,1.66-1.49,2.58a5,5,0,0,1-1.52,2,3.91,3.91,0,0,0-1,1.45,13.33,13.33,0,0,1-3,3.69c-.6.61-.93,1.5-1.48,2.18-.7.87-1.49,1.67-2.27,2.47s-1.84,1.75-2.67,2.74a13.07,13.07,0,0,1-2.6,2.19,23.17,23.17,0,0,0-3.37,2.89,15.4,15.4,0,0,1-2,1.4,13.63,13.63,0,0,0-2,1.51,11.61,11.61,0,0,1-2.23,1.38,37.93,37.93,0,0,1-4.1,2.52,17.39,17.39,0,0,1-3.11,1.56,12.38,12.38,0,0,0-2.79,1.45,2.76,2.76,0,0,1-.88.43c-.71.11-1.42.11-1.89.81-.12.17-.55.09-.82.19s-.82.4-1.23.58a4.27,4.27,0,0,1-1.05.42c-.73.11-1.53,0-2,.79-.06.11-.35.1-.54.13a4.71,4.71,0,0,0-2.8.87c-.29.27-.91.2-1.38.26-.79.1-1.58,0-2.25.68-.29.29-1,.19-1.52.23-1.23.1-2.48,0-3.58.81a2.73,2.73,0,0,1-1.4.22c-1.25.06-2.49.09-3.74.14a9,9,0,0,0-2,.45,12.53,12.53,0,0,1-3.68.21c-.23,0-.59-.61-.63-1a20.14,20.14,0,0,1,0-2.44Z" transform="translate(-400.59 -400.77)"/><path class="cls-2" d="M497.43,567.05a7.09,7.09,0,0,1,.3,3.48c-.07.86-.52,1.18-1.27.89-1.53-.58-3.12-.4-4.68-.54-1-.09-1.92-.09-2.88-.15a1.92,1.92,0,0,1-1-.16c-1-.83-2.26-.68-3.44-.77a2.61,2.61,0,0,1-2-.65c-.26-.27-.91-.19-1.38-.25-.84-.1-1.73,0-2.36-.8-.15-.18-.53-.18-.8-.22-.83-.13-1.75,0-2.33-.84-.09-.14-.44-.1-.68-.14a2.09,2.09,0,0,1-1.53-.64,1.78,1.78,0,0,0-1-.41c-.64-.12-1.34,0-1.71-.78-.06-.14-.44-.12-.67-.17-.49-.11-1.07,0-1.28-.72,0-.15-.37-.25-.58-.3-.58-.13-1.27,0-1.5-.81,0-.06-.15-.11-.24-.13-.64-.13-1.26-.15-1.69-.86-.28-.46-1-.64-1.51-.88-.87-.42-1.61-1-2.47-1.47a19.55,19.55,0,0,1-3.16-2.29c-.22-.17-.41-.42-.65-.5-1-.33-1.51-1.23-2.29-1.76-1.09-.74-1.91-1.75-3-2.52a30.72,30.72,0,0,1-3.73-3.58c-.52-.54-.84-1.33-1.43-1.74s-.7-1.36-1.53-1.52c-.54-1.2-1.72-1.9-2.33-3.09a24.76,24.76,0,0,0-2.32-3.15,10.36,10.36,0,0,1-.58-1c-.48-.81-1-1.6-1.41-2.45s-1.48-1.64-1.59-2.83c0-.19-.26-.36-.38-.55a5.77,5.77,0,0,1-.6-1.08c-.12-.4,0-.87-.58-1-.08,0-.2-.13-.19-.19,0-1.35-1.27-2.21-1.3-3.56,0-.36-.34-.72-.54-1.07,0-.07-.2-.13-.2-.18.11-1.27-.93-2.15-1.13-3.3-.16-.93-.07-1.91-.88-2.65-.16-.14-.1-.54-.13-.83a4.87,4.87,0,0,0-.68-2.56,5,5,0,0,1-.33-2.1,5.87,5.87,0,0,0-.72-3,2.5,2.5,0,0,1-.22-1.25,196,196,0,0,1,0-20.28,2.55,2.55,0,0,1,.25-1.25,4.67,4.67,0,0,0,.65-2.45c.12-1.17-.07-2.41.84-3.4.16-.17.12-.55.14-.84.09-.88,0-1.8.73-2.53.23-.21.19-.72.24-1.09.11-.81.11-1.65.84-2.21,0,0,.09-.08.09-.11-.14-1.3,1-2.15,1.15-3.37a2,2,0,0,1,.44-1.18,2.42,2.42,0,0,0,.62-1.39,3.4,3.4,0,0,1,.51-.93,2.45,2.45,0,0,0,.33-.58c.11-.62.15-1.25.84-1.55a.51.51,0,0,0,.21-.36,2.1,2.1,0,0,1,.78-1.58c.43-.3.47-1,.88-1.53a22.46,22.46,0,0,0,1.41-2.44c.46-.73,1-1.37,1.56-2.07s.81-1.1,1.18-1.68a28.83,28.83,0,0,1,2.95-3.57c1.14-1.3,2.22-2.66,3.38-3.94a13.63,13.63,0,0,1,3.34-2.94,5.61,5.61,0,0,0,1.46-1.38c.71-.85,1.8-1.3,2.37-2.28.94,0,1.46-.78,2.15-1.23.44-.29.83-.64,1.24-1a11,11,0,0,1,1.2-.86,5.26,5.26,0,0,0,1.23-.86,10.38,10.38,0,0,1,2.16-1.24c.31-.17.58-.39.88-.57a5.46,5.46,0,0,1,.87-.44c.42-.14,1,0,1.1-.7,0-.09.31-.18.48-.22.63-.13,1.39,0,1.62-.89,0,0,.08-.07.12-.06,1.24.12,2-1.2,3.21-1.14a.92.92,0,0,0,.55-.13,4.25,4.25,0,0,1,2.59-1c.73-1,1.84-.82,2.86-1a.74.74,0,0,0,.49-.24c.51-.65,1.24-.63,1.95-.72s1.59,0,2.27-.67c.27-.27.9-.2,1.37-.24,1.18-.12,2.4,0,3.46-.75a2.4,2.4,0,0,1,1.25-.2c1.68-.1,3.36-.15,5-.28a13.58,13.58,0,0,0,2.1-.37c1-.24,1.43,0,1.49.95s0,2.18-.07,3.39l-1.56.1c-1.63,0-3.27.06-4.89.15a6.06,6.06,0,0,0-2.76.64,7.25,7.25,0,0,1-2.38.35c-.83.12-1.7-.09-2.4.69-.27.29-1,.19-1.52.23-.67,0-1.35,0-1.82.65a.66.66,0,0,1-.38.19,10.4,10.4,0,0,0-3.29,1.07c-.67.38-1.71,0-2.21,1-.07.14-.44.14-.67.18-.52.08-1.07,0-1.37.6a.77.77,0,0,1-.49.27c-1.44.23-2.49,1.27-3.75,1.79-1,.41-1.84,1.05-2.78,1.51-.77.38-1.56.89-2.33,1.35-1.34.79-2.34,2-3.76,2.72a14.25,14.25,0,0,0-2.58,2.12c-.54.47-1.05,1-1.59,1.45-1.05.91-2.19,1.73-3.15,2.73s-1.52,2.07-2.36,3-1.71,1.55-2.38,2.45c-.51.67-1.25,1.15-1.54,2a3.6,3.6,0,0,1-1.11,1.72c-1,.71-1.15,1.85-1.8,2.72a8.41,8.41,0,0,0-.94,1.3c-.22.44-.13,1-.77,1.25-.16.06-.17.51-.28.76s-.34.67-.51,1a8.48,8.48,0,0,0-.52.93c-.16.43-.09.92-.64,1.2-.2.09-.21.57-.3.87s0,1-.65,1.17c-.08,0-.21.12-.21.18.07,1.24-1,2.07-1.15,3.24-.07.66,0,1.38-.74,1.75a.26.26,0,0,0-.15.23c.17,1.61-1.1,2.86-1.13,4.43a4.35,4.35,0,0,1-.65,2.44,4.82,4.82,0,0,0-.37,2.09c-.11,1.18,0,2.39-.71,3.46a2.47,2.47,0,0,0-.19,1.26c0,5.28,0,10.56,0,15.84a9.51,9.51,0,0,0,.47,1.91,18.63,18.63,0,0,1,.36,2.09c.13,1.22,0,2.48.82,3.57.25.33.15.92.23,1.39.13.81-.14,1.73.75,2.34.19.13.15.63.2,1,.09.73-.06,1.55.78,2,.15.09.19.43.22.66.14.83,0,1.73.9,2.31.16.1.18.55.13.82-.14.83.71,1,1,1.61s-.17,1.31.64,1.61c.08,0,.19.13.19.19,0,1.08,1,1.7,1.16,2.63.13.74.83,1,1,1.6a2.16,2.16,0,0,0,.88,1.51,3.28,3.28,0,0,1,.93,1.53,12.32,12.32,0,0,0,2,2.73c.46.59.63,1.38,1.28,1.92.46.37.65,1.09,1.13,1.44a29.73,29.73,0,0,1,2.4,2.5c.61.56.83,1.41,1.56,1.95,1.18.88,2.23,2,3.33,3,.89.81,1.76,1.64,2.66,2.44a8.84,8.84,0,0,0,1.58,1.23,12.28,12.28,0,0,1,2.48,1.88,14.15,14.15,0,0,0,2.13,1.28c.49.3.93.66,1.44.91a3.28,3.28,0,0,1,1.39.89c.4.5,1.24.41,1.85.9a12,12,0,0,0,2.89,1.35l.89.42a9.06,9.06,0,0,0,1.1.5c.49.15,1,.11,1.33.7.14.26.74.31,1.15.38.61.09,1.26,0,1.64.68,0,0,.06.11.09.11,1.6-.18,2.77,1.14,4.29,1.23a3.25,3.25,0,0,1,2.13.61c.4.33,1.18.25,1.79.3a6.69,6.69,0,0,1,3.32.69,4,4,0,0,0,2,.32c1.58.07,3.17.09,4.75.14.47,0,.94.07,1.39.1Z" transform="translate(-400.59 -400.77)"/><path class="cls-1" d="M501.9,570.6c0-.68,0-1.35,0-2a1.63,1.63,0,0,1,1.64-1.62c1.43-.06,2.87-.08,4.31-.13a8.06,8.06,0,0,0,3.46-.7,8.61,8.61,0,0,1,2.68-.34c.69-.07,1.38.05,2-.61.27-.3,1-.22,1.51-.28.84-.09,1.74,0,2.36-.8.11-.15.42-.18.65-.22.86-.14,1.83.08,2.44-.86.08-.13.44-.09.68-.12a2,2,0,0,0,1.53-.62c.23-.29.76-.36,1.17-.46s1.14-.05,1.48-.69c.09-.17.51-.15.75-.27.41-.2.81-.43,1.2-.66.12-.07.23-.26.33-.25,1.2.14,1.81-1,2.87-1.28.72-.18,1.3-.94,1.94-1.43.15-.11.29-.27.45-.29a5.44,5.44,0,0,0,2.73-1.74,1.31,1.31,0,0,1,.49-.27,6.07,6.07,0,0,0,2.31-1.77,9.21,9.21,0,0,1,1.75-1.27,10.67,10.67,0,0,0,3.1-2.73c.35-.47.91-.6,1.28-1.16.6-.91,1.73-1.45,2.5-2.28s1.57-2.08,2.39-3.09,1.67-1.89,2.45-2.88c.54-.69,1-1.46,1.45-2.2a8.59,8.59,0,0,0,.87-1.32c.23-.52.67-1,.86-1.4.36-.84,1.28-1.36,1.31-2.38,0-.22.3-.43.45-.64a2.26,2.26,0,0,0,.44-.65c.17-.57.06-1.25.81-1.53.12,0,.12-.43.17-.66.11-.5,0-1.09.73-1.26.07,0,.18-.14.17-.2-.15-1.31,1.22-2.08,1.16-3.37a1.25,1.25,0,0,1,.65-1.34c.08,0,.18-.14.18-.2-.07-1.51,1-2.7,1.15-4.13a4.32,4.32,0,0,1,.6-2.16,4.14,4.14,0,0,0,.42-1.79c.14-1.07-.06-2.19.76-3.12.21-.24.15-.74.16-1.12.06-1.2,0-2.4.14-3.6s.45-2.63.57-3.95a17.67,17.67,0,0,0-.16-6.28,12.32,12.32,0,0,1-.37-2.41c-.1-1.53-.11-3.07-.17-4.6a2.5,2.5,0,0,0-.51-1.74,2.72,2.72,0,0,1-.33-1.35c-.18-1.26.06-2.61-.92-3.69-.21-.23-.13-.74-.17-1.12-.07-.74.1-1.56-.72-2a.16.16,0,0,1-.06-.13c.2-1.64-1.19-2.81-1.3-4.37,0-.37-.37-.71-.54-1.07a5.17,5.17,0,0,1-.34-.88c-.13-.48,0-1.09-.69-1.28-.08,0-.2-.13-.19-.19.1-1.16-1-1.83-1.17-2.88a2.57,2.57,0,0,0-.53-.89c-.1-.16-.31-.27-.34-.42-.25-1.22-1.31-2-1.74-3-.62-1.53-2.07-2.46-2.54-4.05a3.59,3.59,0,0,0-1.05-1.34c-1.16-1-1.71-2.52-2.82-3.56-.3-.27-.71-.46-.89-.78a2.57,2.57,0,0,0-.74-.91,26,26,0,0,1-2.35-2.45c-.43-.44-.89-.86-1.33-1.28a27.08,27.08,0,0,0-4.28-3.27,21,21,0,0,1-1.52-1.47c-.64-.52-1.36-.94-2-1.41-1.4-1-2.94-1.76-4.37-2.71a5.89,5.89,0,0,0-2.78-1.38c-.24,0-.46-.26-.69-.4a6.36,6.36,0,0,0-1-.5c-.42-.15-1,0-1.16-.63a.26.26,0,0,0-.2-.18,7,7,0,0,1-3-1.14c-.61-.37-1.59-.08-2.1-.89-.07-.11-.36-.09-.55-.11a3.84,3.84,0,0,1-2.5-.81c-.37-.36-1.18-.25-1.79-.34s-1.32.06-1.83-.59c-.19-.23-.7-.24-1.07-.27-1.42-.11-2.84,0-4.18-.8a4.85,4.85,0,0,0-2.12-.25c-1.53-.07-3.07-.08-4.6-.15a1.69,1.69,0,0,1-1.76-1.8c0-.38,0-.77,0-1.15s0-.48.05-.68a2,2,0,0,1,2.31-.55,25.33,25.33,0,0,0,4,.28c1,.05,2,.1,3,.17.33,0,.76,0,1,.19.85.75,1.87.61,2.85.69a3.29,3.29,0,0,1,2.15.59c.35.3,1,.25,1.52.32.78.12,1.65,0,2.19.79a.32.32,0,0,0,.25.12c1.58-.19,2.76,1,4.25,1.19a4.22,4.22,0,0,1,1.22.61,3,3,0,0,0,.74.33c.58.12,1.25,0,1.56.75,0,.11.34.13.52.16.6.12,1.23.08,1.57.79.09.19.5.26.77.31.47.08,1,.06,1.14.67,0,.11.31.18.48.23.57.16,1.28,0,1.47.87,0,.08.24.17.37.18,1.21.14,1.9,1.21,2.91,1.64,1.5.64,2.47,2,4,2.56.56.18.62,1.07,1.37,1,.82,1.42,2.5,1.8,3.54,3a30.72,30.72,0,0,0,2.67,2.56c.91.78,1.64,1.71,2.55,2.49a29.52,29.52,0,0,1,2.52,3,24.2,24.2,0,0,0,1.53,1.88,20.24,20.24,0,0,1,2.26,3.05c.51.72,1,1.45,1.5,2.2.2.31.35.66.54,1a7.85,7.85,0,0,0,.52.76c.08.11.33.16.33.24,0,.95.7,1.56,1.12,2.3.25.43.52.86.76,1.3a3.57,3.57,0,0,1,.31.76c.14.49.09,1,.72,1.31.16.06.14.51.26.76.19.41.43.8.63,1.21s.25.6.36.9c.16.47,0,1.1.66,1.31a.28.28,0,0,1,.16.22c-.17,1.6,1.3,2.72,1.27,4.29a1.74,1.74,0,0,0,.59,1.4c.28.25.27.86.32,1.32a3.46,3.46,0,0,0,.61,2c.34.42.27,1.18.37,1.79.18,1.06-.06,2.21.79,3.13.21.23.15.73.17,1.11.05,1.11,0,2.22.14,3.31a23.9,23.9,0,0,0,.51,2.49,6.38,6.38,0,0,1,.2,1.13q0,4.32,0,8.64a1.66,1.66,0,0,1-.07.71c-1,2-.6,4.14-.78,6.22a4.72,4.72,0,0,1-.6,2.44,6.36,6.36,0,0,0-.39,2.38c-.13.83,0,1.74-.73,2.4-.14.13-.15.44-.18.67-.15,1,.06,2-.82,2.76-.23.19-.15.72-.21,1.1a2.2,2.2,0,0,1-.65,1.68,1.59,1.59,0,0,0-.37.91c-.1.74,0,1.53-.83,2-.13.08-.1.45-.15.68-.11.5-.09,1-.65,1.35-.25.16-.25.69-.41,1s-.34.61-.5.92a3.1,3.1,0,0,0-.36.73c-.14.55-.11,1.13-.77,1.44-.19.09-.29.48-.35.76s-.09.81-.61,1c-.21.09-.28.55-.36.86a1.8,1.8,0,0,1-.63,1,3.28,3.28,0,0,0-1.11,1.71c-.19.95-.94,1.46-1.43,2.1a17.59,17.59,0,0,1-2.61,3.4,20.3,20.3,0,0,0-2.32,3,20.41,20.41,0,0,1-1.56,1.66c-.4.41-.86.77-1.22,1.22a24.12,24.12,0,0,1-4.66,4.42c-1.11.81-2.16,1.73-3.28,2.55a18,18,0,0,0-2.86,2c-1,1.14-2.73,1.27-3.59,2.6-.08.12-.35.12-.53.17a1.93,1.93,0,0,0-.55.14,13.72,13.72,0,0,1-1.28.92c-.47.24-1.17,0-1.41.75,0,.14-.39.2-.61.25-.55.12-1.14.14-1.43.79-.07.15-.4.19-.62.26-.52.15-1.2,0-1.42.72a.16.16,0,0,1-.1.08c-1.41-.17-2.28,1.26-3.66,1.25a1.35,1.35,0,0,0-1.24.56c-.2.29-.85.29-1.3.37-.64.11-1.28,0-1.81.65-.27.32-1,.3-1.49.38-.83.14-1.7,0-2.41.72-.24.24-.81.18-1.23.22-1.12.11-2.27,0-3.3.7a3.35,3.35,0,0,1-1.68.26c-1.77.11-3.55.18-5.32.26a2.71,2.71,0,0,0-1,.09c-.82.41-1.45.1-2.22-.51Z" transform="translate(-400.59 -400.77)"/><path class="cls-1" d="M502,561.7v-3.55a14.53,14.53,0,0,1,1.7-.3c1.15-.07,2.3-.06,3.45-.11a3.19,3.19,0,0,0,2-.54c.46-.35,1.27-.26,1.94-.33,1.1-.12,2.25.11,3.25-.73.38-.32,1.1-.22,1.67-.31s1.37,0,1.8-.69c.05-.07.16-.16.23-.15,1.51.18,2.6-1,4-1.24a2.23,2.23,0,0,0,.83-.44c.16-.09.28-.31.44-.33,1.53-.24,2.67-1.29,4-1.84,1-.4,1.7-1.28,2.8-1.39.65-.07.62-1.13,1.43-1,1-1.06,2.53-1.33,3.37-2.61a4.16,4.16,0,0,1,1.47-1c1.39-.77,2.31-2.07,3.5-3a33.1,33.1,0,0,0,2.57-2.43,16.45,16.45,0,0,0,3-3.36c.88-1.62,2.3-2.83,3.09-4.45.41-.84,1.34-1.38,1.34-2.49,0-.54.8-.71,1-1.39a21.38,21.38,0,0,1,1.68-3.21c.19-.37.13-.92.38-1.21.58-.68.55-1.66,1-2.22.71-1,.52-2.17,1.09-3a5.62,5.62,0,0,0,.82-2.92c0-.1,0-.23,0-.28,1.07-1.08.67-2.52,1-3.79.12-.55.36-1.07.51-1.62a5.83,5.83,0,0,0,.33-1.52c0-5.61,0-11.22,0-16.84a9.77,9.77,0,0,0-.49-1.75c-.18-.88-.32-1.78-.47-2.67s.06-1.65-.7-2.26c-.14-.11-.15-.44-.18-.67-.12-1,0-2-.84-2.76-.23-.19-.16-.72-.24-1.1s0-.92-.27-1.08a2.15,2.15,0,0,1-.77-1.74,2.3,2.3,0,0,0-.37-.71c-.18-.32-.37-.64-.54-1s-.4-.84-.58-1.26-.35-.77-.48-1.17a11,11,0,0,0-1.53-2.58c-.1-.1-.27-.18-.29-.29-.25-1.38-1.37-2.26-2-3.42-.68-1.34-1.89-2.26-2.51-3.69-.42-1-1.74-1.53-2.35-2.47s-1.83-1.56-2.36-2.65c-.25-.51-1.19-.3-1.12-1.11-1.31-.81-2.2-2.13-3.48-2.94-1.52-1-2.81-2.28-4.4-3.08-.84-.43-1.38-1.44-2.48-1.37-.52-1-1.73-1-2.57-1.5a7.29,7.29,0,0,0-3-1.42c-.29,0-.55-.31-.83-.46a5.16,5.16,0,0,0-.87-.39c-.58-.17-1.26-.08-1.62-.74a.33.33,0,0,0-.24-.14c-1.31,0-2.38-.79-3.58-1.11-1-.27-2-.15-3-.88-.44-.35-1.3-.16-2-.21-1-.08-2,.06-2.87-.69-.24-.21-.73-.17-1.1-.19-1.25-.05-2.5-.05-3.74-.11-.61,0-1.2-.16-1.9-.26v-3.66a16.27,16.27,0,0,1,1.69-.14c1.68,0,3.36.06,5,.14a3.71,3.71,0,0,1,2.42.62c.48.37,1.38.24,2.09.28a3.9,3.9,0,0,1,2.44.69,2.63,2.63,0,0,0,1.22.32c.78.11,1.61,0,2.2.76.15.2.63.17,1,.21.7.08,1.43,0,1.88.78.1.17.51.2.79.25.56.1,1.13.1,1.53.64a1.21,1.21,0,0,0,.77.32c.67.1,1.35.1,1.74.8a.49.49,0,0,0,.38.17c1-.1,1.43.78,2.2,1.07a5.51,5.51,0,0,1,2.19,1.14c.59.7,1.6.62,2,1.16a4.67,4.67,0,0,0,1.9,1.36,40.28,40.28,0,0,1,3.66,2.91c.7.53,1.45,1,2.14,1.51a13.46,13.46,0,0,1,1.48,1.34c.45.47.74,1.17,1.28,1.46.9.51,1.28,1.46,2,2a13.15,13.15,0,0,1,1.92,2.25c.83,1,1.58,2.08,2.5,3a13.52,13.52,0,0,1,1.39,2.23c.86,1.31,1.76,2.6,2.59,3.92.25.4.21,1.08.53,1.3.79.53.61,1.46,1,2a4.27,4.27,0,0,1,.87,2,.85.85,0,0,0,.3.47c.55.42.54,1.06.73,1.64.41,1.28.84,2.57,1.35,3.79a6.65,6.65,0,0,1,.65,2.07,2.33,2.33,0,0,0,.58,1.7c.3.3.24,1,.29,1.5a5.32,5.32,0,0,0,.69,2.74,3.12,3.12,0,0,1,.33,1.52c.08,1.2.08,2.4.15,3.6.06.93-.14,1.93.62,2.71l0,7.18c-1,1.36-.53,3-.7,4.44s.05,2.94-.84,4.31c-.34.54-.19,1.4-.27,2.11a2.34,2.34,0,0,1-.51,1.58,2.53,2.53,0,0,0-.36,1.33c-.09.74.08,1.56-.72,2.05a.33.33,0,0,0-.1.26c0,1.51-1.2,2.62-1.26,4.11a1.09,1.09,0,0,1-.32.77,2.5,2.5,0,0,0-.79,1.62,3.34,3.34,0,0,1-.47.81c-.11.2-.3.38-.32.58a3.67,3.67,0,0,1-.81,1.7c-.46.63-.76,1.45-1.25,2.14-.9,1.27-1.44,2.77-2.54,3.93-.59.61-.72,1.57-1.45,2.16a6.75,6.75,0,0,0-1,1.37,12.62,12.62,0,0,1-2.2,2.81c-1,.72-1.51,1.82-2.56,2.47a14.13,14.13,0,0,0-2.33,2.31,7.21,7.21,0,0,1-1.48,1.35,12.16,12.16,0,0,0-2.57,2,17.3,17.3,0,0,1-3.25,2.23,12.32,12.32,0,0,1-1.32.9,4.16,4.16,0,0,0-1.37.83,14.79,14.79,0,0,1-2.43,1.31c-.79.5-1.67.79-2.44,1.24a5.22,5.22,0,0,1-1.91.78,3.68,3.68,0,0,0-1,.51,2.87,2.87,0,0,1-.73.35c-.66.11-1.32.13-1.73.81-.09.15-.43.18-.66.22-.86.15-1.79,0-2.48.83-.18.22-.73.15-1.11.19a4.2,4.2,0,0,0-2.42.74c-.36.28-1,.21-1.51.29-1,.15-2-.2-2.81.72-.09.12-.36.11-.55.12-2.34.07-4.69.15-7,.2a4.21,4.21,0,0,1-.9-.18Z" transform="translate(-400.59 -400.77)"/><path class="cls-2" d="M497.67,437.7v4.08l-3.22.1-2.3.07c-.33,0-.78-.05-1,.14-1,1-2.33.64-3.53.77-.74.08-1.51,0-2.1.66-.17.21-.62.21-1,.25a4.09,4.09,0,0,0-2.54.78,1.51,1.51,0,0,1-.81.23,2.29,2.29,0,0,0-1.9.74c-.21.26-.81.22-1.22.33s-1.05.08-1.35.66c-.08.16-.4.24-.62.28-.6.1-1.23.07-1.52.81-.05.13-.43.13-.65.21-.46.17-1.09.05-1.28.73a.43.43,0,0,1-.34.21c-1.32,0-2.05,1.1-3,1.72-.83.53-1.76.91-2.57,1.47a11.12,11.12,0,0,0-2,1.59,25.87,25.87,0,0,1-2.94,2.32c-1,.82-1.93,1.72-2.91,2.56a47.38,47.38,0,0,0-3.88,4.48c-.89,1-2.1,1.86-2.41,3.32-.76.33-.6,1.46-1.48,1.71-.13,0-.25.28-.28.45-.18,1.11-1,1.81-1.62,2.68a4.26,4.26,0,0,0-.44.88c-.14.39-.06.9-.64,1a.31.31,0,0,0-.19.2c.16,1.23-1.06,1.92-1.2,3a2.42,2.42,0,0,1-.45.83c-.07.12-.27.21-.26.32,0,1.42-1.08,2.47-1.26,3.82a2.57,2.57,0,0,1-.72,1.8c-.25.22-.23.79-.26,1.21a4.84,4.84,0,0,1-.67,2.6,3.68,3.68,0,0,0-.29,1.66c-.13,1.32,0,2.67-.79,3.89a2.68,2.68,0,0,0-.2,1.4c0,4.08,0,8.16,0,12.24a11.94,11.94,0,0,0,.51,2c.17.83.32,1.68.41,2.53.12,1.09,0,2.2.75,3.15a2.59,2.59,0,0,1,.21,1.11c.12.87-.08,1.81.76,2.49.21.16.19.63.25,1,.12.68.05,1.42.78,1.9.2.13.22.61.25.94.06.67.06,1.34.74,1.77.15.1.17.42.25.64.17.52.08,1.18.78,1.41.07,0,.17.15.16.22-.19,1.2,1,1.84,1.2,2.88a4.76,4.76,0,0,0,.88,1.37c.87,1.24,1.41,2.71,2.56,3.76a.81.81,0,0,1,.24.34c.3,1.09,1.23,1.71,1.86,2.54a32,32,0,0,1,2.19,2.65,14.6,14.6,0,0,0,2.67,3c1.3,1.22,2.73,2.3,4.14,3.4.88.69,1.77,1.46,2.61,2.24a3,3,0,0,0,.45.34,31.17,31.17,0,0,1,3.93,2.39,3.6,3.6,0,0,0,1.91.92c.49,1.13,2.06.55,2.58,1.64,0,0,.07.09.1.09,1.25-.07,2,1.1,3.22,1.21.56,0,1.17.08,1.49.69,0,.07.14.18.21.17,1.39-.1,2.48.84,3.77,1.09.82.16,1.68.07,2.39.77.29.29,1,.17,1.52.24,1.2.16,2.47-.19,3.54.75.33.28,1,.16,1.55.18,1.58.06,3.15.09,4.81.14a10.25,10.25,0,0,1,.16,3.85c-.19.08-.32.19-.44.19-2.45-.07-4.89-.14-7.33-.23-.24,0-.56,0-.7-.12-.89-.89-2-.65-3.1-.74a2.41,2.41,0,0,1-1.7-.59,2.37,2.37,0,0,0-1.21-.37c-.91-.17-1.92.06-2.63-.84-.16-.19-.65-.08-1-.19-.57-.18-1.13-.43-1.69-.65-.34-.13-.68-.27-1-.37s-1.1,0-1.3-.66a.28.28,0,0,0-.22-.16c-1.08.09-1.81-.7-2.68-1.1-1.12-.52-2.2-1.11-3.29-1.67-.89-.46-1.68-1.07-2.59-1.49a13.17,13.17,0,0,1-2.12-1.5,1.42,1.42,0,0,0-.44-.31,5.47,5.47,0,0,1-2.52-1.85c-.77-.74-1.68-1.34-2.51-2-1.38-1.13-2.82-2.21-4.09-3.45a36.26,36.26,0,0,1-2.48-3.13c-.44-.55-1-1-1.37-1.61a15.26,15.26,0,0,1-1.51-1.84,14.83,14.83,0,0,0-1.61-2.21,4.33,4.33,0,0,1-.93-1.31c-.27-1.11-1.14-1.85-1.57-2.87-.36-.85-.93-1.66-1.34-2.52-.17-.37-.35-.73-.54-1.09s-.44-.79-.64-1.2c-.12-.24-.19-.51-.29-.77-.5-1.18-1.28-2.26-1.28-3.63-.74-.55-.74-1.38-.84-2.18a.87.87,0,0,0-.24-.5,2.78,2.78,0,0,1-.73-2.11,2.89,2.89,0,0,0-.62-2.11c-.34-.38-.25-1.18-.3-1.8a5.42,5.42,0,0,0-.75-3.15,2.52,2.52,0,0,1-.24-1.39c0-5.57,0-11.14,0-16.7a9.7,9.7,0,0,1,.54-1.88c.17-.74.3-1.49.42-2.24.15-.95-.1-2,.73-2.81.32-.33.19-1.1.22-1.67a2.63,2.63,0,0,1,.62-1.86c.11-.1.25-.21.26-.33a4.82,4.82,0,0,1,1-2.73c-.32-1.45,1.16-2.31,1.21-3.64.94-.73.92-2,1.46-2.92s1.41-1.84,1.57-3.05c0-.37.58-.65.81-1s.33-.89.6-1.27a25.85,25.85,0,0,0,2.61-3.83,4.71,4.71,0,0,1,1.12-1.29,31.5,31.5,0,0,0,2.9-3.43c.5-.61,1.13-1.16,1.65-1.74,1.19-1.32,2.71-2.21,3.95-3.45a46,46,0,0,1,3.63-3.19c.55-.44,1.31-.48,1.86-1.12s1.76-.66,2.25-1.29c.68-.88,1.79-.86,2.51-1.65a4.29,4.29,0,0,1,2.32-1.17c1.15-.2,1.87-1.36,3.11-1.21a.45.45,0,0,0,.36-.19c.17-.65.71-.56,1.17-.62a1.66,1.66,0,0,0,1.37-.63.66.66,0,0,1,.37-.22c1.42-.4,2.85-.83,4.29-1.18a3.73,3.73,0,0,0,2-.69,2.38,2.38,0,0,1,1.21-.31c1.1-.15,2.31.18,3.22-.78.06-.06.19-.05.28-.06l8.19-.32Z" transform="translate(-400.59 -400.77)"/><path class="cls-1" d="M502,552.73V549c1-.06,2-.11,3-.18s2.06.11,3-.67c.4-.33,1.2-.19,1.82-.23a4.57,4.57,0,0,0,3-.8c.24-.22.72-.18,1.09-.23.73-.1,1.56.09,2-.76.05-.09.26-.11.4-.12a3.36,3.36,0,0,0,2.59-1c.16-.2.63-.12,1-.2s.67-.14.74-.31c.2-.53.6-.53,1-.6s.95-.16,1.15-.72c0-.13.28-.24.45-.29.57-.15,1.18,0,1.56-.76.22-.41,1.14-.18,1.31-.91,0-.06.15-.09.24-.13A5.39,5.39,0,0,0,528,540c1-.93,2.29-1.46,3.35-2.3a32.93,32.93,0,0,0,2.41-2.46c.81-.81,1.71-1.54,2.47-2.4a14.09,14.09,0,0,0,2.6-3.28,3.83,3.83,0,0,1,1.28-1.65c.44-.28.49-.59.67-1a4.46,4.46,0,0,1,1-1.65c.9-.68.68-2,1.7-2.59.17-.09.15-.52.21-.8.09-.45,0-1,.66-1.14a.28.28,0,0,0,.2-.18,9.12,9.12,0,0,1,1-2.49c.32-.85,0-1.93,1-2.56.16-.11.13-.54.16-.83a3.24,3.24,0,0,1,.69-2.24c.32-.33.21-1.09.25-1.66a6.25,6.25,0,0,1,.7-3,3.32,3.32,0,0,0,.28-1.68c0-4.18,0-8.35,0-12.52a13.72,13.72,0,0,0-.54-2.19c-.19-.93-.3-1.88-.44-2.82-.1-.64,0-1.28-.6-1.83-.3-.27-.22-1-.3-1.5s0-1.12-.6-1.53a1.71,1.71,0,0,1-.43-1c-.14-.71.1-1.55-.81-2-.13-.06-.11-.44-.16-.67-.1-.5-.06-1.06-.73-1.27-.14-.05-.23-.38-.29-.6-.15-.56,0-1.29-.8-1.5-.08,0-.14-.24-.15-.37,0-1.13-1.12-1.67-1.42-2.66a4.57,4.57,0,0,0-.78-1.48c-.29-.37-1-.4-.94-1.09-1-.31-.86-1.45-1.47-2.09s-1.36-1.07-1.61-1.95c-1.46-.82-2.15-2.49-3.66-3.26-.48-1.12-1.73-1.51-2.4-2.47a1,1,0,0,0-.48-.27,6.54,6.54,0,0,1-2.36-1.74,1.29,1.29,0,0,0-.58-.33,7.71,7.71,0,0,1-2.57-1.71A1.92,1.92,0,0,0,524,457c-.52-.18-1.21,0-1.38-.81,0-.09-.21-.17-.34-.21-.66-.17-1.46-.06-1.77-.91-1.46.11-2.36-1.33-3.83-1.32-.56,0-1.1-.59-1.7-.76s-1.51.07-1.95-.29c-1.1-.87-2.33-.76-3.55-.88a3,3,0,0,1-2-.59c-.32-.3-1-.23-1.52-.26-1.28-.07-2.56-.1-3.93-.15v-3.84c.68,0,1.29-.11,1.9-.11,1.1,0,2.2,0,3.31.07a3,3,0,0,1,1.87.51,4.35,4.35,0,0,0,1.93.4c1.06.16,2.23-.12,3.07.85.1.11.36.09.55.11,1,.13,2,0,2.76.85.11.12.36.12.55.15a2.75,2.75,0,0,0,.57.05c.81-.06,1.17.71,1.81.95s1.4-.13,1.73.71c0,0,.07.1.1.1,1.26-.12,1.9,1.16,3.06,1.33.37,0,.67.67,1,.73,1.27.19,2,1.18,3,1.84a1.07,1.07,0,0,0,.37.21c1.08.15,1.55,1.15,2.35,1.68a2.65,2.65,0,0,0,.56.36c1,.27,1.54,1.1,2.25,1.74l2.64,2.37a6.33,6.33,0,0,1,1.27,1.2,23.22,23.22,0,0,0,2.73,3c.51.58.67,1.41,1.33,2,.47.4.58,1.33,1.08,1.59,1.05.53.67,2,1.79,2.38,0,0,.09.16.1.25.17,1.27,1.23,2,1.69,3.14.14.35.25.71.38,1.06s.28.7.44,1,.4.82.61,1.22.4.71.61,1.07c.09.16.26.31.27.48a3.69,3.69,0,0,0,1,2.74c-.15,1.76,1.2,3.16,1.13,4.93a6.67,6.67,0,0,0,.51,1.88,7.65,7.65,0,0,1,.32,1.38,118.37,118.37,0,0,1,0,17.26,9.73,9.73,0,0,1-.52,1.58,15.78,15.78,0,0,0-.34,1.82c-.12.82.1,1.73-.69,2.38-.15.12-.15.45-.18.68-.13.94-.08,1.92-.88,2.65-.18.17-.19.53-.23.81-.1.64.05,1.35-.71,1.75-.18.1-.16.53-.28.79-.18.42-.39.82-.6,1.22-.09.17-.23.32-.3.49-.38.94-.5,2.17-1.18,2.77-.86.75-.81,1.88-1.65,2.63-.52.46-.71,1.44-1.32,2.07-.42.42-.58,1.11-1,1.49-1.1,1-1.59,2.38-2.73,3.38a12.55,12.55,0,0,0-2.3,2.55,7.34,7.34,0,0,1-1.25,1.16c-.6.58-1.22,1.13-1.8,1.74a7,7,0,0,1-1.52,1.18,15.15,15.15,0,0,0-2.64,2,16.17,16.17,0,0,1-2,1.16c-.32.2-.62.29-.79.68-.09.19-.45.28-.71.37-.46.18-1.07,0-1.25.75,0,.14-.51.15-.77.25s-.69.3-1,.47-.71.38-1.06.57l-1,.61c-.07,0-.13.2-.18.19-1.43-.2-2.31,1.08-3.65,1.3s-2.47,1.08-3.88,1c-1,1.1-2.39.75-3.62.94-.66.1-1.36,0-1.84.63a.59.59,0,0,1-.39.15,35.6,35.6,0,0,1-6.29.05Z" transform="translate(-400.59 -400.77)"/><path class="cls-2" d="M497.65,450.9c-1,0-1.87,0-2.73,0a5.21,5.21,0,0,0-2.73.58,6.1,6.1,0,0,1-2.53.35,4.09,4.09,0,0,0-2.28.64,4.08,4.08,0,0,1-1.8.39c-.64.1-1.37-.05-1.76.69-1.28,0-2.16,1-3.33,1.28a4.58,4.58,0,0,0-1.73.73,24.89,24.89,0,0,1-2.3,1.24,13.67,13.67,0,0,0-2.89,1.75,8,8,0,0,1-2.14,1.21c-.59.26-.59.78-1,1.06a23.41,23.41,0,0,0-4.73,3.84c-1,1.17-2.26,2.19-3.25,3.43a24.72,24.72,0,0,1-1.72,2.31A10.76,10.76,0,0,0,459.5,472c-.28.38-.48.8-.77,1.16a19.91,19.91,0,0,0-1.41,2.45c-.58,1-1.44,1.8-1.55,3a1.28,1.28,0,0,1-.45.86,1.7,1.7,0,0,0-.59,1.24,4.59,4.59,0,0,1-.55,1.08c0,.08-.2.14-.19.19.21,1.65-1.34,2.8-1.27,4.42a2.68,2.68,0,0,1-.59,1.84,3.53,3.53,0,0,0-.31,1.8,7.11,7.11,0,0,1-.68,3.46,4.2,4.2,0,0,0-.28,2q0,4.32,0,8.64a6,6,0,0,0,.65,2.89,7.06,7.06,0,0,1,.3,2.4c.1.87-.07,1.77.67,2.56.32.33.2,1.09.26,1.65s0,1.16.59,1.53a.71.71,0,0,1,.29.48c-.08,1.34.9,2.31,1.17,3.53a3.67,3.67,0,0,0,.5,1c.14.24.4.47.43.73.15,1.37,1.2,2.26,1.71,3.42.4.92,1.05,1.67,1.48,2.57a10.79,10.79,0,0,0,1.62,2.16,32.21,32.21,0,0,1,2.2,2.82,14.26,14.26,0,0,0,2.74,3,23.73,23.73,0,0,0,2.36,2.23c.84.54,1.54,1.31,2.41,1.77.58.3.65,1,1.42,1.23a16.67,16.67,0,0,1,1.66.94c.53.26.84.83,1.52,1.06.89.31,1.59,1.2,2.48,1.46,1.15.35,2,1.18,3.26,1.45a13.08,13.08,0,0,1,3.46,1.49,3.81,3.81,0,0,0,1.35.37,4.12,4.12,0,0,1,2.55.77c.29.27.9.21,1.38.27,1.25.15,2.58-.11,3.7.81.25.2.74.11,1.13.12h3.52v4h-5.84c-1.42-1-3.18-.57-4.65-1.09a32.92,32.92,0,0,1-3.64-1c-1.12-.58-2.5-.51-3.43-1.47a1.46,1.46,0,0,0-.79-.3c-.62-.13-1.36,0-1.69-.78-.05-.13-.43-.13-.65-.2-.48-.14-1.08-.09-1.28-.74a.31.31,0,0,0-.21-.18c-1.75-.16-3-1.4-4.32-2.29a14.4,14.4,0,0,1-3.55-2.56,14.3,14.3,0,0,0-2.51-2.06,20.39,20.39,0,0,1-5.54-5.72,8,8,0,0,0-1.16-1.32,13.06,13.06,0,0,1-2.66-3.55,2.51,2.51,0,0,0-.52-.57c-.13-.13-.35-.23-.38-.37a5.83,5.83,0,0,0-1.79-3,1.69,1.69,0,0,1-.22-.53c-.18-.5-.07-1.14-.76-1.43-.19-.08-.16-.61-.28-.93a9.42,9.42,0,0,0-.45-1,5.06,5.06,0,0,1-.55-1.12c-.15-.64-.09-1.36-.81-1.73.08-1.4-1-2.41-1.2-3.72a5.28,5.28,0,0,0-.75-2.68c-.39-.52-.2-1.48-.26-2.24a4.27,4.27,0,0,0-.61-2.47,2.1,2.1,0,0,1-.25-1.24c0-4.42,0-8.83,0-13.24a7.71,7.71,0,0,1,.45-1.62c.15-.6.28-1.2.37-1.81.17-1.14-.18-2.4.8-3.37.17-.16.13-.55.15-.84a3.66,3.66,0,0,1,.91-2.78c.17-.15.13-.54.17-.82.09-.55,0-1.13.63-1.5.21-.13.26-.6.32-.92.11-.66.14-1.33.83-1.73.15-.09.18-.42.22-.64.11-.55,0-1.17.73-1.43.1,0,.17-.24.17-.37.07-1.2,1.09-1.85,1.59-2.79a5.15,5.15,0,0,0,.37-.58c.2-.56.24-1.06.92-1.46s.82-1.3,1.25-2a6.75,6.75,0,0,1,1.32-1.81c1.17-.89,1.72-2.25,2.72-3.25.83-.82,1.62-1.69,2.45-2.52,1.11-1.11,2.42-2,3.62-3,1-.85,1.91-2.11,3.45-2.32.5-.07.48-1.08,1.26-.89.52-.9,1.82-.74,2.33-1.69.08-.15.42-.16.64-.22.49-.14,1,0,1.31-.7.07-.18.48-.24.74-.33.46-.18,1.1,0,1.27-.73,0-.1.32-.2.5-.2.85,0,1.5-.68,2.2-.82,1.48-.28,2.66-1.43,4.25-1.33a1.68,1.68,0,0,0,1.09-.24,4.84,4.84,0,0,1,2.86-.74,3.74,3.74,0,0,0,2.42-.68,1.06,1.06,0,0,1,.69-.19c1.86,0,3.73,0,5.72,0v4Z" transform="translate(-400.59 -400.77)"/></svg>