<svg id="Layer_1" data-name="Layer 1" xmlns="http://www.w3.org/2000/svg" viewBox="0 0 150.76 129.44"><defs><style>.cls-1{fill:#e33143;}.cls-2{fill:#231f20;}.cls-3{fill:#eb8923;}.cls-4{fill:#0080c6;}</style></defs><path class="cls-1" d="M354.26,695.8c-2.2-16.62-10.38-30.18-18.74-30.25s-20.59,13.58-27.71,30.28.93,30.24,18.84,30.24c18-.19,29.82-13.62,27.61-30.27" transform="translate(-250.38 -596.63)"/><path class="cls-2" d="M268.87,651.55h0c-10.69,0-18.49,8.45-18.49,19.15s7.8,18.89,18.49,18.89a19.55,19.55,0,0,0,15.28-7.3,5.5,5.5,0,0,0-4.87-2.57c-3.25,0-4,3.25-10.41,3.25s-11.51-5.34-11.51-12.27,5.22-12.52,11.51-12.52c5.74,0,7.12,3.41,10.07,3.41s4.67-2.36,5.07-2.73a19.25,19.25,0,0,0-15.14-7.31" transform="translate(-250.38 -596.63)"/><path class="cls-2" d="M306.59,652.66h-15c-2.54,0-4.32,1.52-4.32,4v2.21h6.7s.25,22.65,0,25.09h0c-.09,1.87-.9,6.34-5.2,8.36-3.54,1.66-3.58,3.24-3.76,5.7h0c.05.18.13.29.23.29h.06c.13,0,3.51-.86,4-1.07h0c3.18-1,8-3.16,10.35-7.67,0,0,2.17-3.34,2.13-10.51V658.82H302c2.54,0,4.57-1.52,4.57-4v-2.22" transform="translate(-250.38 -596.63)"/><path class="cls-3" d="M384.13,640.75c-15.68-6.17-31.52-5.52-35.57,1.78s1.91,24.54,13.07,38.87,26.89,13.84,35.58-1.82,2.56-32.68-13.08-38.83" transform="translate(-250.38 -596.63)"/><path class="cls-4" d="M304.39,645.75c13.92,9.5,29.5,12.38,35,6.21s3.65-24.36-4-40.82-23.15-19.48-35.1-6.15c-11.8,13.32-9.77,31.28,4.11,40.76" transform="translate(-250.38 -596.63)"/></svg>