<svg id="Layer_1" data-name="Layer 1" xmlns="http://www.w3.org/2000/svg" viewBox="0 0 81.25 81.25"><defs><style>.cls-1{fill:#2d9dd8;}</style></defs><path class="cls-1" d="M499.66,459.22a40.63,40.63,0,1,0,40.62,40.62A40.62,40.62,0,0,0,499.66,459.22Zm15.05,32.14s.85-5.34,7.17-5.34c4,0,5.76,2.15,6.51,3.73a30.45,30.45,0,0,1-50,31.91,21.41,21.41,0,0,0,2.66.22c1.15,0,13.06-.86,13.06-13.56v-3.71h11v11.13h9.54Zm-30.1,17s-.86,5.34-7.18,5.34c-4,0-5.76-2.15-6.5-3.72a30.45,30.45,0,0,1,50-31.92,24,24,0,0,0-2.66-.22c-1.16,0-13.06.86-13.06,13.56v3.71h-11V483.94h-9.54Z" transform="translate(-459.03 -459.22)"/></svg>