<svg width="22" height="22" viewBox="0 0 22 22" fill="none" xmlns="http://www.w3.org/2000/svg">
<path d="M10 5C10 7.76142 7.76142 10 5 10C2.23858 10 0 7.76142 0 5C0 2.23858 2.23858 0 5 0C7.76142 0 10 2.23858 10 5ZM2 5C2 6.65685 3.34315 8 5 8C6.65685 8 8 6.65685 8 5C8 3.34315 6.65685 2 5 2C3.34315 2 2 3.34315 2 5Z" fill="white"/>
<path d="M22 5C22 7.76142 19.7614 10 17 10C14.2386 10 12 7.76142 12 5C12 2.23858 14.2386 0 17 0C19.7614 0 22 2.23858 22 5ZM14 5C14 6.65685 15.3431 8 17 8C18.6569 8 20 6.65685 20 5C20 3.34315 18.6569 2 17 2C15.3431 2 14 3.34315 14 5Z" fill="white"/>
<path d="M10 17C10 19.7614 7.76142 22 5 22C2.23858 22 0 19.7614 0 17C0 14.2386 2.23858 12 5 12C7.76142 12 10 14.2386 10 17ZM2 17C2 18.6569 3.34315 20 5 20C6.65685 20 8 18.6569 8 17C8 15.3431 6.65685 14 5 14C3.34315 14 2 15.3431 2 17Z" fill="white"/>
<path d="M22 17C22 19.7614 19.7614 22 17 22C14.2386 22 12 19.7614 12 17C12 14.2386 14.2386 12 17 12C19.7614 12 22 14.2386 22 17ZM14 17C14 18.6569 15.3431 20 17 20C18.6569 20 20 18.6569 20 17C20 15.3431 18.6569 14 17 14C15.3431 14 14 15.3431 14 17Z" fill="white"/>
</svg>
